# Unit radius 50 cm; +Z is surface up; polar UV
v -0.750000 -0.000000 0.000000
v -0.748394 -0.049052 0.000000
v -0.743584 -0.097895 0.000000
v -0.735589 -0.146318 0.000000
v -0.724444 -0.194114 0.000000
v -0.710198 -0.241080 0.000000
v -0.692910 -0.287013 0.000000
v -0.672655 -0.331717 0.000000
v -0.649519 -0.375000 0.000000
v -0.623602 -0.416678 0.000000
v -0.595015 -0.456571 0.000000
v -0.563880 -0.494509 0.000000
v -0.530330 -0.530330 0.000000
v -0.494509 -0.563880 0.000000
v -0.456571 -0.595015 0.000000
v -0.416678 -0.623602 0.000000
v -0.375000 -0.649519 0.000000
v -0.331717 -0.672655 0.000000
v -0.287013 -0.692910 0.000000
v -0.241080 -0.710198 0.000000
v -0.194114 -0.724444 0.000000
v -0.146318 -0.735589 0.000000
v -0.097895 -0.743584 0.000000
v -0.049052 -0.748394 0.000000
v 0.000000 -0.750000 0.000000
v 0.049052 -0.748394 0.000000
v 0.097895 -0.743584 0.000000
v 0.146318 -0.735589 0.000000
v 0.194114 -0.724444 0.000000
v 0.241080 -0.710198 0.000000
v 0.287013 -0.692910 0.000000
v 0.331717 -0.672655 0.000000
v 0.375000 -0.649519 0.000000
v 0.416678 -0.623602 0.000000
v 0.456571 -0.595015 0.000000
v 0.494509 -0.563880 0.000000
v 0.530330 -0.530330 0.000000
v 0.563880 -0.494509 0.000000
v 0.595015 -0.456571 0.000000
v 0.623602 -0.416678 0.000000
v 0.649519 -0.375000 0.000000
v 0.672655 -0.331717 0.000000
v 0.692910 -0.287013 0.000000
v 0.710198 -0.241080 0.000000
v 0.724444 -0.194114 0.000000
v 0.735589 -0.146318 0.000000
v 0.743584 -0.097895 0.000000
v 0.748394 -0.049052 0.000000
v 0.750000 0.000000 0.000000
v 0.748394 0.049052 0.000000
v 0.743584 0.097895 0.000000
v 0.735589 0.146318 0.000000
v 0.724444 0.194114 0.000000
v 0.710198 0.241080 0.000000
v 0.692910 0.287013 0.000000
v 0.672655 0.331717 0.000000
v 0.649519 0.375000 0.000000
v 0.623602 0.416678 0.000000
v 0.595015 0.456571 0.000000
v 0.563880 0.494509 0.000000
v 0.530330 0.530330 0.000000
v 0.494509 0.563880 0.000000
v 0.456571 0.595015 0.000000
v 0.416678 0.623602 0.000000
v 0.375000 0.649519 0.000000
v 0.331717 0.672655 0.000000
v 0.287013 0.692910 0.000000
v 0.241080 0.710198 0.000000
v 0.194114 0.724444 0.000000
v 0.146318 0.735589 0.000000
v 0.097895 0.743584 0.000000
v 0.049052 0.748394 0.000000
v 0.000000 0.750000 0.000000
v -0.049052 0.748394 0.000000
v -0.097895 0.743584 0.000000
v -0.146318 0.735589 0.000000
v -0.194114 0.724444 0.000000
v -0.241080 0.710198 0.000000
v -0.287013 0.692910 0.000000
v -0.331717 0.672655 0.000000
v -0.375000 0.649519 0.000000
v -0.416678 0.623602 0.000000
v -0.456571 0.595015 0.000000
v -0.494509 0.563880 0.000000
v -0.530330 0.530330 0.000000
v -0.563880 0.494509 0.000000
v -0.595015 0.456571 0.000000
v -0.623602 0.416678 0.000000
v -0.649519 0.375000 0.000000
v -0.672655 0.331717 0.000000
v -0.692910 0.287013 0.000000
v -0.710198 0.241080 0.000000
v -0.724444 0.194114 0.000000
v -0.735589 0.146318 0.000000
v -0.743584 0.097895 0.000000
v -0.748394 0.049052 0.000000
v -0.750000 0.000000 0.000000
v -6.906250 -0.000000 0.000000
v -6.891463 -0.451690 0.000000
v -6.847166 -0.901447 0.000000
v -6.773548 -1.347343 0.000000
v -6.670925 -1.787469 0.000000
v -6.539736 -2.219941 0.000000
v -6.380543 -2.642907 0.000000
v -6.194027 -3.054556 0.000000
v -5.980988 -3.453125 0.000000
v -5.742337 -3.836907 0.000000
v -5.479097 -4.204259 0.000000
v -5.192394 -4.553607 0.000000
v -4.883456 -4.883456 0.000000
v -4.553607 -5.192394 0.000000
v -4.204259 -5.479097 0.000000
v -3.836907 -5.742337 0.000000
v -3.453125 -5.980988 0.000000
v -3.054556 -6.194027 0.000000
v -2.642907 -6.380543 0.000000
v -2.219941 -6.539736 0.000000
v -1.787469 -6.670925 0.000000
v -1.347343 -6.773548 0.000000
v -0.901447 -6.847166 0.000000
v -0.451690 -6.891463 0.000000
v 0.000000 -6.906250 0.000000
v 0.451690 -6.891463 0.000000
v 0.901447 -6.847166 0.000000
v 1.347343 -6.773548 0.000000
v 1.787469 -6.670925 0.000000
v 2.219941 -6.539736 0.000000
v 2.642907 -6.380543 0.000000
v 3.054556 -6.194027 0.000000
v 3.453125 -5.980988 0.000000
v 3.836907 -5.742337 0.000000
v 4.204259 -5.479097 0.000000
v 4.553607 -5.192394 0.000000
v 4.883456 -4.883456 0.000000
v 5.192394 -4.553607 0.000000
v 5.479097 -4.204259 0.000000
v 5.742337 -3.836907 0.000000
v 5.980988 -3.453125 0.000000
v 6.194027 -3.054556 0.000000
v 6.380543 -2.642907 0.000000
v 6.539736 -2.219941 0.000000
v 6.670925 -1.787469 0.000000
v 6.773548 -1.347343 0.000000
v 6.847166 -0.901447 0.000000
v 6.891463 -0.451690 0.000000
v 6.906250 0.000000 0.000000
v 6.891463 0.451690 0.000000
v 6.847166 0.901447 0.000000
v 6.773548 1.347343 0.000000
v 6.670925 1.787469 0.000000
v 6.539736 2.219941 0.000000
v 6.380543 2.642907 0.000000
v 6.194027 3.054556 0.000000
v 5.980988 3.453125 0.000000
v 5.742337 3.836907 0.000000
v 5.479097 4.204259 0.000000
v 5.192394 4.553607 0.000000
v 4.883456 4.883456 0.000000
v 4.553607 5.192394 0.000000
v 4.204259 5.479097 0.000000
v 3.836907 5.742337 0.000000
v 3.453125 5.980988 0.000000
v 3.054556 6.194027 0.000000
v 2.642907 6.380543 0.000000
v 2.219941 6.539736 0.000000
v 1.787469 6.670925 0.000000
v 1.347343 6.773548 0.000000
v 0.901447 6.847166 0.000000
v 0.451690 6.891463 0.000000
v 0.000000 6.906250 0.000000
v -0.451690 6.891463 0.000000
v -0.901447 6.847166 0.000000
v -1.347343 6.773548 0.000000
v -1.787469 6.670925 0.000000
v -2.219941 6.539736 0.000000
v -2.642907 6.380543 0.000000
v -3.054556 6.194027 0.000000
v -3.453125 5.980988 0.000000
v -3.836907 5.742337 0.000000
v -4.204259 5.479097 0.000000
v -4.553607 5.192394 0.000000
v -4.883456 4.883456 0.000000
v -5.192394 4.553607 0.000000
v -5.479097 4.204259 0.000000
v -5.742337 3.836907 0.000000
v -5.980988 3.453125 0.000000
v -6.194027 3.054556 0.000000
v -6.380543 2.642907 0.000000
v -6.539736 2.219941 0.000000
v -6.670925 1.787469 0.000000
v -6.773548 1.347343 0.000000
v -6.847166 0.901447 0.000000
v -6.891463 0.451690 0.000000
v -6.906250 0.000000 0.000000
v -13.062500 -0.000000 0.000000
v -13.034532 -0.854328 0.000000
v -12.950749 -1.704998 0.000000
v -12.811508 -2.548367 0.000000
v -12.617406 -3.380824 0.000000
v -12.369275 -4.198803 0.000000
v -12.068176 -4.998802 0.000000
v -11.715400 -5.777396 0.000000
v -11.312457 -6.531250 0.000000
v -10.861072 -7.257136 0.000000
v -10.363178 -7.951946 0.000000
v -9.820907 -8.612705 0.000000
v -9.236582 -9.236582 0.000000
v -8.612705 -9.820907 0.000000
v -7.951946 -10.363178 0.000000
v -7.257136 -10.861072 0.000000
v -6.531250 -11.312457 0.000000
v -5.777396 -11.715400 0.000000
v -4.998802 -12.068176 0.000000
v -4.198803 -12.369275 0.000000
v -3.380824 -12.617406 0.000000
v -2.548367 -12.811508 0.000000
v -1.704998 -12.950749 0.000000
v -0.854328 -13.034532 0.000000
v 0.000000 -13.062500 0.000000
v 0.854328 -13.034532 0.000000
v 1.704998 -12.950749 0.000000
v 2.548367 -12.811508 0.000000
v 3.380824 -12.617406 0.000000
v 4.198803 -12.369275 0.000000
v 4.998802 -12.068176 0.000000
v 5.777396 -11.715400 0.000000
v 6.531250 -11.312457 0.000000
v 7.257136 -10.861072 0.000000
v 7.951946 -10.363178 0.000000
v 8.612705 -9.820907 0.000000
v 9.236582 -9.236582 0.000000
v 9.820907 -8.612705 0.000000
v 10.363178 -7.951946 0.000000
v 10.861072 -7.257136 0.000000
v 11.312457 -6.531250 0.000000
v 11.715400 -5.777396 0.000000
v 12.068176 -4.998802 0.000000
v 12.369275 -4.198803 0.000000
v 12.617406 -3.380824 0.000000
v 12.811508 -2.548367 0.000000
v 12.950749 -1.704998 0.000000
v 13.034532 -0.854328 0.000000
v 13.062500 0.000000 0.000000
v 13.034532 0.854328 0.000000
v 12.950749 1.704998 0.000000
v 12.811508 2.548367 0.000000
v 12.617406 3.380824 0.000000
v 12.369275 4.198803 0.000000
v 12.068176 4.998802 0.000000
v 11.715400 5.777396 0.000000
v 11.312457 6.531250 0.000000
v 10.861072 7.257136 0.000000
v 10.363178 7.951946 0.000000
v 9.820907 8.612705 0.000000
v 9.236582 9.236582 0.000000
v 8.612705 9.820907 0.000000
v 7.951946 10.363178 0.000000
v 7.257136 10.861072 0.000000
v 6.531250 11.312457 0.000000
v 5.777396 11.715400 0.000000
v 4.998802 12.068176 0.000000
v 4.198803 12.369275 0.000000
v 3.380824 12.617406 0.000000
v 2.548367 12.811508 0.000000
v 1.704998 12.950749 0.000000
v 0.854328 13.034532 0.000000
v 0.000000 13.062500 0.000000
v -0.854328 13.034532 0.000000
v -1.704998 12.950749 0.000000
v -2.548367 12.811508 0.000000
v -3.380824 12.617406 0.000000
v -4.198803 12.369275 0.000000
v -4.998802 12.068176 0.000000
v -5.777396 11.715400 0.000000
v -6.531250 11.312457 0.000000
v -7.257136 10.861072 0.000000
v -7.951946 10.363178 0.000000
v -8.612705 9.820907 0.000000
v -9.236582 9.236582 0.000000
v -9.820907 8.612705 0.000000
v -10.363178 7.951946 0.000000
v -10.861072 7.257136 0.000000
v -11.312457 6.531250 0.000000
v -11.715400 5.777396 0.000000
v -12.068176 4.998802 0.000000
v -12.369275 4.198803 0.000000
v -12.617406 3.380824 0.000000
v -12.811508 2.548367 0.000000
v -12.950749 1.704998 0.000000
v -13.034532 0.854328 0.000000
v -13.062500 0.000000 0.000000
v -19.218750 -0.000000 0.000000
v -19.177601 -1.256966 0.000000
v -19.054331 -2.508550 0.000000
v -18.849467 -3.749392 0.000000
v -18.563887 -4.974179 0.000000
v -18.198813 -6.177665 0.000000
v -17.755810 -7.354697 0.000000
v -17.236773 -8.500236 0.000000
v -16.643926 -9.609375 0.000000
v -15.979807 -10.677365 0.000000
v -15.247260 -11.699634 0.000000
v -14.449421 -12.671802 0.000000
v -13.589708 -13.589708 0.000000
v -12.671802 -14.449421 0.000000
v -11.699634 -15.247260 0.000000
v -10.677365 -15.979807 0.000000
v -9.609375 -16.643926 0.000000
v -8.500236 -17.236773 0.000000
v -7.354697 -17.755810 0.000000
v -6.177665 -18.198813 0.000000
v -4.974179 -18.563887 0.000000
v -3.749392 -18.849467 0.000000
v -2.508550 -19.054331 0.000000
v -1.256966 -19.177601 0.000000
v 0.000000 -19.218750 0.000000
v 1.256966 -19.177601 0.000000
v 2.508550 -19.054331 0.000000
v 3.749392 -18.849467 0.000000
v 4.974179 -18.563887 0.000000
v 6.177665 -18.198813 0.000000
v 7.354697 -17.755810 0.000000
v 8.500236 -17.236773 0.000000
v 9.609375 -16.643926 0.000000
v 10.677365 -15.979807 0.000000
v 11.699634 -15.247260 0.000000
v 12.671802 -14.449421 0.000000
v 13.589708 -13.589708 0.000000
v 14.449421 -12.671802 0.000000
v 15.247260 -11.699634 0.000000
v 15.979807 -10.677365 0.000000
v 16.643926 -9.609375 0.000000
v 17.236773 -8.500236 0.000000
v 17.755810 -7.354697 0.000000
v 18.198813 -6.177665 0.000000
v 18.563887 -4.974179 0.000000
v 18.849467 -3.749392 0.000000
v 19.054331 -2.508550 0.000000
v 19.177601 -1.256966 0.000000
v 19.218750 0.000000 0.000000
v 19.177601 1.256966 0.000000
v 19.054331 2.508550 0.000000
v 18.849467 3.749392 0.000000
v 18.563887 4.974179 0.000000
v 18.198813 6.177665 0.000000
v 17.755810 7.354697 0.000000
v 17.236773 8.500236 0.000000
v 16.643926 9.609375 0.000000
v 15.979807 10.677365 0.000000
v 15.247260 11.699634 0.000000
v 14.449421 12.671802 0.000000
v 13.589708 13.589708 0.000000
v 12.671802 14.449421 0.000000
v 11.699634 15.247260 0.000000
v 10.677365 15.979807 0.000000
v 9.609375 16.643926 0.000000
v 8.500236 17.236773 0.000000
v 7.354697 17.755810 0.000000
v 6.177665 18.198813 0.000000
v 4.974179 18.563887 0.000000
v 3.749392 18.849467 0.000000
v 2.508550 19.054331 0.000000
v 1.256966 19.177601 0.000000
v 0.000000 19.218750 0.000000
v -1.256966 19.177601 0.000000
v -2.508550 19.054331 0.000000
v -3.749392 18.849467 0.000000
v -4.974179 18.563887 0.000000
v -6.177665 18.198813 0.000000
v -7.354697 17.755810 0.000000
v -8.500236 17.236773 0.000000
v -9.609375 16.643926 0.000000
v -10.677365 15.979807 0.000000
v -11.699634 15.247260 0.000000
v -12.671802 14.449421 0.000000
v -13.589708 13.589708 0.000000
v -14.449421 12.671802 0.000000
v -15.247260 11.699634 0.000000
v -15.979807 10.677365 0.000000
v -16.643926 9.609375 0.000000
v -17.236773 8.500236 0.000000
v -17.755810 7.354697 0.000000
v -18.198813 6.177665 0.000000
v -18.563887 4.974179 0.000000
v -18.849467 3.749392 0.000000
v -19.054331 2.508550 0.000000
v -19.177601 1.256966 0.000000
v -19.218750 0.000000 0.000000
v -25.375000 -0.000000 0.000000
v -25.320670 -1.659604 0.000000
v -25.157913 -3.312102 0.000000
v -24.887426 -4.950417 0.000000
v -24.510368 -6.567533 0.000000
v -24.028352 -8.156526 0.000000
v -23.443443 -9.710592 0.000000
v -22.758146 -11.223076 0.000000
v -21.975395 -12.687500 0.000000
v -21.098541 -14.097595 0.000000
v -20.131341 -15.447321 0.000000
v -19.077935 -16.730900 0.000000
v -17.942835 -17.942835 0.000000
v -16.730900 -19.077935 0.000000
v -15.447321 -20.131341 0.000000
v -14.097595 -21.098541 0.000000
v -12.687500 -21.975395 0.000000
v -11.223076 -22.758146 0.000000
v -9.710592 -23.443443 0.000000
v -8.156526 -24.028352 0.000000
v -6.567533 -24.510368 0.000000
v -4.950417 -24.887426 0.000000
v -3.312102 -25.157913 0.000000
v -1.659604 -25.320670 0.000000
v 0.000000 -25.375000 0.000000
v 1.659604 -25.320670 0.000000
v 3.312102 -25.157913 0.000000
v 4.950417 -24.887426 0.000000
v 6.567533 -24.510368 0.000000
v 8.156526 -24.028352 0.000000
v 9.710592 -23.443443 0.000000
v 11.223076 -22.758146 0.000000
v 12.687500 -21.975395 0.000000
v 14.097595 -21.098541 0.000000
v 15.447321 -20.131341 0.000000
v 16.730900 -19.077935 0.000000
v 17.942835 -17.942835 0.000000
v 19.077935 -16.730900 0.000000
v 20.131341 -15.447321 0.000000
v 21.098541 -14.097595 0.000000
v 21.975395 -12.687500 0.000000
v 22.758146 -11.223076 0.000000
v 23.443443 -9.710592 0.000000
v 24.028352 -8.156526 0.000000
v 24.510368 -6.567533 0.000000
v 24.887426 -4.950417 0.000000
v 25.157913 -3.312102 0.000000
v 25.320670 -1.659604 0.000000
v 25.375000 0.000000 0.000000
v 25.320670 1.659604 0.000000
v 25.157913 3.312102 0.000000
v 24.887426 4.950417 0.000000
v 24.510368 6.567533 0.000000
v 24.028352 8.156526 0.000000
v 23.443443 9.710592 0.000000
v 22.758146 11.223076 0.000000
v 21.975395 12.687500 0.000000
v 21.098541 14.097595 0.000000
v 20.131341 15.447321 0.000000
v 19.077935 16.730900 0.000000
v 17.942835 17.942835 0.000000
v 16.730900 19.077935 0.000000
v 15.447321 20.131341 0.000000
v 14.097595 21.098541 0.000000
v 12.687500 21.975395 0.000000
v 11.223076 22.758146 0.000000
v 9.710592 23.443443 0.000000
v 8.156526 24.028352 0.000000
v 6.567533 24.510368 0.000000
v 4.950417 24.887426 0.000000
v 3.312102 25.157913 0.000000
v 1.659604 25.320670 0.000000
v 0.000000 25.375000 0.000000
v -1.659604 25.320670 0.000000
v -3.312102 25.157913 0.000000
v -4.950417 24.887426 0.000000
v -6.567533 24.510368 0.000000
v -8.156526 24.028352 0.000000
v -9.710592 23.443443 0.000000
v -11.223076 22.758146 0.000000
v -12.687500 21.975395 0.000000
v -14.097595 21.098541 0.000000
v -15.447321 20.131341 0.000000
v -16.730900 19.077935 0.000000
v -17.942835 17.942835 0.000000
v -19.077935 16.730900 0.000000
v -20.131341 15.447321 0.000000
v -21.098541 14.097595 0.000000
v -21.975395 12.687500 0.000000
v -22.758146 11.223076 0.000000
v -23.443443 9.710592 0.000000
v -24.028352 8.156526 0.000000
v -24.510368 6.567533 0.000000
v -24.887426 4.950417 0.000000
v -25.157913 3.312102 0.000000
v -25.320670 1.659604 0.000000
v -25.375000 0.000000 0.000000
v -31.531250 -0.000000 0.000000
v -31.463739 -2.062242 0.000000
v -31.261496 -4.115654 0.000000
v -30.925386 -6.151442 0.000000
v -30.456849 -8.160888 0.000000
v -29.857891 -10.135388 0.000000
v -29.131077 -12.066487 0.000000
v -28.279519 -13.945915 0.000000
v -27.306864 -15.765625 0.000000
v -26.217276 -17.517824 0.000000
v -25.015423 -19.195009 0.000000
v -23.706449 -20.789998 0.000000
v -22.295961 -22.295961 0.000000
v -20.789998 -23.706449 0.000000
v -19.195009 -25.015423 0.000000
v -17.517824 -26.217276 0.000000
v -15.765625 -27.306864 0.000000
v -13.945915 -28.279519 0.000000
v -12.066487 -29.131077 0.000000
v -10.135388 -29.857891 0.000000
v -8.160888 -30.456849 0.000000
v -6.151442 -30.925386 0.000000
v -4.115654 -31.261496 0.000000
v -2.062242 -31.463739 0.000000
v 0.000000 -31.531250 0.000000
v 2.062242 -31.463739 0.000000
v 4.115654 -31.261496 0.000000
v 6.151442 -30.925386 0.000000
v 8.160888 -30.456849 0.000000
v 10.135388 -29.857891 0.000000
v 12.066487 -29.131077 0.000000
v 13.945915 -28.279519 0.000000
v 15.765625 -27.306864 0.000000
v 17.517824 -26.217276 0.000000
v 19.195009 -25.015423 0.000000
v 20.789998 -23.706449 0.000000
v 22.295961 -22.295961 0.000000
v 23.706449 -20.789998 0.000000
v 25.015423 -19.195009 0.000000
v 26.217276 -17.517824 0.000000
v 27.306864 -15.765625 0.000000
v 28.279519 -13.945915 0.000000
v 29.131077 -12.066487 0.000000
v 29.857891 -10.135388 0.000000
v 30.456849 -8.160888 0.000000
v 30.925386 -6.151442 0.000000
v 31.261496 -4.115654 0.000000
v 31.463739 -2.062242 0.000000
v 31.531250 0.000000 0.000000
v 31.463739 2.062242 0.000000
v 31.261496 4.115654 0.000000
v 30.925386 6.151442 0.000000
v 30.456849 8.160888 0.000000
v 29.857891 10.135388 0.000000
v 29.131077 12.066487 0.000000
v 28.279519 13.945915 0.000000
v 27.306864 15.765625 0.000000
v 26.217276 17.517824 0.000000
v 25.015423 19.195009 0.000000
v 23.706449 20.789998 0.000000
v 22.295961 22.295961 0.000000
v 20.789998 23.706449 0.000000
v 19.195009 25.015423 0.000000
v 17.517824 26.217276 0.000000
v 15.765625 27.306864 0.000000
v 13.945915 28.279519 0.000000
v 12.066487 29.131077 0.000000
v 10.135388 29.857891 0.000000
v 8.160888 30.456849 0.000000
v 6.151442 30.925386 0.000000
v 4.115654 31.261496 0.000000
v 2.062242 31.463739 0.000000
v 0.000000 31.531250 0.000000
v -2.062242 31.463739 0.000000
v -4.115654 31.261496 0.000000
v -6.151442 30.925386 0.000000
v -8.160888 30.456849 0.000000
v -10.135388 29.857891 0.000000
v -12.066487 29.131077 0.000000
v -13.945915 28.279519 0.000000
v -15.765625 27.306864 0.000000
v -17.517824 26.217276 0.000000
v -19.195009 25.015423 0.000000
v -20.789998 23.706449 0.000000
v -22.295961 22.295961 0.000000
v -23.706449 20.789998 0.000000
v -25.015423 19.195009 0.000000
v -26.217276 17.517824 0.000000
v -27.306864 15.765625 0.000000
v -28.279519 13.945915 0.000000
v -29.131077 12.066487 0.000000
v -29.857891 10.135388 0.000000
v -30.456849 8.160888 0.000000
v -30.925386 6.151442 0.000000
v -31.261496 4.115654 0.000000
v -31.463739 2.062242 0.000000
v -31.531250 0.000000 0.000000
v -37.687500 -0.000000 0.000000
v -37.606808 -2.464880 0.000000
v -37.365078 -4.919206 0.000000
v -36.963345 -7.352467 0.000000
v -36.403330 -9.754243 0.000000
v -35.687429 -12.114250 0.000000
v -34.818710 -14.422382 0.000000
v -33.800891 -16.668755 0.000000
v -32.638332 -18.843750 0.000000
v -31.336011 -20.938053 0.000000
v -29.899504 -22.942696 0.000000
v -28.334963 -24.849095 0.000000
v -26.649087 -26.649087 0.000000
v -24.849095 -28.334963 0.000000
v -22.942696 -29.899504 0.000000
v -20.938053 -31.336011 0.000000
v -18.843750 -32.638332 0.000000
v -16.668755 -33.800891 0.000000
v -14.422382 -34.818710 0.000000
v -12.114250 -35.687429 0.000000
v -9.754243 -36.403330 0.000000
v -7.352467 -36.963345 0.000000
v -4.919206 -37.365078 0.000000
v -2.464880 -37.606808 0.000000
v 0.000000 -37.687500 0.000000
v 2.464880 -37.606808 0.000000
v 4.919206 -37.365078 0.000000
v 7.352467 -36.963345 0.000000
v 9.754243 -36.403330 0.000000
v 12.114250 -35.687429 0.000000
v 14.422382 -34.818710 0.000000
v 16.668755 -33.800891 0.000000
v 18.843750 -32.638332 0.000000
v 20.938053 -31.336011 0.000000
v 22.942696 -29.899504 0.000000
v 24.849095 -28.334963 0.000000
v 26.649087 -26.649087 0.000000
v 28.334963 -24.849095 0.000000
v 29.899504 -22.942696 0.000000
v 31.336011 -20.938053 0.000000
v 32.638332 -18.843750 0.000000
v 33.800891 -16.668755 0.000000
v 34.818710 -14.422382 0.000000
v 35.687429 -12.114250 0.000000
v 36.403330 -9.754243 0.000000
v 36.963345 -7.352467 0.000000
v 37.365078 -4.919206 0.000000
v 37.606808 -2.464880 0.000000
v 37.687500 0.000000 0.000000
v 37.606808 2.464880 0.000000
v 37.365078 4.919206 0.000000
v 36.963345 7.352467 0.000000
v 36.403330 9.754243 0.000000
v 35.687429 12.114250 0.000000
v 34.818710 14.422382 0.000000
v 33.800891 16.668755 0.000000
v 32.638332 18.843750 0.000000
v 31.336011 20.938053 0.000000
v 29.899504 22.942696 0.000000
v 28.334963 24.849095 0.000000
v 26.649087 26.649087 0.000000
v 24.849095 28.334963 0.000000
v 22.942696 29.899504 0.000000
v 20.938053 31.336011 0.000000
v 18.843750 32.638332 0.000000
v 16.668755 33.800891 0.000000
v 14.422382 34.818710 0.000000
v 12.114250 35.687429 0.000000
v 9.754243 36.403330 0.000000
v 7.352467 36.963345 0.000000
v 4.919206 37.365078 0.000000
v 2.464880 37.606808 0.000000
v 0.000000 37.687500 0.000000
v -2.464880 37.606808 0.000000
v -4.919206 37.365078 0.000000
v -7.352467 36.963345 0.000000
v -9.754243 36.403330 0.000000
v -12.114250 35.687429 0.000000
v -14.422382 34.818710 0.000000
v -16.668755 33.800891 0.000000
v -18.843750 32.638332 0.000000
v -20.938053 31.336011 0.000000
v -22.942696 29.899504 0.000000
v -24.849095 28.334963 0.000000
v -26.649087 26.649087 0.000000
v -28.334963 24.849095 0.000000
v -29.899504 22.942696 0.000000
v -31.336011 20.938053 0.000000
v -32.638332 18.843750 0.000000
v -33.800891 16.668755 0.000000
v -34.818710 14.422382 0.000000
v -35.687429 12.114250 0.000000
v -36.403330 9.754243 0.000000
v -36.963345 7.352467 0.000000
v -37.365078 4.919206 0.000000
v -37.606808 2.464880 0.000000
v -37.687500 0.000000 0.000000
v -43.843750 -0.000000 0.000000
v -43.749877 -2.867518 0.000000
v -43.468661 -5.722758 0.000000
v -43.001305 -8.553491 0.000000
v -42.349810 -11.347598 0.000000
v -41.516968 -14.093112 0.000000
v -40.506343 -16.778277 0.000000
v -39.322264 -19.391595 0.000000
v -37.969801 -21.921875 0.000000
v -36.454746 -24.358282 0.000000
v -34.783586 -26.690384 0.000000
v -32.963477 -28.908193 0.000000
v -31.002213 -31.002213 0.000000
v -28.908193 -32.963477 0.000000
v -26.690384 -34.783586 0.000000
v -24.358282 -36.454746 0.000000
v -21.921875 -37.969801 0.000000
v -19.391595 -39.322264 0.000000
v -16.778277 -40.506343 0.000000
v -14.093112 -41.516968 0.000000
v -11.347598 -42.349810 0.000000
v -8.553491 -43.001305 0.000000
v -5.722758 -43.468661 0.000000
v -2.867518 -43.749877 0.000000
v 0.000000 -43.843750 0.000000
v 2.867518 -43.749877 0.000000
v 5.722758 -43.468661 0.000000
v 8.553491 -43.001305 0.000000
v 11.347598 -42.349810 0.000000
v 14.093112 -41.516968 0.000000
v 16.778277 -40.506343 0.000000
v 19.391595 -39.322264 0.000000
v 21.921875 -37.969801 0.000000
v 24.358282 -36.454746 0.000000
v 26.690384 -34.783586 0.000000
v 28.908193 -32.963477 0.000000
v 31.002213 -31.002213 0.000000
v 32.963477 -28.908193 0.000000
v 34.783586 -26.690384 0.000000
v 36.454746 -24.358282 0.000000
v 37.969801 -21.921875 0.000000
v 39.322264 -19.391595 0.000000
v 40.506343 -16.778277 0.000000
v 41.516968 -14.093112 0.000000
v 42.349810 -11.347598 0.000000
v 43.001305 -8.553491 0.000000
v 43.468661 -5.722758 0.000000
v 43.749877 -2.867518 0.000000
v 43.843750 0.000000 0.000000
v 43.749877 2.867518 0.000000
v 43.468661 5.722758 0.000000
v 43.001305 8.553491 0.000000
v 42.349810 11.347598 0.000000
v 41.516968 14.093112 0.000000
v 40.506343 16.778277 0.000000
v 39.322264 19.391595 0.000000
v 37.969801 21.921875 0.000000
v 36.454746 24.358282 0.000000
v 34.783586 26.690384 0.000000
v 32.963477 28.908193 0.000000
v 31.002213 31.002213 0.000000
v 28.908193 32.963477 0.000000
v 26.690384 34.783586 0.000000
v 24.358282 36.454746 0.000000
v 21.921875 37.969801 0.000000
v 19.391595 39.322264 0.000000
v 16.778277 40.506343 0.000000
v 14.093112 41.516968 0.000000
v 11.347598 42.349810 0.000000
v 8.553491 43.001305 0.000000
v 5.722758 43.468661 0.000000
v 2.867518 43.749877 0.000000
v 0.000000 43.843750 0.000000
v -2.867518 43.749877 0.000000
v -5.722758 43.468661 0.000000
v -8.553491 43.001305 0.000000
v -11.347598 42.349810 0.000000
v -14.093112 41.516968 0.000000
v -16.778277 40.506343 0.000000
v -19.391595 39.322264 0.000000
v -21.921875 37.969801 0.000000
v -24.358282 36.454746 0.000000
v -26.690384 34.783586 0.000000
v -28.908193 32.963477 0.000000
v -31.002213 31.002213 0.000000
v -32.963477 28.908193 0.000000
v -34.783586 26.690384 0.000000
v -36.454746 24.358282 0.000000
v -37.969801 21.921875 0.000000
v -39.322264 19.391595 0.000000
v -40.506343 16.778277 0.000000
v -41.516968 14.093112 0.000000
v -42.349810 11.347598 0.000000
v -43.001305 8.553491 0.000000
v -43.468661 5.722758 0.000000
v -43.749877 2.867518 0.000000
v -43.843750 0.000000 0.000000
v -50.000000 -0.000000 0.000000
v -49.892946 -3.270156 0.000000
v -49.572243 -6.526310 0.000000
v -49.039264 -9.754516 0.000000
v -48.296291 -12.940952 0.000000
v -47.346506 -16.071973 0.000000
v -46.193977 -19.134172 0.000000
v -44.843637 -22.114435 0.000000
v -43.301270 -25.000000 0.000000
v -41.573481 -27.778512 0.000000
v -39.667667 -30.438071 0.000000
v -37.591990 -32.967291 0.000000
v -35.355339 -35.355339 0.000000
v -32.967291 -37.591990 0.000000
v -30.438071 -39.667667 0.000000
v -27.778512 -41.573481 0.000000
v -25.000000 -43.301270 0.000000
v -22.114435 -44.843637 0.000000
v -19.134172 -46.193977 0.000000
v -16.071973 -47.346506 0.000000
v -12.940952 -48.296291 0.000000
v -9.754516 -49.039264 0.000000
v -6.526310 -49.572243 0.000000
v -3.270156 -49.892946 0.000000
v 0.000000 -50.000000 0.000000
v 3.270156 -49.892946 0.000000
v 6.526310 -49.572243 0.000000
v 9.754516 -49.039264 0.000000
v 12.940952 -48.296291 0.000000
v 16.071973 -47.346506 0.000000
v 19.134172 -46.193977 0.000000
v 22.114435 -44.843637 0.000000
v 25.000000 -43.301270 0.000000
v 27.778512 -41.573481 0.000000
v 30.438071 -39.667667 0.000000
v 32.967291 -37.591990 0.000000
v 35.355339 -35.355339 0.000000
v 37.591990 -32.967291 0.000000
v 39.667667 -30.438071 0.000000
v 41.573481 -27.778512 0.000000
v 43.301270 -25.000000 0.000000
v 44.843637 -22.114435 0.000000
v 46.193977 -19.134172 0.000000
v 47.346506 -16.071973 0.000000
v 48.296291 -12.940952 0.000000
v 49.039264 -9.754516 0.000000
v 49.572243 -6.526310 0.000000
v 49.892946 -3.270156 0.000000
v 50.000000 0.000000 0.000000
v 49.892946 3.270156 0.000000
v 49.572243 6.526310 0.000000
v 49.039264 9.754516 0.000000
v 48.296291 12.940952 0.000000
v 47.346506 16.071973 0.000000
v 46.193977 19.134172 0.000000
v 44.843637 22.114435 0.000000
v 43.301270 25.000000 0.000000
v 41.573481 27.778512 0.000000
v 39.667667 30.438071 0.000000
v 37.591990 32.967291 0.000000
v 35.355339 35.355339 0.000000
v 32.967291 37.591990 0.000000
v 30.438071 39.667667 0.000000
v 27.778512 41.573481 0.000000
v 25.000000 43.301270 0.000000
v 22.114435 44.843637 0.000000
v 19.134172 46.193977 0.000000
v 16.071973 47.346506 0.000000
v 12.940952 48.296291 0.000000
v 9.754516 49.039264 0.000000
v 6.526310 49.572243 0.000000
v 3.270156 49.892946 0.000000
v 0.000000 50.000000 0.000000
v -3.270156 49.892946 0.000000
v -6.526310 49.572243 0.000000
v -9.754516 49.039264 0.000000
v -12.940952 48.296291 0.000000
v -16.071973 47.346506 0.000000
v -19.134172 46.193977 0.000000
v -22.114435 44.843637 0.000000
v -25.000000 43.301270 0.000000
v -27.778512 41.573481 0.000000
v -30.438071 39.667667 0.000000
v -32.967291 37.591990 0.000000
v -35.355339 35.355339 0.000000
v -37.591990 32.967291 0.000000
v -39.667667 30.438071 0.000000
v -41.573481 27.778512 0.000000
v -43.301270 25.000000 0.000000
v -44.843637 22.114435 0.000000
v -46.193977 19.134172 0.000000
v -47.346506 16.071973 0.000000
v -48.296291 12.940952 0.000000
v -49.039264 9.754516 0.000000
v -49.572243 6.526310 0.000000
v -49.892946 3.270156 0.000000
v -50.000000 0.000000 0.000000
vt 0.000000 0.015000
vt 0.010417 0.015000
vt 0.020833 0.015000
vt 0.031250 0.015000
vt 0.041667 0.015000
vt 0.052083 0.015000
vt 0.062500 0.015000
vt 0.072917 0.015000
vt 0.083333 0.015000
vt 0.093750 0.015000
vt 0.104167 0.015000
vt 0.114583 0.015000
vt 0.125000 0.015000
vt 0.135417 0.015000
vt 0.145833 0.015000
vt 0.156250 0.015000
vt 0.166667 0.015000
vt 0.177083 0.015000
vt 0.187500 0.015000
vt 0.197917 0.015000
vt 0.208333 0.015000
vt 0.218750 0.015000
vt 0.229167 0.015000
vt 0.239583 0.015000
vt 0.250000 0.015000
vt 0.260417 0.015000
vt 0.270833 0.015000
vt 0.281250 0.015000
vt 0.291667 0.015000
vt 0.302083 0.015000
vt 0.312500 0.015000
vt 0.322917 0.015000
vt 0.333333 0.015000
vt 0.343750 0.015000
vt 0.354167 0.015000
vt 0.364583 0.015000
vt 0.375000 0.015000
vt 0.385417 0.015000
vt 0.395833 0.015000
vt 0.406250 0.015000
vt 0.416667 0.015000
vt 0.427083 0.015000
vt 0.437500 0.015000
vt 0.447917 0.015000
vt 0.458333 0.015000
vt 0.468750 0.015000
vt 0.479167 0.015000
vt 0.489583 0.015000
vt 0.500000 0.015000
vt 0.510417 0.015000
vt 0.520833 0.015000
vt 0.531250 0.015000
vt 0.541667 0.015000
vt 0.552083 0.015000
vt 0.562500 0.015000
vt 0.572917 0.015000
vt 0.583333 0.015000
vt 0.593750 0.015000
vt 0.604167 0.015000
vt 0.614583 0.015000
vt 0.625000 0.015000
vt 0.635417 0.015000
vt 0.645833 0.015000
vt 0.656250 0.015000
vt 0.666667 0.015000
vt 0.677083 0.015000
vt 0.687500 0.015000
vt 0.697917 0.015000
vt 0.708333 0.015000
vt 0.718750 0.015000
vt 0.729167 0.015000
vt 0.739583 0.015000
vt 0.750000 0.015000
vt 0.760417 0.015000
vt 0.770833 0.015000
vt 0.781250 0.015000
vt 0.791667 0.015000
vt 0.802083 0.015000
vt 0.812500 0.015000
vt 0.822917 0.015000
vt 0.833333 0.015000
vt 0.843750 0.015000
vt 0.854167 0.015000
vt 0.864583 0.015000
vt 0.875000 0.015000
vt 0.885417 0.015000
vt 0.895833 0.015000
vt 0.906250 0.015000
vt 0.916667 0.015000
vt 0.927083 0.015000
vt 0.937500 0.015000
vt 0.947917 0.015000
vt 0.958333 0.015000
vt 0.968750 0.015000
vt 0.979167 0.015000
vt 0.989583 0.015000
vt 1.000000 0.015000
vt 0.000000 0.138125
vt 0.010417 0.138125
vt 0.020833 0.138125
vt 0.031250 0.138125
vt 0.041667 0.138125
vt 0.052083 0.138125
vt 0.062500 0.138125
vt 0.072917 0.138125
vt 0.083333 0.138125
vt 0.093750 0.138125
vt 0.104167 0.138125
vt 0.114583 0.138125
vt 0.125000 0.138125
vt 0.135417 0.138125
vt 0.145833 0.138125
vt 0.156250 0.138125
vt 0.166667 0.138125
vt 0.177083 0.138125
vt 0.187500 0.138125
vt 0.197917 0.138125
vt 0.208333 0.138125
vt 0.218750 0.138125
vt 0.229167 0.138125
vt 0.239583 0.138125
vt 0.250000 0.138125
vt 0.260417 0.138125
vt 0.270833 0.138125
vt 0.281250 0.138125
vt 0.291667 0.138125
vt 0.302083 0.138125
vt 0.312500 0.138125
vt 0.322917 0.138125
vt 0.333333 0.138125
vt 0.343750 0.138125
vt 0.354167 0.138125
vt 0.364583 0.138125
vt 0.375000 0.138125
vt 0.385417 0.138125
vt 0.395833 0.138125
vt 0.406250 0.138125
vt 0.416667 0.138125
vt 0.427083 0.138125
vt 0.437500 0.138125
vt 0.447917 0.138125
vt 0.458333 0.138125
vt 0.468750 0.138125
vt 0.479167 0.138125
vt 0.489583 0.138125
vt 0.500000 0.138125
vt 0.510417 0.138125
vt 0.520833 0.138125
vt 0.531250 0.138125
vt 0.541667 0.138125
vt 0.552083 0.138125
vt 0.562500 0.138125
vt 0.572917 0.138125
vt 0.583333 0.138125
vt 0.593750 0.138125
vt 0.604167 0.138125
vt 0.614583 0.138125
vt 0.625000 0.138125
vt 0.635417 0.138125
vt 0.645833 0.138125
vt 0.656250 0.138125
vt 0.666667 0.138125
vt 0.677083 0.138125
vt 0.687500 0.138125
vt 0.697917 0.138125
vt 0.708333 0.138125
vt 0.718750 0.138125
vt 0.729167 0.138125
vt 0.739583 0.138125
vt 0.750000 0.138125
vt 0.760417 0.138125
vt 0.770833 0.138125
vt 0.781250 0.138125
vt 0.791667 0.138125
vt 0.802083 0.138125
vt 0.812500 0.138125
vt 0.822917 0.138125
vt 0.833333 0.138125
vt 0.843750 0.138125
vt 0.854167 0.138125
vt 0.864583 0.138125
vt 0.875000 0.138125
vt 0.885417 0.138125
vt 0.895833 0.138125
vt 0.906250 0.138125
vt 0.916667 0.138125
vt 0.927083 0.138125
vt 0.937500 0.138125
vt 0.947917 0.138125
vt 0.958333 0.138125
vt 0.968750 0.138125
vt 0.979167 0.138125
vt 0.989583 0.138125
vt 1.000000 0.138125
vt 0.000000 0.261250
vt 0.010417 0.261250
vt 0.020833 0.261250
vt 0.031250 0.261250
vt 0.041667 0.261250
vt 0.052083 0.261250
vt 0.062500 0.261250
vt 0.072917 0.261250
vt 0.083333 0.261250
vt 0.093750 0.261250
vt 0.104167 0.261250
vt 0.114583 0.261250
vt 0.125000 0.261250
vt 0.135417 0.261250
vt 0.145833 0.261250
vt 0.156250 0.261250
vt 0.166667 0.261250
vt 0.177083 0.261250
vt 0.187500 0.261250
vt 0.197917 0.261250
vt 0.208333 0.261250
vt 0.218750 0.261250
vt 0.229167 0.261250
vt 0.239583 0.261250
vt 0.250000 0.261250
vt 0.260417 0.261250
vt 0.270833 0.261250
vt 0.281250 0.261250
vt 0.291667 0.261250
vt 0.302083 0.261250
vt 0.312500 0.261250
vt 0.322917 0.261250
vt 0.333333 0.261250
vt 0.343750 0.261250
vt 0.354167 0.261250
vt 0.364583 0.261250
vt 0.375000 0.261250
vt 0.385417 0.261250
vt 0.395833 0.261250
vt 0.406250 0.261250
vt 0.416667 0.261250
vt 0.427083 0.261250
vt 0.437500 0.261250
vt 0.447917 0.261250
vt 0.458333 0.261250
vt 0.468750 0.261250
vt 0.479167 0.261250
vt 0.489583 0.261250
vt 0.500000 0.261250
vt 0.510417 0.261250
vt 0.520833 0.261250
vt 0.531250 0.261250
vt 0.541667 0.261250
vt 0.552083 0.261250
vt 0.562500 0.261250
vt 0.572917 0.261250
vt 0.583333 0.261250
vt 0.593750 0.261250
vt 0.604167 0.261250
vt 0.614583 0.261250
vt 0.625000 0.261250
vt 0.635417 0.261250
vt 0.645833 0.261250
vt 0.656250 0.261250
vt 0.666667 0.261250
vt 0.677083 0.261250
vt 0.687500 0.261250
vt 0.697917 0.261250
vt 0.708333 0.261250
vt 0.718750 0.261250
vt 0.729167 0.261250
vt 0.739583 0.261250
vt 0.750000 0.261250
vt 0.760417 0.261250
vt 0.770833 0.261250
vt 0.781250 0.261250
vt 0.791667 0.261250
vt 0.802083 0.261250
vt 0.812500 0.261250
vt 0.822917 0.261250
vt 0.833333 0.261250
vt 0.843750 0.261250
vt 0.854167 0.261250
vt 0.864583 0.261250
vt 0.875000 0.261250
vt 0.885417 0.261250
vt 0.895833 0.261250
vt 0.906250 0.261250
vt 0.916667 0.261250
vt 0.927083 0.261250
vt 0.937500 0.261250
vt 0.947917 0.261250
vt 0.958333 0.261250
vt 0.968750 0.261250
vt 0.979167 0.261250
vt 0.989583 0.261250
vt 1.000000 0.261250
vt 0.000000 0.384375
vt 0.010417 0.384375
vt 0.020833 0.384375
vt 0.031250 0.384375
vt 0.041667 0.384375
vt 0.052083 0.384375
vt 0.062500 0.384375
vt 0.072917 0.384375
vt 0.083333 0.384375
vt 0.093750 0.384375
vt 0.104167 0.384375
vt 0.114583 0.384375
vt 0.125000 0.384375
vt 0.135417 0.384375
vt 0.145833 0.384375
vt 0.156250 0.384375
vt 0.166667 0.384375
vt 0.177083 0.384375
vt 0.187500 0.384375
vt 0.197917 0.384375
vt 0.208333 0.384375
vt 0.218750 0.384375
vt 0.229167 0.384375
vt 0.239583 0.384375
vt 0.250000 0.384375
vt 0.260417 0.384375
vt 0.270833 0.384375
vt 0.281250 0.384375
vt 0.291667 0.384375
vt 0.302083 0.384375
vt 0.312500 0.384375
vt 0.322917 0.384375
vt 0.333333 0.384375
vt 0.343750 0.384375
vt 0.354167 0.384375
vt 0.364583 0.384375
vt 0.375000 0.384375
vt 0.385417 0.384375
vt 0.395833 0.384375
vt 0.406250 0.384375
vt 0.416667 0.384375
vt 0.427083 0.384375
vt 0.437500 0.384375
vt 0.447917 0.384375
vt 0.458333 0.384375
vt 0.468750 0.384375
vt 0.479167 0.384375
vt 0.489583 0.384375
vt 0.500000 0.384375
vt 0.510417 0.384375
vt 0.520833 0.384375
vt 0.531250 0.384375
vt 0.541667 0.384375
vt 0.552083 0.384375
vt 0.562500 0.384375
vt 0.572917 0.384375
vt 0.583333 0.384375
vt 0.593750 0.384375
vt 0.604167 0.384375
vt 0.614583 0.384375
vt 0.625000 0.384375
vt 0.635417 0.384375
vt 0.645833 0.384375
vt 0.656250 0.384375
vt 0.666667 0.384375
vt 0.677083 0.384375
vt 0.687500 0.384375
vt 0.697917 0.384375
vt 0.708333 0.384375
vt 0.718750 0.384375
vt 0.729167 0.384375
vt 0.739583 0.384375
vt 0.750000 0.384375
vt 0.760417 0.384375
vt 0.770833 0.384375
vt 0.781250 0.384375
vt 0.791667 0.384375
vt 0.802083 0.384375
vt 0.812500 0.384375
vt 0.822917 0.384375
vt 0.833333 0.384375
vt 0.843750 0.384375
vt 0.854167 0.384375
vt 0.864583 0.384375
vt 0.875000 0.384375
vt 0.885417 0.384375
vt 0.895833 0.384375
vt 0.906250 0.384375
vt 0.916667 0.384375
vt 0.927083 0.384375
vt 0.937500 0.384375
vt 0.947917 0.384375
vt 0.958333 0.384375
vt 0.968750 0.384375
vt 0.979167 0.384375
vt 0.989583 0.384375
vt 1.000000 0.384375
vt 0.000000 0.507500
vt 0.010417 0.507500
vt 0.020833 0.507500
vt 0.031250 0.507500
vt 0.041667 0.507500
vt 0.052083 0.507500
vt 0.062500 0.507500
vt 0.072917 0.507500
vt 0.083333 0.507500
vt 0.093750 0.507500
vt 0.104167 0.507500
vt 0.114583 0.507500
vt 0.125000 0.507500
vt 0.135417 0.507500
vt 0.145833 0.507500
vt 0.156250 0.507500
vt 0.166667 0.507500
vt 0.177083 0.507500
vt 0.187500 0.507500
vt 0.197917 0.507500
vt 0.208333 0.507500
vt 0.218750 0.507500
vt 0.229167 0.507500
vt 0.239583 0.507500
vt 0.250000 0.507500
vt 0.260417 0.507500
vt 0.270833 0.507500
vt 0.281250 0.507500
vt 0.291667 0.507500
vt 0.302083 0.507500
vt 0.312500 0.507500
vt 0.322917 0.507500
vt 0.333333 0.507500
vt 0.343750 0.507500
vt 0.354167 0.507500
vt 0.364583 0.507500
vt 0.375000 0.507500
vt 0.385417 0.507500
vt 0.395833 0.507500
vt 0.406250 0.507500
vt 0.416667 0.507500
vt 0.427083 0.507500
vt 0.437500 0.507500
vt 0.447917 0.507500
vt 0.458333 0.507500
vt 0.468750 0.507500
vt 0.479167 0.507500
vt 0.489583 0.507500
vt 0.500000 0.507500
vt 0.510417 0.507500
vt 0.520833 0.507500
vt 0.531250 0.507500
vt 0.541667 0.507500
vt 0.552083 0.507500
vt 0.562500 0.507500
vt 0.572917 0.507500
vt 0.583333 0.507500
vt 0.593750 0.507500
vt 0.604167 0.507500
vt 0.614583 0.507500
vt 0.625000 0.507500
vt 0.635417 0.507500
vt 0.645833 0.507500
vt 0.656250 0.507500
vt 0.666667 0.507500
vt 0.677083 0.507500
vt 0.687500 0.507500
vt 0.697917 0.507500
vt 0.708333 0.507500
vt 0.718750 0.507500
vt 0.729167 0.507500
vt 0.739583 0.507500
vt 0.750000 0.507500
vt 0.760417 0.507500
vt 0.770833 0.507500
vt 0.781250 0.507500
vt 0.791667 0.507500
vt 0.802083 0.507500
vt 0.812500 0.507500
vt 0.822917 0.507500
vt 0.833333 0.507500
vt 0.843750 0.507500
vt 0.854167 0.507500
vt 0.864583 0.507500
vt 0.875000 0.507500
vt 0.885417 0.507500
vt 0.895833 0.507500
vt 0.906250 0.507500
vt 0.916667 0.507500
vt 0.927083 0.507500
vt 0.937500 0.507500
vt 0.947917 0.507500
vt 0.958333 0.507500
vt 0.968750 0.507500
vt 0.979167 0.507500
vt 0.989583 0.507500
vt 1.000000 0.507500
vt 0.000000 0.630625
vt 0.010417 0.630625
vt 0.020833 0.630625
vt 0.031250 0.630625
vt 0.041667 0.630625
vt 0.052083 0.630625
vt 0.062500 0.630625
vt 0.072917 0.630625
vt 0.083333 0.630625
vt 0.093750 0.630625
vt 0.104167 0.630625
vt 0.114583 0.630625
vt 0.125000 0.630625
vt 0.135417 0.630625
vt 0.145833 0.630625
vt 0.156250 0.630625
vt 0.166667 0.630625
vt 0.177083 0.630625
vt 0.187500 0.630625
vt 0.197917 0.630625
vt 0.208333 0.630625
vt 0.218750 0.630625
vt 0.229167 0.630625
vt 0.239583 0.630625
vt 0.250000 0.630625
vt 0.260417 0.630625
vt 0.270833 0.630625
vt 0.281250 0.630625
vt 0.291667 0.630625
vt 0.302083 0.630625
vt 0.312500 0.630625
vt 0.322917 0.630625
vt 0.333333 0.630625
vt 0.343750 0.630625
vt 0.354167 0.630625
vt 0.364583 0.630625
vt 0.375000 0.630625
vt 0.385417 0.630625
vt 0.395833 0.630625
vt 0.406250 0.630625
vt 0.416667 0.630625
vt 0.427083 0.630625
vt 0.437500 0.630625
vt 0.447917 0.630625
vt 0.458333 0.630625
vt 0.468750 0.630625
vt 0.479167 0.630625
vt 0.489583 0.630625
vt 0.500000 0.630625
vt 0.510417 0.630625
vt 0.520833 0.630625
vt 0.531250 0.630625
vt 0.541667 0.630625
vt 0.552083 0.630625
vt 0.562500 0.630625
vt 0.572917 0.630625
vt 0.583333 0.630625
vt 0.593750 0.630625
vt 0.604167 0.630625
vt 0.614583 0.630625
vt 0.625000 0.630625
vt 0.635417 0.630625
vt 0.645833 0.630625
vt 0.656250 0.630625
vt 0.666667 0.630625
vt 0.677083 0.630625
vt 0.687500 0.630625
vt 0.697917 0.630625
vt 0.708333 0.630625
vt 0.718750 0.630625
vt 0.729167 0.630625
vt 0.739583 0.630625
vt 0.750000 0.630625
vt 0.760417 0.630625
vt 0.770833 0.630625
vt 0.781250 0.630625
vt 0.791667 0.630625
vt 0.802083 0.630625
vt 0.812500 0.630625
vt 0.822917 0.630625
vt 0.833333 0.630625
vt 0.843750 0.630625
vt 0.854167 0.630625
vt 0.864583 0.630625
vt 0.875000 0.630625
vt 0.885417 0.630625
vt 0.895833 0.630625
vt 0.906250 0.630625
vt 0.916667 0.630625
vt 0.927083 0.630625
vt 0.937500 0.630625
vt 0.947917 0.630625
vt 0.958333 0.630625
vt 0.968750 0.630625
vt 0.979167 0.630625
vt 0.989583 0.630625
vt 1.000000 0.630625
vt 0.000000 0.753750
vt 0.010417 0.753750
vt 0.020833 0.753750
vt 0.031250 0.753750
vt 0.041667 0.753750
vt 0.052083 0.753750
vt 0.062500 0.753750
vt 0.072917 0.753750
vt 0.083333 0.753750
vt 0.093750 0.753750
vt 0.104167 0.753750
vt 0.114583 0.753750
vt 0.125000 0.753750
vt 0.135417 0.753750
vt 0.145833 0.753750
vt 0.156250 0.753750
vt 0.166667 0.753750
vt 0.177083 0.753750
vt 0.187500 0.753750
vt 0.197917 0.753750
vt 0.208333 0.753750
vt 0.218750 0.753750
vt 0.229167 0.753750
vt 0.239583 0.753750
vt 0.250000 0.753750
vt 0.260417 0.753750
vt 0.270833 0.753750
vt 0.281250 0.753750
vt 0.291667 0.753750
vt 0.302083 0.753750
vt 0.312500 0.753750
vt 0.322917 0.753750
vt 0.333333 0.753750
vt 0.343750 0.753750
vt 0.354167 0.753750
vt 0.364583 0.753750
vt 0.375000 0.753750
vt 0.385417 0.753750
vt 0.395833 0.753750
vt 0.406250 0.753750
vt 0.416667 0.753750
vt 0.427083 0.753750
vt 0.437500 0.753750
vt 0.447917 0.753750
vt 0.458333 0.753750
vt 0.468750 0.753750
vt 0.479167 0.753750
vt 0.489583 0.753750
vt 0.500000 0.753750
vt 0.510417 0.753750
vt 0.520833 0.753750
vt 0.531250 0.753750
vt 0.541667 0.753750
vt 0.552083 0.753750
vt 0.562500 0.753750
vt 0.572917 0.753750
vt 0.583333 0.753750
vt 0.593750 0.753750
vt 0.604167 0.753750
vt 0.614583 0.753750
vt 0.625000 0.753750
vt 0.635417 0.753750
vt 0.645833 0.753750
vt 0.656250 0.753750
vt 0.666667 0.753750
vt 0.677083 0.753750
vt 0.687500 0.753750
vt 0.697917 0.753750
vt 0.708333 0.753750
vt 0.718750 0.753750
vt 0.729167 0.753750
vt 0.739583 0.753750
vt 0.750000 0.753750
vt 0.760417 0.753750
vt 0.770833 0.753750
vt 0.781250 0.753750
vt 0.791667 0.753750
vt 0.802083 0.753750
vt 0.812500 0.753750
vt 0.822917 0.753750
vt 0.833333 0.753750
vt 0.843750 0.753750
vt 0.854167 0.753750
vt 0.864583 0.753750
vt 0.875000 0.753750
vt 0.885417 0.753750
vt 0.895833 0.753750
vt 0.906250 0.753750
vt 0.916667 0.753750
vt 0.927083 0.753750
vt 0.937500 0.753750
vt 0.947917 0.753750
vt 0.958333 0.753750
vt 0.968750 0.753750
vt 0.979167 0.753750
vt 0.989583 0.753750
vt 1.000000 0.753750
vt 0.000000 0.876875
vt 0.010417 0.876875
vt 0.020833 0.876875
vt 0.031250 0.876875
vt 0.041667 0.876875
vt 0.052083 0.876875
vt 0.062500 0.876875
vt 0.072917 0.876875
vt 0.083333 0.876875
vt 0.093750 0.876875
vt 0.104167 0.876875
vt 0.114583 0.876875
vt 0.125000 0.876875
vt 0.135417 0.876875
vt 0.145833 0.876875
vt 0.156250 0.876875
vt 0.166667 0.876875
vt 0.177083 0.876875
vt 0.187500 0.876875
vt 0.197917 0.876875
vt 0.208333 0.876875
vt 0.218750 0.876875
vt 0.229167 0.876875
vt 0.239583 0.876875
vt 0.250000 0.876875
vt 0.260417 0.876875
vt 0.270833 0.876875
vt 0.281250 0.876875
vt 0.291667 0.876875
vt 0.302083 0.876875
vt 0.312500 0.876875
vt 0.322917 0.876875
vt 0.333333 0.876875
vt 0.343750 0.876875
vt 0.354167 0.876875
vt 0.364583 0.876875
vt 0.375000 0.876875
vt 0.385417 0.876875
vt 0.395833 0.876875
vt 0.406250 0.876875
vt 0.416667 0.876875
vt 0.427083 0.876875
vt 0.437500 0.876875
vt 0.447917 0.876875
vt 0.458333 0.876875
vt 0.468750 0.876875
vt 0.479167 0.876875
vt 0.489583 0.876875
vt 0.500000 0.876875
vt 0.510417 0.876875
vt 0.520833 0.876875
vt 0.531250 0.876875
vt 0.541667 0.876875
vt 0.552083 0.876875
vt 0.562500 0.876875
vt 0.572917 0.876875
vt 0.583333 0.876875
vt 0.593750 0.876875
vt 0.604167 0.876875
vt 0.614583 0.876875
vt 0.625000 0.876875
vt 0.635417 0.876875
vt 0.645833 0.876875
vt 0.656250 0.876875
vt 0.666667 0.876875
vt 0.677083 0.876875
vt 0.687500 0.876875
vt 0.697917 0.876875
vt 0.708333 0.876875
vt 0.718750 0.876875
vt 0.729167 0.876875
vt 0.739583 0.876875
vt 0.750000 0.876875
vt 0.760417 0.876875
vt 0.770833 0.876875
vt 0.781250 0.876875
vt 0.791667 0.876875
vt 0.802083 0.876875
vt 0.812500 0.876875
vt 0.822917 0.876875
vt 0.833333 0.876875
vt 0.843750 0.876875
vt 0.854167 0.876875
vt 0.864583 0.876875
vt 0.875000 0.876875
vt 0.885417 0.876875
vt 0.895833 0.876875
vt 0.906250 0.876875
vt 0.916667 0.876875
vt 0.927083 0.876875
vt 0.937500 0.876875
vt 0.947917 0.876875
vt 0.958333 0.876875
vt 0.968750 0.876875
vt 0.979167 0.876875
vt 0.989583 0.876875
vt 1.000000 0.876875
vt 0.000000 1.000000
vt 0.010417 1.000000
vt 0.020833 1.000000
vt 0.031250 1.000000
vt 0.041667 1.000000
vt 0.052083 1.000000
vt 0.062500 1.000000
vt 0.072917 1.000000
vt 0.083333 1.000000
vt 0.093750 1.000000
vt 0.104167 1.000000
vt 0.114583 1.000000
vt 0.125000 1.000000
vt 0.135417 1.000000
vt 0.145833 1.000000
vt 0.156250 1.000000
vt 0.166667 1.000000
vt 0.177083 1.000000
vt 0.187500 1.000000
vt 0.197917 1.000000
vt 0.208333 1.000000
vt 0.218750 1.000000
vt 0.229167 1.000000
vt 0.239583 1.000000
vt 0.250000 1.000000
vt 0.260417 1.000000
vt 0.270833 1.000000
vt 0.281250 1.000000
vt 0.291667 1.000000
vt 0.302083 1.000000
vt 0.312500 1.000000
vt 0.322917 1.000000
vt 0.333333 1.000000
vt 0.343750 1.000000
vt 0.354167 1.000000
vt 0.364583 1.000000
vt 0.375000 1.000000
vt 0.385417 1.000000
vt 0.395833 1.000000
vt 0.406250 1.000000
vt 0.416667 1.000000
vt 0.427083 1.000000
vt 0.437500 1.000000
vt 0.447917 1.000000
vt 0.458333 1.000000
vt 0.468750 1.000000
vt 0.479167 1.000000
vt 0.489583 1.000000
vt 0.500000 1.000000
vt 0.510417 1.000000
vt 0.520833 1.000000
vt 0.531250 1.000000
vt 0.541667 1.000000
vt 0.552083 1.000000
vt 0.562500 1.000000
vt 0.572917 1.000000
vt 0.583333 1.000000
vt 0.593750 1.000000
vt 0.604167 1.000000
vt 0.614583 1.000000
vt 0.625000 1.000000
vt 0.635417 1.000000
vt 0.645833 1.000000
vt 0.656250 1.000000
vt 0.666667 1.000000
vt 0.677083 1.000000
vt 0.687500 1.000000
vt 0.697917 1.000000
vt 0.708333 1.000000
vt 0.718750 1.000000
vt 0.729167 1.000000
vt 0.739583 1.000000
vt 0.750000 1.000000
vt 0.760417 1.000000
vt 0.770833 1.000000
vt 0.781250 1.000000
vt 0.791667 1.000000
vt 0.802083 1.000000
vt 0.812500 1.000000
vt 0.822917 1.000000
vt 0.833333 1.000000
vt 0.843750 1.000000
vt 0.854167 1.000000
vt 0.864583 1.000000
vt 0.875000 1.000000
vt 0.885417 1.000000
vt 0.895833 1.000000
vt 0.906250 1.000000
vt 0.916667 1.000000
vt 0.927083 1.000000
vt 0.937500 1.000000
vt 0.947917 1.000000
vt 0.958333 1.000000
vt 0.968750 1.000000
vt 0.979167 1.000000
vt 0.989583 1.000000
vt 1.000000 1.000000
f 1/1 2/2 98/98
f 2/2 99/99 98/98
f 2/2 3/3 99/99
f 3/3 100/100 99/99
f 3/3 4/4 100/100
f 4/4 101/101 100/100
f 4/4 5/5 101/101
f 5/5 102/102 101/101
f 5/5 6/6 102/102
f 6/6 103/103 102/102
f 6/6 7/7 103/103
f 7/7 104/104 103/103
f 7/7 8/8 104/104
f 8/8 105/105 104/104
f 8/8 9/9 105/105
f 9/9 106/106 105/105
f 9/9 10/10 106/106
f 10/10 107/107 106/106
f 10/10 11/11 107/107
f 11/11 108/108 107/107
f 11/11 12/12 108/108
f 12/12 109/109 108/108
f 12/12 13/13 109/109
f 13/13 110/110 109/109
f 13/13 14/14 110/110
f 14/14 111/111 110/110
f 14/14 15/15 111/111
f 15/15 112/112 111/111
f 15/15 16/16 112/112
f 16/16 113/113 112/112
f 16/16 17/17 113/113
f 17/17 114/114 113/113
f 17/17 18/18 114/114
f 18/18 115/115 114/114
f 18/18 19/19 115/115
f 19/19 116/116 115/115
f 19/19 20/20 116/116
f 20/20 117/117 116/116
f 20/20 21/21 117/117
f 21/21 118/118 117/117
f 21/21 22/22 118/118
f 22/22 119/119 118/118
f 22/22 23/23 119/119
f 23/23 120/120 119/119
f 23/23 24/24 120/120
f 24/24 121/121 120/120
f 24/24 25/25 121/121
f 25/25 122/122 121/121
f 25/25 26/26 122/122
f 26/26 123/123 122/122
f 26/26 27/27 123/123
f 27/27 124/124 123/123
f 27/27 28/28 124/124
f 28/28 125/125 124/124
f 28/28 29/29 125/125
f 29/29 126/126 125/125
f 29/29 30/30 126/126
f 30/30 127/127 126/126
f 30/30 31/31 127/127
f 31/31 128/128 127/127
f 31/31 32/32 128/128
f 32/32 129/129 128/128
f 32/32 33/33 129/129
f 33/33 130/130 129/129
f 33/33 34/34 130/130
f 34/34 131/131 130/130
f 34/34 35/35 131/131
f 35/35 132/132 131/131
f 35/35 36/36 132/132
f 36/36 133/133 132/132
f 36/36 37/37 133/133
f 37/37 134/134 133/133
f 37/37 38/38 134/134
f 38/38 135/135 134/134
f 38/38 39/39 135/135
f 39/39 136/136 135/135
f 39/39 40/40 136/136
f 40/40 137/137 136/136
f 40/40 41/41 137/137
f 41/41 138/138 137/137
f 41/41 42/42 138/138
f 42/42 139/139 138/138
f 42/42 43/43 139/139
f 43/43 140/140 139/139
f 43/43 44/44 140/140
f 44/44 141/141 140/140
f 44/44 45/45 141/141
f 45/45 142/142 141/141
f 45/45 46/46 142/142
f 46/46 143/143 142/142
f 46/46 47/47 143/143
f 47/47 144/144 143/143
f 47/47 48/48 144/144
f 48/48 145/145 144/144
f 48/48 49/49 145/145
f 49/49 146/146 145/145
f 49/49 50/50 146/146
f 50/50 147/147 146/146
f 50/50 51/51 147/147
f 51/51 148/148 147/147
f 51/51 52/52 148/148
f 52/52 149/149 148/148
f 52/52 53/53 149/149
f 53/53 150/150 149/149
f 53/53 54/54 150/150
f 54/54 151/151 150/150
f 54/54 55/55 151/151
f 55/55 152/152 151/151
f 55/55 56/56 152/152
f 56/56 153/153 152/152
f 56/56 57/57 153/153
f 57/57 154/154 153/153
f 57/57 58/58 154/154
f 58/58 155/155 154/154
f 58/58 59/59 155/155
f 59/59 156/156 155/155
f 59/59 60/60 156/156
f 60/60 157/157 156/156
f 60/60 61/61 157/157
f 61/61 158/158 157/157
f 61/61 62/62 158/158
f 62/62 159/159 158/158
f 62/62 63/63 159/159
f 63/63 160/160 159/159
f 63/63 64/64 160/160
f 64/64 161/161 160/160
f 64/64 65/65 161/161
f 65/65 162/162 161/161
f 65/65 66/66 162/162
f 66/66 163/163 162/162
f 66/66 67/67 163/163
f 67/67 164/164 163/163
f 67/67 68/68 164/164
f 68/68 165/165 164/164
f 68/68 69/69 165/165
f 69/69 166/166 165/165
f 69/69 70/70 166/166
f 70/70 167/167 166/166
f 70/70 71/71 167/167
f 71/71 168/168 167/167
f 71/71 72/72 168/168
f 72/72 169/169 168/168
f 72/72 73/73 169/169
f 73/73 170/170 169/169
f 73/73 74/74 170/170
f 74/74 171/171 170/170
f 74/74 75/75 171/171
f 75/75 172/172 171/171
f 75/75 76/76 172/172
f 76/76 173/173 172/172
f 76/76 77/77 173/173
f 77/77 174/174 173/173
f 77/77 78/78 174/174
f 78/78 175/175 174/174
f 78/78 79/79 175/175
f 79/79 176/176 175/175
f 79/79 80/80 176/176
f 80/80 177/177 176/176
f 80/80 81/81 177/177
f 81/81 178/178 177/177
f 81/81 82/82 178/178
f 82/82 179/179 178/178
f 82/82 83/83 179/179
f 83/83 180/180 179/179
f 83/83 84/84 180/180
f 84/84 181/181 180/180
f 84/84 85/85 181/181
f 85/85 182/182 181/181
f 85/85 86/86 182/182
f 86/86 183/183 182/182
f 86/86 87/87 183/183
f 87/87 184/184 183/183
f 87/87 88/88 184/184
f 88/88 185/185 184/184
f 88/88 89/89 185/185
f 89/89 186/186 185/185
f 89/89 90/90 186/186
f 90/90 187/187 186/186
f 90/90 91/91 187/187
f 91/91 188/188 187/187
f 91/91 92/92 188/188
f 92/92 189/189 188/188
f 92/92 93/93 189/189
f 93/93 190/190 189/189
f 93/93 94/94 190/190
f 94/94 191/191 190/190
f 94/94 95/95 191/191
f 95/95 192/192 191/191
f 95/95 96/96 192/192
f 96/96 193/193 192/192
f 96/96 97/97 193/193
f 97/97 194/194 193/193
f 98/98 99/99 195/195
f 99/99 196/196 195/195
f 99/99 100/100 196/196
f 100/100 197/197 196/196
f 100/100 101/101 197/197
f 101/101 198/198 197/197
f 101/101 102/102 198/198
f 102/102 199/199 198/198
f 102/102 103/103 199/199
f 103/103 200/200 199/199
f 103/103 104/104 200/200
f 104/104 201/201 200/200
f 104/104 105/105 201/201
f 105/105 202/202 201/201
f 105/105 106/106 202/202
f 106/106 203/203 202/202
f 106/106 107/107 203/203
f 107/107 204/204 203/203
f 107/107 108/108 204/204
f 108/108 205/205 204/204
f 108/108 109/109 205/205
f 109/109 206/206 205/205
f 109/109 110/110 206/206
f 110/110 207/207 206/206
f 110/110 111/111 207/207
f 111/111 208/208 207/207
f 111/111 112/112 208/208
f 112/112 209/209 208/208
f 112/112 113/113 209/209
f 113/113 210/210 209/209
f 113/113 114/114 210/210
f 114/114 211/211 210/210
f 114/114 115/115 211/211
f 115/115 212/212 211/211
f 115/115 116/116 212/212
f 116/116 213/213 212/212
f 116/116 117/117 213/213
f 117/117 214/214 213/213
f 117/117 118/118 214/214
f 118/118 215/215 214/214
f 118/118 119/119 215/215
f 119/119 216/216 215/215
f 119/119 120/120 216/216
f 120/120 217/217 216/216
f 120/120 121/121 217/217
f 121/121 218/218 217/217
f 121/121 122/122 218/218
f 122/122 219/219 218/218
f 122/122 123/123 219/219
f 123/123 220/220 219/219
f 123/123 124/124 220/220
f 124/124 221/221 220/220
f 124/124 125/125 221/221
f 125/125 222/222 221/221
f 125/125 126/126 222/222
f 126/126 223/223 222/222
f 126/126 127/127 223/223
f 127/127 224/224 223/223
f 127/127 128/128 224/224
f 128/128 225/225 224/224
f 128/128 129/129 225/225
f 129/129 226/226 225/225
f 129/129 130/130 226/226
f 130/130 227/227 226/226
f 130/130 131/131 227/227
f 131/131 228/228 227/227
f 131/131 132/132 228/228
f 132/132 229/229 228/228
f 132/132 133/133 229/229
f 133/133 230/230 229/229
f 133/133 134/134 230/230
f 134/134 231/231 230/230
f 134/134 135/135 231/231
f 135/135 232/232 231/231
f 135/135 136/136 232/232
f 136/136 233/233 232/232
f 136/136 137/137 233/233
f 137/137 234/234 233/233
f 137/137 138/138 234/234
f 138/138 235/235 234/234
f 138/138 139/139 235/235
f 139/139 236/236 235/235
f 139/139 140/140 236/236
f 140/140 237/237 236/236
f 140/140 141/141 237/237
f 141/141 238/238 237/237
f 141/141 142/142 238/238
f 142/142 239/239 238/238
f 142/142 143/143 239/239
f 143/143 240/240 239/239
f 143/143 144/144 240/240
f 144/144 241/241 240/240
f 144/144 145/145 241/241
f 145/145 242/242 241/241
f 145/145 146/146 242/242
f 146/146 243/243 242/242
f 146/146 147/147 243/243
f 147/147 244/244 243/243
f 147/147 148/148 244/244
f 148/148 245/245 244/244
f 148/148 149/149 245/245
f 149/149 246/246 245/245
f 149/149 150/150 246/246
f 150/150 247/247 246/246
f 150/150 151/151 247/247
f 151/151 248/248 247/247
f 151/151 152/152 248/248
f 152/152 249/249 248/248
f 152/152 153/153 249/249
f 153/153 250/250 249/249
f 153/153 154/154 250/250
f 154/154 251/251 250/250
f 154/154 155/155 251/251
f 155/155 252/252 251/251
f 155/155 156/156 252/252
f 156/156 253/253 252/252
f 156/156 157/157 253/253
f 157/157 254/254 253/253
f 157/157 158/158 254/254
f 158/158 255/255 254/254
f 158/158 159/159 255/255
f 159/159 256/256 255/255
f 159/159 160/160 256/256
f 160/160 257/257 256/256
f 160/160 161/161 257/257
f 161/161 258/258 257/257
f 161/161 162/162 258/258
f 162/162 259/259 258/258
f 162/162 163/163 259/259
f 163/163 260/260 259/259
f 163/163 164/164 260/260
f 164/164 261/261 260/260
f 164/164 165/165 261/261
f 165/165 262/262 261/261
f 165/165 166/166 262/262
f 166/166 263/263 262/262
f 166/166 167/167 263/263
f 167/167 264/264 263/263
f 167/167 168/168 264/264
f 168/168 265/265 264/264
f 168/168 169/169 265/265
f 169/169 266/266 265/265
f 169/169 170/170 266/266
f 170/170 267/267 266/266
f 170/170 171/171 267/267
f 171/171 268/268 267/267
f 171/171 172/172 268/268
f 172/172 269/269 268/268
f 172/172 173/173 269/269
f 173/173 270/270 269/269
f 173/173 174/174 270/270
f 174/174 271/271 270/270
f 174/174 175/175 271/271
f 175/175 272/272 271/271
f 175/175 176/176 272/272
f 176/176 273/273 272/272
f 176/176 177/177 273/273
f 177/177 274/274 273/273
f 177/177 178/178 274/274
f 178/178 275/275 274/274
f 178/178 179/179 275/275
f 179/179 276/276 275/275
f 179/179 180/180 276/276
f 180/180 277/277 276/276
f 180/180 181/181 277/277
f 181/181 278/278 277/277
f 181/181 182/182 278/278
f 182/182 279/279 278/278
f 182/182 183/183 279/279
f 183/183 280/280 279/279
f 183/183 184/184 280/280
f 184/184 281/281 280/280
f 184/184 185/185 281/281
f 185/185 282/282 281/281
f 185/185 186/186 282/282
f 186/186 283/283 282/282
f 186/186 187/187 283/283
f 187/187 284/284 283/283
f 187/187 188/188 284/284
f 188/188 285/285 284/284
f 188/188 189/189 285/285
f 189/189 286/286 285/285
f 189/189 190/190 286/286
f 190/190 287/287 286/286
f 190/190 191/191 287/287
f 191/191 288/288 287/287
f 191/191 192/192 288/288
f 192/192 289/289 288/288
f 192/192 193/193 289/289
f 193/193 290/290 289/289
f 193/193 194/194 290/290
f 194/194 291/291 290/290
f 195/195 196/196 292/292
f 196/196 293/293 292/292
f 196/196 197/197 293/293
f 197/197 294/294 293/293
f 197/197 198/198 294/294
f 198/198 295/295 294/294
f 198/198 199/199 295/295
f 199/199 296/296 295/295
f 199/199 200/200 296/296
f 200/200 297/297 296/296
f 200/200 201/201 297/297
f 201/201 298/298 297/297
f 201/201 202/202 298/298
f 202/202 299/299 298/298
f 202/202 203/203 299/299
f 203/203 300/300 299/299
f 203/203 204/204 300/300
f 204/204 301/301 300/300
f 204/204 205/205 301/301
f 205/205 302/302 301/301
f 205/205 206/206 302/302
f 206/206 303/303 302/302
f 206/206 207/207 303/303
f 207/207 304/304 303/303
f 207/207 208/208 304/304
f 208/208 305/305 304/304
f 208/208 209/209 305/305
f 209/209 306/306 305/305
f 209/209 210/210 306/306
f 210/210 307/307 306/306
f 210/210 211/211 307/307
f 211/211 308/308 307/307
f 211/211 212/212 308/308
f 212/212 309/309 308/308
f 212/212 213/213 309/309
f 213/213 310/310 309/309
f 213/213 214/214 310/310
f 214/214 311/311 310/310
f 214/214 215/215 311/311
f 215/215 312/312 311/311
f 215/215 216/216 312/312
f 216/216 313/313 312/312
f 216/216 217/217 313/313
f 217/217 314/314 313/313
f 217/217 218/218 314/314
f 218/218 315/315 314/314
f 218/218 219/219 315/315
f 219/219 316/316 315/315
f 219/219 220/220 316/316
f 220/220 317/317 316/316
f 220/220 221/221 317/317
f 221/221 318/318 317/317
f 221/221 222/222 318/318
f 222/222 319/319 318/318
f 222/222 223/223 319/319
f 223/223 320/320 319/319
f 223/223 224/224 320/320
f 224/224 321/321 320/320
f 224/224 225/225 321/321
f 225/225 322/322 321/321
f 225/225 226/226 322/322
f 226/226 323/323 322/322
f 226/226 227/227 323/323
f 227/227 324/324 323/323
f 227/227 228/228 324/324
f 228/228 325/325 324/324
f 228/228 229/229 325/325
f 229/229 326/326 325/325
f 229/229 230/230 326/326
f 230/230 327/327 326/326
f 230/230 231/231 327/327
f 231/231 328/328 327/327
f 231/231 232/232 328/328
f 232/232 329/329 328/328
f 232/232 233/233 329/329
f 233/233 330/330 329/329
f 233/233 234/234 330/330
f 234/234 331/331 330/330
f 234/234 235/235 331/331
f 235/235 332/332 331/331
f 235/235 236/236 332/332
f 236/236 333/333 332/332
f 236/236 237/237 333/333
f 237/237 334/334 333/333
f 237/237 238/238 334/334
f 238/238 335/335 334/334
f 238/238 239/239 335/335
f 239/239 336/336 335/335
f 239/239 240/240 336/336
f 240/240 337/337 336/336
f 240/240 241/241 337/337
f 241/241 338/338 337/337
f 241/241 242/242 338/338
f 242/242 339/339 338/338
f 242/242 243/243 339/339
f 243/243 340/340 339/339
f 243/243 244/244 340/340
f 244/244 341/341 340/340
f 244/244 245/245 341/341
f 245/245 342/342 341/341
f 245/245 246/246 342/342
f 246/246 343/343 342/342
f 246/246 247/247 343/343
f 247/247 344/344 343/343
f 247/247 248/248 344/344
f 248/248 345/345 344/344
f 248/248 249/249 345/345
f 249/249 346/346 345/345
f 249/249 250/250 346/346
f 250/250 347/347 346/346
f 250/250 251/251 347/347
f 251/251 348/348 347/347
f 251/251 252/252 348/348
f 252/252 349/349 348/348
f 252/252 253/253 349/349
f 253/253 350/350 349/349
f 253/253 254/254 350/350
f 254/254 351/351 350/350
f 254/254 255/255 351/351
f 255/255 352/352 351/351
f 255/255 256/256 352/352
f 256/256 353/353 352/352
f 256/256 257/257 353/353
f 257/257 354/354 353/353
f 257/257 258/258 354/354
f 258/258 355/355 354/354
f 258/258 259/259 355/355
f 259/259 356/356 355/355
f 259/259 260/260 356/356
f 260/260 357/357 356/356
f 260/260 261/261 357/357
f 261/261 358/358 357/357
f 261/261 262/262 358/358
f 262/262 359/359 358/358
f 262/262 263/263 359/359
f 263/263 360/360 359/359
f 263/263 264/264 360/360
f 264/264 361/361 360/360
f 264/264 265/265 361/361
f 265/265 362/362 361/361
f 265/265 266/266 362/362
f 266/266 363/363 362/362
f 266/266 267/267 363/363
f 267/267 364/364 363/363
f 267/267 268/268 364/364
f 268/268 365/365 364/364
f 268/268 269/269 365/365
f 269/269 366/366 365/365
f 269/269 270/270 366/366
f 270/270 367/367 366/366
f 270/270 271/271 367/367
f 271/271 368/368 367/367
f 271/271 272/272 368/368
f 272/272 369/369 368/368
f 272/272 273/273 369/369
f 273/273 370/370 369/369
f 273/273 274/274 370/370
f 274/274 371/371 370/370
f 274/274 275/275 371/371
f 275/275 372/372 371/371
f 275/275 276/276 372/372
f 276/276 373/373 372/372
f 276/276 277/277 373/373
f 277/277 374/374 373/373
f 277/277 278/278 374/374
f 278/278 375/375 374/374
f 278/278 279/279 375/375
f 279/279 376/376 375/375
f 279/279 280/280 376/376
f 280/280 377/377 376/376
f 280/280 281/281 377/377
f 281/281 378/378 377/377
f 281/281 282/282 378/378
f 282/282 379/379 378/378
f 282/282 283/283 379/379
f 283/283 380/380 379/379
f 283/283 284/284 380/380
f 284/284 381/381 380/380
f 284/284 285/285 381/381
f 285/285 382/382 381/381
f 285/285 286/286 382/382
f 286/286 383/383 382/382
f 286/286 287/287 383/383
f 287/287 384/384 383/383
f 287/287 288/288 384/384
f 288/288 385/385 384/384
f 288/288 289/289 385/385
f 289/289 386/386 385/385
f 289/289 290/290 386/386
f 290/290 387/387 386/386
f 290/290 291/291 387/387
f 291/291 388/388 387/387
f 292/292 293/293 389/389
f 293/293 390/390 389/389
f 293/293 294/294 390/390
f 294/294 391/391 390/390
f 294/294 295/295 391/391
f 295/295 392/392 391/391
f 295/295 296/296 392/392
f 296/296 393/393 392/392
f 296/296 297/297 393/393
f 297/297 394/394 393/393
f 297/297 298/298 394/394
f 298/298 395/395 394/394
f 298/298 299/299 395/395
f 299/299 396/396 395/395
f 299/299 300/300 396/396
f 300/300 397/397 396/396
f 300/300 301/301 397/397
f 301/301 398/398 397/397
f 301/301 302/302 398/398
f 302/302 399/399 398/398
f 302/302 303/303 399/399
f 303/303 400/400 399/399
f 303/303 304/304 400/400
f 304/304 401/401 400/400
f 304/304 305/305 401/401
f 305/305 402/402 401/401
f 305/305 306/306 402/402
f 306/306 403/403 402/402
f 306/306 307/307 403/403
f 307/307 404/404 403/403
f 307/307 308/308 404/404
f 308/308 405/405 404/404
f 308/308 309/309 405/405
f 309/309 406/406 405/405
f 309/309 310/310 406/406
f 310/310 407/407 406/406
f 310/310 311/311 407/407
f 311/311 408/408 407/407
f 311/311 312/312 408/408
f 312/312 409/409 408/408
f 312/312 313/313 409/409
f 313/313 410/410 409/409
f 313/313 314/314 410/410
f 314/314 411/411 410/410
f 314/314 315/315 411/411
f 315/315 412/412 411/411
f 315/315 316/316 412/412
f 316/316 413/413 412/412
f 316/316 317/317 413/413
f 317/317 414/414 413/413
f 317/317 318/318 414/414
f 318/318 415/415 414/414
f 318/318 319/319 415/415
f 319/319 416/416 415/415
f 319/319 320/320 416/416
f 320/320 417/417 416/416
f 320/320 321/321 417/417
f 321/321 418/418 417/417
f 321/321 322/322 418/418
f 322/322 419/419 418/418
f 322/322 323/323 419/419
f 323/323 420/420 419/419
f 323/323 324/324 420/420
f 324/324 421/421 420/420
f 324/324 325/325 421/421
f 325/325 422/422 421/421
f 325/325 326/326 422/422
f 326/326 423/423 422/422
f 326/326 327/327 423/423
f 327/327 424/424 423/423
f 327/327 328/328 424/424
f 328/328 425/425 424/424
f 328/328 329/329 425/425
f 329/329 426/426 425/425
f 329/329 330/330 426/426
f 330/330 427/427 426/426
f 330/330 331/331 427/427
f 331/331 428/428 427/427
f 331/331 332/332 428/428
f 332/332 429/429 428/428
f 332/332 333/333 429/429
f 333/333 430/430 429/429
f 333/333 334/334 430/430
f 334/334 431/431 430/430
f 334/334 335/335 431/431
f 335/335 432/432 431/431
f 335/335 336/336 432/432
f 336/336 433/433 432/432
f 336/336 337/337 433/433
f 337/337 434/434 433/433
f 337/337 338/338 434/434
f 338/338 435/435 434/434
f 338/338 339/339 435/435
f 339/339 436/436 435/435
f 339/339 340/340 436/436
f 340/340 437/437 436/436
f 340/340 341/341 437/437
f 341/341 438/438 437/437
f 341/341 342/342 438/438
f 342/342 439/439 438/438
f 342/342 343/343 439/439
f 343/343 440/440 439/439
f 343/343 344/344 440/440
f 344/344 441/441 440/440
f 344/344 345/345 441/441
f 345/345 442/442 441/441
f 345/345 346/346 442/442
f 346/346 443/443 442/442
f 346/346 347/347 443/443
f 347/347 444/444 443/443
f 347/347 348/348 444/444
f 348/348 445/445 444/444
f 348/348 349/349 445/445
f 349/349 446/446 445/445
f 349/349 350/350 446/446
f 350/350 447/447 446/446
f 350/350 351/351 447/447
f 351/351 448/448 447/447
f 351/351 352/352 448/448
f 352/352 449/449 448/448
f 352/352 353/353 449/449
f 353/353 450/450 449/449
f 353/353 354/354 450/450
f 354/354 451/451 450/450
f 354/354 355/355 451/451
f 355/355 452/452 451/451
f 355/355 356/356 452/452
f 356/356 453/453 452/452
f 356/356 357/357 453/453
f 357/357 454/454 453/453
f 357/357 358/358 454/454
f 358/358 455/455 454/454
f 358/358 359/359 455/455
f 359/359 456/456 455/455
f 359/359 360/360 456/456
f 360/360 457/457 456/456
f 360/360 361/361 457/457
f 361/361 458/458 457/457
f 361/361 362/362 458/458
f 362/362 459/459 458/458
f 362/362 363/363 459/459
f 363/363 460/460 459/459
f 363/363 364/364 460/460
f 364/364 461/461 460/460
f 364/364 365/365 461/461
f 365/365 462/462 461/461
f 365/365 366/366 462/462
f 366/366 463/463 462/462
f 366/366 367/367 463/463
f 367/367 464/464 463/463
f 367/367 368/368 464/464
f 368/368 465/465 464/464
f 368/368 369/369 465/465
f 369/369 466/466 465/465
f 369/369 370/370 466/466
f 370/370 467/467 466/466
f 370/370 371/371 467/467
f 371/371 468/468 467/467
f 371/371 372/372 468/468
f 372/372 469/469 468/468
f 372/372 373/373 469/469
f 373/373 470/470 469/469
f 373/373 374/374 470/470
f 374/374 471/471 470/470
f 374/374 375/375 471/471
f 375/375 472/472 471/471
f 375/375 376/376 472/472
f 376/376 473/473 472/472
f 376/376 377/377 473/473
f 377/377 474/474 473/473
f 377/377 378/378 474/474
f 378/378 475/475 474/474
f 378/378 379/379 475/475
f 379/379 476/476 475/475
f 379/379 380/380 476/476
f 380/380 477/477 476/476
f 380/380 381/381 477/477
f 381/381 478/478 477/477
f 381/381 382/382 478/478
f 382/382 479/479 478/478
f 382/382 383/383 479/479
f 383/383 480/480 479/479
f 383/383 384/384 480/480
f 384/384 481/481 480/480
f 384/384 385/385 481/481
f 385/385 482/482 481/481
f 385/385 386/386 482/482
f 386/386 483/483 482/482
f 386/386 387/387 483/483
f 387/387 484/484 483/483
f 387/387 388/388 484/484
f 388/388 485/485 484/484
f 389/389 390/390 486/486
f 390/390 487/487 486/486
f 390/390 391/391 487/487
f 391/391 488/488 487/487
f 391/391 392/392 488/488
f 392/392 489/489 488/488
f 392/392 393/393 489/489
f 393/393 490/490 489/489
f 393/393 394/394 490/490
f 394/394 491/491 490/490
f 394/394 395/395 491/491
f 395/395 492/492 491/491
f 395/395 396/396 492/492
f 396/396 493/493 492/492
f 396/396 397/397 493/493
f 397/397 494/494 493/493
f 397/397 398/398 494/494
f 398/398 495/495 494/494
f 398/398 399/399 495/495
f 399/399 496/496 495/495
f 399/399 400/400 496/496
f 400/400 497/497 496/496
f 400/400 401/401 497/497
f 401/401 498/498 497/497
f 401/401 402/402 498/498
f 402/402 499/499 498/498
f 402/402 403/403 499/499
f 403/403 500/500 499/499
f 403/403 404/404 500/500
f 404/404 501/501 500/500
f 404/404 405/405 501/501
f 405/405 502/502 501/501
f 405/405 406/406 502/502
f 406/406 503/503 502/502
f 406/406 407/407 503/503
f 407/407 504/504 503/503
f 407/407 408/408 504/504
f 408/408 505/505 504/504
f 408/408 409/409 505/505
f 409/409 506/506 505/505
f 409/409 410/410 506/506
f 410/410 507/507 506/506
f 410/410 411/411 507/507
f 411/411 508/508 507/507
f 411/411 412/412 508/508
f 412/412 509/509 508/508
f 412/412 413/413 509/509
f 413/413 510/510 509/509
f 413/413 414/414 510/510
f 414/414 511/511 510/510
f 414/414 415/415 511/511
f 415/415 512/512 511/511
f 415/415 416/416 512/512
f 416/416 513/513 512/512
f 416/416 417/417 513/513
f 417/417 514/514 513/513
f 417/417 418/418 514/514
f 418/418 515/515 514/514
f 418/418 419/419 515/515
f 419/419 516/516 515/515
f 419/419 420/420 516/516
f 420/420 517/517 516/516
f 420/420 421/421 517/517
f 421/421 518/518 517/517
f 421/421 422/422 518/518
f 422/422 519/519 518/518
f 422/422 423/423 519/519
f 423/423 520/520 519/519
f 423/423 424/424 520/520
f 424/424 521/521 520/520
f 424/424 425/425 521/521
f 425/425 522/522 521/521
f 425/425 426/426 522/522
f 426/426 523/523 522/522
f 426/426 427/427 523/523
f 427/427 524/524 523/523
f 427/427 428/428 524/524
f 428/428 525/525 524/524
f 428/428 429/429 525/525
f 429/429 526/526 525/525
f 429/429 430/430 526/526
f 430/430 527/527 526/526
f 430/430 431/431 527/527
f 431/431 528/528 527/527
f 431/431 432/432 528/528
f 432/432 529/529 528/528
f 432/432 433/433 529/529
f 433/433 530/530 529/529
f 433/433 434/434 530/530
f 434/434 531/531 530/530
f 434/434 435/435 531/531
f 435/435 532/532 531/531
f 435/435 436/436 532/532
f 436/436 533/533 532/532
f 436/436 437/437 533/533
f 437/437 534/534 533/533
f 437/437 438/438 534/534
f 438/438 535/535 534/534
f 438/438 439/439 535/535
f 439/439 536/536 535/535
f 439/439 440/440 536/536
f 440/440 537/537 536/536
f 440/440 441/441 537/537
f 441/441 538/538 537/537
f 441/441 442/442 538/538
f 442/442 539/539 538/538
f 442/442 443/443 539/539
f 443/443 540/540 539/539
f 443/443 444/444 540/540
f 444/444 541/541 540/540
f 444/444 445/445 541/541
f 445/445 542/542 541/541
f 445/445 446/446 542/542
f 446/446 543/543 542/542
f 446/446 447/447 543/543
f 447/447 544/544 543/543
f 447/447 448/448 544/544
f 448/448 545/545 544/544
f 448/448 449/449 545/545
f 449/449 546/546 545/545
f 449/449 450/450 546/546
f 450/450 547/547 546/546
f 450/450 451/451 547/547
f 451/451 548/548 547/547
f 451/451 452/452 548/548
f 452/452 549/549 548/548
f 452/452 453/453 549/549
f 453/453 550/550 549/549
f 453/453 454/454 550/550
f 454/454 551/551 550/550
f 454/454 455/455 551/551
f 455/455 552/552 551/551
f 455/455 456/456 552/552
f 456/456 553/553 552/552
f 456/456 457/457 553/553
f 457/457 554/554 553/553
f 457/457 458/458 554/554
f 458/458 555/555 554/554
f 458/458 459/459 555/555
f 459/459 556/556 555/555
f 459/459 460/460 556/556
f 460/460 557/557 556/556
f 460/460 461/461 557/557
f 461/461 558/558 557/557
f 461/461 462/462 558/558
f 462/462 559/559 558/558
f 462/462 463/463 559/559
f 463/463 560/560 559/559
f 463/463 464/464 560/560
f 464/464 561/561 560/560
f 464/464 465/465 561/561
f 465/465 562/562 561/561
f 465/465 466/466 562/562
f 466/466 563/563 562/562
f 466/466 467/467 563/563
f 467/467 564/564 563/563
f 467/467 468/468 564/564
f 468/468 565/565 564/564
f 468/468 469/469 565/565
f 469/469 566/566 565/565
f 469/469 470/470 566/566
f 470/470 567/567 566/566
f 470/470 471/471 567/567
f 471/471 568/568 567/567
f 471/471 472/472 568/568
f 472/472 569/569 568/568
f 472/472 473/473 569/569
f 473/473 570/570 569/569
f 473/473 474/474 570/570
f 474/474 571/571 570/570
f 474/474 475/475 571/571
f 475/475 572/572 571/571
f 475/475 476/476 572/572
f 476/476 573/573 572/572
f 476/476 477/477 573/573
f 477/477 574/574 573/573
f 477/477 478/478 574/574
f 478/478 575/575 574/574
f 478/478 479/479 575/575
f 479/479 576/576 575/575
f 479/479 480/480 576/576
f 480/480 577/577 576/576
f 480/480 481/481 577/577
f 481/481 578/578 577/577
f 481/481 482/482 578/578
f 482/482 579/579 578/578
f 482/482 483/483 579/579
f 483/483 580/580 579/579
f 483/483 484/484 580/580
f 484/484 581/581 580/580
f 484/484 485/485 581/581
f 485/485 582/582 581/581
f 486/486 487/487 583/583
f 487/487 584/584 583/583
f 487/487 488/488 584/584
f 488/488 585/585 584/584
f 488/488 489/489 585/585
f 489/489 586/586 585/585
f 489/489 490/490 586/586
f 490/490 587/587 586/586
f 490/490 491/491 587/587
f 491/491 588/588 587/587
f 491/491 492/492 588/588
f 492/492 589/589 588/588
f 492/492 493/493 589/589
f 493/493 590/590 589/589
f 493/493 494/494 590/590
f 494/494 591/591 590/590
f 494/494 495/495 591/591
f 495/495 592/592 591/591
f 495/495 496/496 592/592
f 496/496 593/593 592/592
f 496/496 497/497 593/593
f 497/497 594/594 593/593
f 497/497 498/498 594/594
f 498/498 595/595 594/594
f 498/498 499/499 595/595
f 499/499 596/596 595/595
f 499/499 500/500 596/596
f 500/500 597/597 596/596
f 500/500 501/501 597/597
f 501/501 598/598 597/597
f 501/501 502/502 598/598
f 502/502 599/599 598/598
f 502/502 503/503 599/599
f 503/503 600/600 599/599
f 503/503 504/504 600/600
f 504/504 601/601 600/600
f 504/504 505/505 601/601
f 505/505 602/602 601/601
f 505/505 506/506 602/602
f 506/506 603/603 602/602
f 506/506 507/507 603/603
f 507/507 604/604 603/603
f 507/507 508/508 604/604
f 508/508 605/605 604/604
f 508/508 509/509 605/605
f 509/509 606/606 605/605
f 509/509 510/510 606/606
f 510/510 607/607 606/606
f 510/510 511/511 607/607
f 511/511 608/608 607/607
f 511/511 512/512 608/608
f 512/512 609/609 608/608
f 512/512 513/513 609/609
f 513/513 610/610 609/609
f 513/513 514/514 610/610
f 514/514 611/611 610/610
f 514/514 515/515 611/611
f 515/515 612/612 611/611
f 515/515 516/516 612/612
f 516/516 613/613 612/612
f 516/516 517/517 613/613
f 517/517 614/614 613/613
f 517/517 518/518 614/614
f 518/518 615/615 614/614
f 518/518 519/519 615/615
f 519/519 616/616 615/615
f 519/519 520/520 616/616
f 520/520 617/617 616/616
f 520/520 521/521 617/617
f 521/521 618/618 617/617
f 521/521 522/522 618/618
f 522/522 619/619 618/618
f 522/522 523/523 619/619
f 523/523 620/620 619/619
f 523/523 524/524 620/620
f 524/524 621/621 620/620
f 524/524 525/525 621/621
f 525/525 622/622 621/621
f 525/525 526/526 622/622
f 526/526 623/623 622/622
f 526/526 527/527 623/623
f 527/527 624/624 623/623
f 527/527 528/528 624/624
f 528/528 625/625 624/624
f 528/528 529/529 625/625
f 529/529 626/626 625/625
f 529/529 530/530 626/626
f 530/530 627/627 626/626
f 530/530 531/531 627/627
f 531/531 628/628 627/627
f 531/531 532/532 628/628
f 532/532 629/629 628/628
f 532/532 533/533 629/629
f 533/533 630/630 629/629
f 533/533 534/534 630/630
f 534/534 631/631 630/630
f 534/534 535/535 631/631
f 535/535 632/632 631/631
f 535/535 536/536 632/632
f 536/536 633/633 632/632
f 536/536 537/537 633/633
f 537/537 634/634 633/633
f 537/537 538/538 634/634
f 538/538 635/635 634/634
f 538/538 539/539 635/635
f 539/539 636/636 635/635
f 539/539 540/540 636/636
f 540/540 637/637 636/636
f 540/540 541/541 637/637
f 541/541 638/638 637/637
f 541/541 542/542 638/638
f 542/542 639/639 638/638
f 542/542 543/543 639/639
f 543/543 640/640 639/639
f 543/543 544/544 640/640
f 544/544 641/641 640/640
f 544/544 545/545 641/641
f 545/545 642/642 641/641
f 545/545 546/546 642/642
f 546/546 643/643 642/642
f 546/546 547/547 643/643
f 547/547 644/644 643/643
f 547/547 548/548 644/644
f 548/548 645/645 644/644
f 548/548 549/549 645/645
f 549/549 646/646 645/645
f 549/549 550/550 646/646
f 550/550 647/647 646/646
f 550/550 551/551 647/647
f 551/551 648/648 647/647
f 551/551 552/552 648/648
f 552/552 649/649 648/648
f 552/552 553/553 649/649
f 553/553 650/650 649/649
f 553/553 554/554 650/650
f 554/554 651/651 650/650
f 554/554 555/555 651/651
f 555/555 652/652 651/651
f 555/555 556/556 652/652
f 556/556 653/653 652/652
f 556/556 557/557 653/653
f 557/557 654/654 653/653
f 557/557 558/558 654/654
f 558/558 655/655 654/654
f 558/558 559/559 655/655
f 559/559 656/656 655/655
f 559/559 560/560 656/656
f 560/560 657/657 656/656
f 560/560 561/561 657/657
f 561/561 658/658 657/657
f 561/561 562/562 658/658
f 562/562 659/659 658/658
f 562/562 563/563 659/659
f 563/563 660/660 659/659
f 563/563 564/564 660/660
f 564/564 661/661 660/660
f 564/564 565/565 661/661
f 565/565 662/662 661/661
f 565/565 566/566 662/662
f 566/566 663/663 662/662
f 566/566 567/567 663/663
f 567/567 664/664 663/663
f 567/567 568/568 664/664
f 568/568 665/665 664/664
f 568/568 569/569 665/665
f 569/569 666/666 665/665
f 569/569 570/570 666/666
f 570/570 667/667 666/666
f 570/570 571/571 667/667
f 571/571 668/668 667/667
f 571/571 572/572 668/668
f 572/572 669/669 668/668
f 572/572 573/573 669/669
f 573/573 670/670 669/669
f 573/573 574/574 670/670
f 574/574 671/671 670/670
f 574/574 575/575 671/671
f 575/575 672/672 671/671
f 575/575 576/576 672/672
f 576/576 673/673 672/672
f 576/576 577/577 673/673
f 577/577 674/674 673/673
f 577/577 578/578 674/674
f 578/578 675/675 674/674
f 578/578 579/579 675/675
f 579/579 676/676 675/675
f 579/579 580/580 676/676
f 580/580 677/677 676/676
f 580/580 581/581 677/677
f 581/581 678/678 677/677
f 581/581 582/582 678/678
f 582/582 679/679 678/678
f 583/583 584/584 680/680
f 584/584 681/681 680/680
f 584/584 585/585 681/681
f 585/585 682/682 681/681
f 585/585 586/586 682/682
f 586/586 683/683 682/682
f 586/586 587/587 683/683
f 587/587 684/684 683/683
f 587/587 588/588 684/684
f 588/588 685/685 684/684
f 588/588 589/589 685/685
f 589/589 686/686 685/685
f 589/589 590/590 686/686
f 590/590 687/687 686/686
f 590/590 591/591 687/687
f 591/591 688/688 687/687
f 591/591 592/592 688/688
f 592/592 689/689 688/688
f 592/592 593/593 689/689
f 593/593 690/690 689/689
f 593/593 594/594 690/690
f 594/594 691/691 690/690
f 594/594 595/595 691/691
f 595/595 692/692 691/691
f 595/595 596/596 692/692
f 596/596 693/693 692/692
f 596/596 597/597 693/693
f 597/597 694/694 693/693
f 597/597 598/598 694/694
f 598/598 695/695 694/694
f 598/598 599/599 695/695
f 599/599 696/696 695/695
f 599/599 600/600 696/696
f 600/600 697/697 696/696
f 600/600 601/601 697/697
f 601/601 698/698 697/697
f 601/601 602/602 698/698
f 602/602 699/699 698/698
f 602/602 603/603 699/699
f 603/603 700/700 699/699
f 603/603 604/604 700/700
f 604/604 701/701 700/700
f 604/604 605/605 701/701
f 605/605 702/702 701/701
f 605/605 606/606 702/702
f 606/606 703/703 702/702
f 606/606 607/607 703/703
f 607/607 704/704 703/703
f 607/607 608/608 704/704
f 608/608 705/705 704/704
f 608/608 609/609 705/705
f 609/609 706/706 705/705
f 609/609 610/610 706/706
f 610/610 707/707 706/706
f 610/610 611/611 707/707
f 611/611 708/708 707/707
f 611/611 612/612 708/708
f 612/612 709/709 708/708
f 612/612 613/613 709/709
f 613/613 710/710 709/709
f 613/613 614/614 710/710
f 614/614 711/711 710/710
f 614/614 615/615 711/711
f 615/615 712/712 711/711
f 615/615 616/616 712/712
f 616/616 713/713 712/712
f 616/616 617/617 713/713
f 617/617 714/714 713/713
f 617/617 618/618 714/714
f 618/618 715/715 714/714
f 618/618 619/619 715/715
f 619/619 716/716 715/715
f 619/619 620/620 716/716
f 620/620 717/717 716/716
f 620/620 621/621 717/717
f 621/621 718/718 717/717
f 621/621 622/622 718/718
f 622/622 719/719 718/718
f 622/622 623/623 719/719
f 623/623 720/720 719/719
f 623/623 624/624 720/720
f 624/624 721/721 720/720
f 624/624 625/625 721/721
f 625/625 722/722 721/721
f 625/625 626/626 722/722
f 626/626 723/723 722/722
f 626/626 627/627 723/723
f 627/627 724/724 723/723
f 627/627 628/628 724/724
f 628/628 725/725 724/724
f 628/628 629/629 725/725
f 629/629 726/726 725/725
f 629/629 630/630 726/726
f 630/630 727/727 726/726
f 630/630 631/631 727/727
f 631/631 728/728 727/727
f 631/631 632/632 728/728
f 632/632 729/729 728/728
f 632/632 633/633 729/729
f 633/633 730/730 729/729
f 633/633 634/634 730/730
f 634/634 731/731 730/730
f 634/634 635/635 731/731
f 635/635 732/732 731/731
f 635/635 636/636 732/732
f 636/636 733/733 732/732
f 636/636 637/637 733/733
f 637/637 734/734 733/733
f 637/637 638/638 734/734
f 638/638 735/735 734/734
f 638/638 639/639 735/735
f 639/639 736/736 735/735
f 639/639 640/640 736/736
f 640/640 737/737 736/736
f 640/640 641/641 737/737
f 641/641 738/738 737/737
f 641/641 642/642 738/738
f 642/642 739/739 738/738
f 642/642 643/643 739/739
f 643/643 740/740 739/739
f 643/643 644/644 740/740
f 644/644 741/741 740/740
f 644/644 645/645 741/741
f 645/645 742/742 741/741
f 645/645 646/646 742/742
f 646/646 743/743 742/742
f 646/646 647/647 743/743
f 647/647 744/744 743/743
f 647/647 648/648 744/744
f 648/648 745/745 744/744
f 648/648 649/649 745/745
f 649/649 746/746 745/745
f 649/649 650/650 746/746
f 650/650 747/747 746/746
f 650/650 651/651 747/747
f 651/651 748/748 747/747
f 651/651 652/652 748/748
f 652/652 749/749 748/748
f 652/652 653/653 749/749
f 653/653 750/750 749/749
f 653/653 654/654 750/750
f 654/654 751/751 750/750
f 654/654 655/655 751/751
f 655/655 752/752 751/751
f 655/655 656/656 752/752
f 656/656 753/753 752/752
f 656/656 657/657 753/753
f 657/657 754/754 753/753
f 657/657 658/658 754/754
f 658/658 755/755 754/754
f 658/658 659/659 755/755
f 659/659 756/756 755/755
f 659/659 660/660 756/756
f 660/660 757/757 756/756
f 660/660 661/661 757/757
f 661/661 758/758 757/757
f 661/661 662/662 758/758
f 662/662 759/759 758/758
f 662/662 663/663 759/759
f 663/663 760/760 759/759
f 663/663 664/664 760/760
f 664/664 761/761 760/760
f 664/664 665/665 761/761
f 665/665 762/762 761/761
f 665/665 666/666 762/762
f 666/666 763/763 762/762
f 666/666 667/667 763/763
f 667/667 764/764 763/763
f 667/667 668/668 764/764
f 668/668 765/765 764/764
f 668/668 669/669 765/765
f 669/669 766/766 765/765
f 669/669 670/670 766/766
f 670/670 767/767 766/766
f 670/670 671/671 767/767
f 671/671 768/768 767/767
f 671/671 672/672 768/768
f 672/672 769/769 768/768
f 672/672 673/673 769/769
f 673/673 770/770 769/769
f 673/673 674/674 770/770
f 674/674 771/771 770/770
f 674/674 675/675 771/771
f 675/675 772/772 771/771
f 675/675 676/676 772/772
f 676/676 773/773 772/772
f 676/676 677/677 773/773
f 677/677 774/774 773/773
f 677/677 678/678 774/774
f 678/678 775/775 774/774
f 678/678 679/679 775/775
f 679/679 776/776 775/775
f 680/680 681/681 777/777
f 681/681 778/778 777/777
f 681/681 682/682 778/778
f 682/682 779/779 778/778
f 682/682 683/683 779/779
f 683/683 780/780 779/779
f 683/683 684/684 780/780
f 684/684 781/781 780/780
f 684/684 685/685 781/781
f 685/685 782/782 781/781
f 685/685 686/686 782/782
f 686/686 783/783 782/782
f 686/686 687/687 783/783
f 687/687 784/784 783/783
f 687/687 688/688 784/784
f 688/688 785/785 784/784
f 688/688 689/689 785/785
f 689/689 786/786 785/785
f 689/689 690/690 786/786
f 690/690 787/787 786/786
f 690/690 691/691 787/787
f 691/691 788/788 787/787
f 691/691 692/692 788/788
f 692/692 789/789 788/788
f 692/692 693/693 789/789
f 693/693 790/790 789/789
f 693/693 694/694 790/790
f 694/694 791/791 790/790
f 694/694 695/695 791/791
f 695/695 792/792 791/791
f 695/695 696/696 792/792
f 696/696 793/793 792/792
f 696/696 697/697 793/793
f 697/697 794/794 793/793
f 697/697 698/698 794/794
f 698/698 795/795 794/794
f 698/698 699/699 795/795
f 699/699 796/796 795/795
f 699/699 700/700 796/796
f 700/700 797/797 796/796
f 700/700 701/701 797/797
f 701/701 798/798 797/797
f 701/701 702/702 798/798
f 702/702 799/799 798/798
f 702/702 703/703 799/799
f 703/703 800/800 799/799
f 703/703 704/704 800/800
f 704/704 801/801 800/800
f 704/704 705/705 801/801
f 705/705 802/802 801/801
f 705/705 706/706 802/802
f 706/706 803/803 802/802
f 706/706 707/707 803/803
f 707/707 804/804 803/803
f 707/707 708/708 804/804
f 708/708 805/805 804/804
f 708/708 709/709 805/805
f 709/709 806/806 805/805
f 709/709 710/710 806/806
f 710/710 807/807 806/806
f 710/710 711/711 807/807
f 711/711 808/808 807/807
f 711/711 712/712 808/808
f 712/712 809/809 808/808
f 712/712 713/713 809/809
f 713/713 810/810 809/809
f 713/713 714/714 810/810
f 714/714 811/811 810/810
f 714/714 715/715 811/811
f 715/715 812/812 811/811
f 715/715 716/716 812/812
f 716/716 813/813 812/812
f 716/716 717/717 813/813
f 717/717 814/814 813/813
f 717/717 718/718 814/814
f 718/718 815/815 814/814
f 718/718 719/719 815/815
f 719/719 816/816 815/815
f 719/719 720/720 816/816
f 720/720 817/817 816/816
f 720/720 721/721 817/817
f 721/721 818/818 817/817
f 721/721 722/722 818/818
f 722/722 819/819 818/818
f 722/722 723/723 819/819
f 723/723 820/820 819/819
f 723/723 724/724 820/820
f 724/724 821/821 820/820
f 724/724 725/725 821/821
f 725/725 822/822 821/821
f 725/725 726/726 822/822
f 726/726 823/823 822/822
f 726/726 727/727 823/823
f 727/727 824/824 823/823
f 727/727 728/728 824/824
f 728/728 825/825 824/824
f 728/728 729/729 825/825
f 729/729 826/826 825/825
f 729/729 730/730 826/826
f 730/730 827/827 826/826
f 730/730 731/731 827/827
f 731/731 828/828 827/827
f 731/731 732/732 828/828
f 732/732 829/829 828/828
f 732/732 733/733 829/829
f 733/733 830/830 829/829
f 733/733 734/734 830/830
f 734/734 831/831 830/830
f 734/734 735/735 831/831
f 735/735 832/832 831/831
f 735/735 736/736 832/832
f 736/736 833/833 832/832
f 736/736 737/737 833/833
f 737/737 834/834 833/833
f 737/737 738/738 834/834
f 738/738 835/835 834/834
f 738/738 739/739 835/835
f 739/739 836/836 835/835
f 739/739 740/740 836/836
f 740/740 837/837 836/836
f 740/740 741/741 837/837
f 741/741 838/838 837/837
f 741/741 742/742 838/838
f 742/742 839/839 838/838
f 742/742 743/743 839/839
f 743/743 840/840 839/839
f 743/743 744/744 840/840
f 744/744 841/841 840/840
f 744/744 745/745 841/841
f 745/745 842/842 841/841
f 745/745 746/746 842/842
f 746/746 843/843 842/842
f 746/746 747/747 843/843
f 747/747 844/844 843/843
f 747/747 748/748 844/844
f 748/748 845/845 844/844
f 748/748 749/749 845/845
f 749/749 846/846 845/845
f 749/749 750/750 846/846
f 750/750 847/847 846/846
f 750/750 751/751 847/847
f 751/751 848/848 847/847
f 751/751 752/752 848/848
f 752/752 849/849 848/848
f 752/752 753/753 849/849
f 753/753 850/850 849/849
f 753/753 754/754 850/850
f 754/754 851/851 850/850
f 754/754 755/755 851/851
f 755/755 852/852 851/851
f 755/755 756/756 852/852
f 756/756 853/853 852/852
f 756/756 757/757 853/853
f 757/757 854/854 853/853
f 757/757 758/758 854/854
f 758/758 855/855 854/854
f 758/758 759/759 855/855
f 759/759 856/856 855/855
f 759/759 760/760 856/856
f 760/760 857/857 856/856
f 760/760 761/761 857/857
f 761/761 858/858 857/857
f 761/761 762/762 858/858
f 762/762 859/859 858/858
f 762/762 763/763 859/859
f 763/763 860/860 859/859
f 763/763 764/764 860/860
f 764/764 861/861 860/860
f 764/764 765/765 861/861
f 765/765 862/862 861/861
f 765/765 766/766 862/862
f 766/766 863/863 862/862
f 766/766 767/767 863/863
f 767/767 864/864 863/863
f 767/767 768/768 864/864
f 768/768 865/865 864/864
f 768/768 769/769 865/865
f 769/769 866/866 865/865
f 769/769 770/770 866/866
f 770/770 867/867 866/866
f 770/770 771/771 867/867
f 771/771 868/868 867/867
f 771/771 772/772 868/868
f 772/772 869/869 868/868
f 772/772 773/773 869/869
f 773/773 870/870 869/869
f 773/773 774/774 870/870
f 774/774 871/871 870/870
f 774/774 775/775 871/871
f 775/775 872/872 871/871
f 775/775 776/776 872/872
f 776/776 873/873 872/872
