# Centimeters; local +Z is the attack direction
v 50.000000 0.000000 0.000000
v 49.759236 4.900857 0.000000
v 49.039264 9.754516 0.000000
v 47.847017 14.514234 0.000000
v 46.193977 19.134172 0.000000
v 44.096063 23.569837 0.000000
v 41.573481 27.778512 0.000000
v 38.650523 31.719664 0.000000
v 35.355339 35.355339 0.000000
v 31.719664 38.650523 0.000000
v 27.778512 41.573481 0.000000
v 23.569837 44.096063 0.000000
v 19.134172 46.193977 0.000000
v 14.514234 47.847017 0.000000
v 9.754516 49.039264 0.000000
v 4.900857 49.759236 0.000000
v 0.000000 50.000000 0.000000
v -4.900857 49.759236 0.000000
v -9.754516 49.039264 0.000000
v -14.514234 47.847017 0.000000
v -19.134172 46.193977 0.000000
v -23.569837 44.096063 0.000000
v -27.778512 41.573481 0.000000
v -31.719664 38.650523 0.000000
v -35.355339 35.355339 0.000000
v -38.650523 31.719664 0.000000
v -41.573481 27.778512 0.000000
v -44.096063 23.569837 0.000000
v -46.193977 19.134172 0.000000
v -47.847017 14.514234 0.000000
v -49.039264 9.754516 0.000000
v -49.759236 4.900857 0.000000
v -50.000000 0.000000 0.000000
v -49.759236 -4.900857 0.000000
v -49.039264 -9.754516 0.000000
v -47.847017 -14.514234 0.000000
v -46.193977 -19.134172 0.000000
v -44.096063 -23.569837 0.000000
v -41.573481 -27.778512 0.000000
v -38.650523 -31.719664 0.000000
v -35.355339 -35.355339 0.000000
v -31.719664 -38.650523 0.000000
v -27.778512 -41.573481 0.000000
v -23.569837 -44.096063 0.000000
v -19.134172 -46.193977 0.000000
v -14.514234 -47.847017 0.000000
v -9.754516 -49.039264 0.000000
v -4.900857 -49.759236 0.000000
v -0.000000 -50.000000 0.000000
v 4.900857 -49.759236 0.000000
v 9.754516 -49.039264 0.000000
v 14.514234 -47.847017 0.000000
v 19.134172 -46.193977 0.000000
v 23.569837 -44.096063 0.000000
v 27.778512 -41.573481 0.000000
v 31.719664 -38.650523 0.000000
v 35.355339 -35.355339 0.000000
v 38.650523 -31.719664 0.000000
v 41.573481 -27.778512 0.000000
v 44.096063 -23.569837 0.000000
v 46.193977 -19.134172 0.000000
v 47.847017 -14.514234 0.000000
v 49.039264 -9.754516 0.000000
v 49.759236 -4.900857 0.000000
v 50.000000 -0.000000 0.000000
v 49.732051 0.000000 1.000000
v 49.492577 4.874593 1.000000
v 48.776463 9.702242 1.000000
v 47.590605 14.436452 1.000000
v 45.946424 19.031632 1.000000
v 43.859753 23.443526 1.000000
v 41.350689 27.629647 1.000000
v 38.443395 31.549679 1.000000
v 35.165870 35.165870 1.000000
v 31.549679 38.443395 1.000000
v 27.629647 41.350689 1.000000
v 23.443526 43.859753 1.000000
v 19.031632 45.946424 1.000000
v 14.436452 47.590605 1.000000
v 9.702242 48.776463 1.000000
v 4.874593 49.492577 1.000000
v 0.000000 49.732051 1.000000
v -4.874593 49.492577 1.000000
v -9.702242 48.776463 1.000000
v -14.436452 47.590605 1.000000
v -19.031632 45.946424 1.000000
v -23.443526 43.859753 1.000000
v -27.629647 41.350689 1.000000
v -31.549679 38.443395 1.000000
v -35.165870 35.165870 1.000000
v -38.443395 31.549679 1.000000
v -41.350689 27.629647 1.000000
v -43.859753 23.443526 1.000000
v -45.946424 19.031632 1.000000
v -47.590605 14.436452 1.000000
v -48.776463 9.702242 1.000000
v -49.492577 4.874593 1.000000
v -49.732051 0.000000 1.000000
v -49.492577 -4.874593 1.000000
v -48.776463 -9.702242 1.000000
v -47.590605 -14.436452 1.000000
v -45.946424 -19.031632 1.000000
v -43.859753 -23.443526 1.000000
v -41.350689 -27.629647 1.000000
v -38.443395 -31.549679 1.000000
v -35.165870 -35.165870 1.000000
v -31.549679 -38.443395 1.000000
v -27.629647 -41.350689 1.000000
v -23.443526 -43.859753 1.000000
v -19.031632 -45.946424 1.000000
v -14.436452 -47.590605 1.000000
v -9.702242 -48.776463 1.000000
v -4.874593 -49.492577 1.000000
v -0.000000 -49.732051 1.000000
v 4.874593 -49.492577 1.000000
v 9.702242 -48.776463 1.000000
v 14.436452 -47.590605 1.000000
v 19.031632 -45.946424 1.000000
v 23.443526 -43.859753 1.000000
v 27.629647 -41.350689 1.000000
v 31.549679 -38.443395 1.000000
v 35.165870 -35.165870 1.000000
v 38.443395 -31.549679 1.000000
v 41.350689 -27.629647 1.000000
v 43.859753 -23.443526 1.000000
v 45.946424 -19.031632 1.000000
v 47.590605 -14.436452 1.000000
v 48.776463 -9.702242 1.000000
v 49.492577 -4.874593 1.000000
v 49.732051 -0.000000 1.000000
v 49.000000 0.000000 1.732051
v 48.764052 4.802840 1.732051
v 48.058479 9.559426 1.732051
v 46.890076 14.223949 1.732051
v 45.270097 18.751488 1.732051
v 43.214142 23.098440 1.732051
v 40.742011 27.222941 1.732051
v 37.877512 31.085271 1.732051
v 34.648232 34.648232 1.732051
v 31.085271 37.877512 1.732051
v 27.222941 40.742011 1.732051
v 23.098440 43.214142 1.732051
v 18.751488 45.270097 1.732051
v 14.223949 46.890076 1.732051
v 9.559426 48.058479 1.732051
v 4.802840 48.764052 1.732051
v 0.000000 49.000000 1.732051
v -4.802840 48.764052 1.732051
v -9.559426 48.058479 1.732051
v -14.223949 46.890076 1.732051
v -18.751488 45.270097 1.732051
v -23.098440 43.214142 1.732051
v -27.222941 40.742011 1.732051
v -31.085271 37.877512 1.732051
v -34.648232 34.648232 1.732051
v -37.877512 31.085271 1.732051
v -40.742011 27.222941 1.732051
v -43.214142 23.098440 1.732051
v -45.270097 18.751488 1.732051
v -46.890076 14.223949 1.732051
v -48.058479 9.559426 1.732051
v -48.764052 4.802840 1.732051
v -49.000000 0.000000 1.732051
v -48.764052 -4.802840 1.732051
v -48.058479 -9.559426 1.732051
v -46.890076 -14.223949 1.732051
v -45.270097 -18.751488 1.732051
v -43.214142 -23.098440 1.732051
v -40.742011 -27.222941 1.732051
v -37.877512 -31.085271 1.732051
v -34.648232 -34.648232 1.732051
v -31.085271 -37.877512 1.732051
v -27.222941 -40.742011 1.732051
v -23.098440 -43.214142 1.732051
v -18.751488 -45.270097 1.732051
v -14.223949 -46.890076 1.732051
v -9.559426 -48.058479 1.732051
v -4.802840 -48.764052 1.732051
v -0.000000 -49.000000 1.732051
v 4.802840 -48.764052 1.732051
v 9.559426 -48.058479 1.732051
v 14.223949 -46.890076 1.732051
v 18.751488 -45.270097 1.732051
v 23.098440 -43.214142 1.732051
v 27.222941 -40.742011 1.732051
v 31.085271 -37.877512 1.732051
v 34.648232 -34.648232 1.732051
v 37.877512 -31.085271 1.732051
v 40.742011 -27.222941 1.732051
v 43.214142 -23.098440 1.732051
v 45.270097 -18.751488 1.732051
v 46.890076 -14.223949 1.732051
v 48.058479 -9.559426 1.732051
v 48.764052 -4.802840 1.732051
v 49.000000 -0.000000 1.732051
v 48.000000 0.000000 2.000000
v 47.768867 4.704823 2.000000
v 47.077693 9.364335 2.000000
v 45.933136 13.933665 2.000000
v 44.346218 18.368805 2.000000
v 42.332221 22.627043 2.000000
v 39.910541 26.667371 2.000000
v 37.104502 30.450878 2.000000
v 33.941125 33.941125 2.000000
v 30.450878 37.104502 2.000000
v 26.667371 39.910541 2.000000
v 22.627043 42.332221 2.000000
v 18.368805 44.346218 2.000000
v 13.933665 45.933136 2.000000
v 9.364335 47.077693 2.000000
v 4.704823 47.768867 2.000000
v 0.000000 48.000000 2.000000
v -4.704823 47.768867 2.000000
v -9.364335 47.077693 2.000000
v -13.933665 45.933136 2.000000
v -18.368805 44.346218 2.000000
v -22.627043 42.332221 2.000000
v -26.667371 39.910541 2.000000
v -30.450878 37.104502 2.000000
v -33.941125 33.941125 2.000000
v -37.104502 30.450878 2.000000
v -39.910541 26.667371 2.000000
v -42.332221 22.627043 2.000000
v -44.346218 18.368805 2.000000
v -45.933136 13.933665 2.000000
v -47.077693 9.364335 2.000000
v -47.768867 4.704823 2.000000
v -48.000000 0.000000 2.000000
v -47.768867 -4.704823 2.000000
v -47.077693 -9.364335 2.000000
v -45.933136 -13.933665 2.000000
v -44.346218 -18.368805 2.000000
v -42.332221 -22.627043 2.000000
v -39.910541 -26.667371 2.000000
v -37.104502 -30.450878 2.000000
v -33.941125 -33.941125 2.000000
v -30.450878 -37.104502 2.000000
v -26.667371 -39.910541 2.000000
v -22.627043 -42.332221 2.000000
v -18.368805 -44.346218 2.000000
v -13.933665 -45.933136 2.000000
v -9.364335 -47.077693 2.000000
v -4.704823 -47.768867 2.000000
v -0.000000 -48.000000 2.000000
v 4.704823 -47.768867 2.000000
v 9.364335 -47.077693 2.000000
v 13.933665 -45.933136 2.000000
v 18.368805 -44.346218 2.000000
v 22.627043 -42.332221 2.000000
v 26.667371 -39.910541 2.000000
v 30.450878 -37.104502 2.000000
v 33.941125 -33.941125 2.000000
v 37.104502 -30.450878 2.000000
v 39.910541 -26.667371 2.000000
v 42.332221 -22.627043 2.000000
v 44.346218 -18.368805 2.000000
v 45.933136 -13.933665 2.000000
v 47.077693 -9.364335 2.000000
v 47.768867 -4.704823 2.000000
v 48.000000 -0.000000 2.000000
v 47.000000 0.000000 1.732051
v 46.773682 4.606806 1.732051
v 46.096908 9.169245 1.732051
v 44.976196 13.643380 1.732051
v 43.422338 17.986121 1.732051
v 41.450299 22.155647 1.732051
v 39.079072 26.111801 1.732051
v 36.331491 29.816484 1.732051
v 33.234019 33.234019 1.732051
v 29.816484 36.331491 1.732051
v 26.111801 39.079072 1.732051
v 22.155647 41.450299 1.732051
v 17.986121 43.422338 1.732051
v 13.643380 44.976196 1.732051
v 9.169245 46.096908 1.732051
v 4.606806 46.773682 1.732051
v 0.000000 47.000000 1.732051
v -4.606806 46.773682 1.732051
v -9.169245 46.096908 1.732051
v -13.643380 44.976196 1.732051
v -17.986121 43.422338 1.732051
v -22.155647 41.450299 1.732051
v -26.111801 39.079072 1.732051
v -29.816484 36.331491 1.732051
v -33.234019 33.234019 1.732051
v -36.331491 29.816484 1.732051
v -39.079072 26.111801 1.732051
v -41.450299 22.155647 1.732051
v -43.422338 17.986121 1.732051
v -44.976196 13.643380 1.732051
v -46.096908 9.169245 1.732051
v -46.773682 4.606806 1.732051
v -47.000000 0.000000 1.732051
v -46.773682 -4.606806 1.732051
v -46.096908 -9.169245 1.732051
v -44.976196 -13.643380 1.732051
v -43.422338 -17.986121 1.732051
v -41.450299 -22.155647 1.732051
v -39.079072 -26.111801 1.732051
v -36.331491 -29.816484 1.732051
v -33.234019 -33.234019 1.732051
v -29.816484 -36.331491 1.732051
v -26.111801 -39.079072 1.732051
v -22.155647 -41.450299 1.732051
v -17.986121 -43.422338 1.732051
v -13.643380 -44.976196 1.732051
v -9.169245 -46.096908 1.732051
v -4.606806 -46.773682 1.732051
v -0.000000 -47.000000 1.732051
v 4.606806 -46.773682 1.732051
v 9.169245 -46.096908 1.732051
v 13.643380 -44.976196 1.732051
v 17.986121 -43.422338 1.732051
v 22.155647 -41.450299 1.732051
v 26.111801 -39.079072 1.732051
v 29.816484 -36.331491 1.732051
v 33.234019 -33.234019 1.732051
v 36.331491 -29.816484 1.732051
v 39.079072 -26.111801 1.732051
v 41.450299 -22.155647 1.732051
v 43.422338 -17.986121 1.732051
v 44.976196 -13.643380 1.732051
v 46.096908 -9.169245 1.732051
v 46.773682 -4.606806 1.732051
v 47.000000 -0.000000 1.732051
v 46.267949 0.000000 1.000000
v 46.045156 4.535052 1.000000
v 45.378924 9.026429 1.000000
v 44.275667 13.430877 1.000000
v 42.746011 17.705978 1.000000
v 40.804688 21.810560 1.000000
v 38.470394 25.705095 1.000000
v 35.765608 29.352076 1.000000
v 32.716381 32.716381 1.000000
v 29.352076 35.765608 1.000000
v 25.705095 38.470394 1.000000
v 21.810560 40.804688 1.000000
v 17.705978 42.746011 1.000000
v 13.430877 44.275667 1.000000
v 9.026429 45.378924 1.000000
v 4.535052 46.045156 1.000000
v 0.000000 46.267949 1.000000
v -4.535052 46.045156 1.000000
v -9.026429 45.378924 1.000000
v -13.430877 44.275667 1.000000
v -17.705978 42.746011 1.000000
v -21.810560 40.804688 1.000000
v -25.705095 38.470394 1.000000
v -29.352076 35.765608 1.000000
v -32.716381 32.716381 1.000000
v -35.765608 29.352076 1.000000
v -38.470394 25.705095 1.000000
v -40.804688 21.810560 1.000000
v -42.746011 17.705978 1.000000
v -44.275667 13.430877 1.000000
v -45.378924 9.026429 1.000000
v -46.045156 4.535052 1.000000
v -46.267949 0.000000 1.000000
v -46.045156 -4.535052 1.000000
v -45.378924 -9.026429 1.000000
v -44.275667 -13.430877 1.000000
v -42.746011 -17.705978 1.000000
v -40.804688 -21.810560 1.000000
v -38.470394 -25.705095 1.000000
v -35.765608 -29.352076 1.000000
v -32.716381 -32.716381 1.000000
v -29.352076 -35.765608 1.000000
v -25.705095 -38.470394 1.000000
v -21.810560 -40.804688 1.000000
v -17.705978 -42.746011 1.000000
v -13.430877 -44.275667 1.000000
v -9.026429 -45.378924 1.000000
v -4.535052 -46.045156 1.000000
v -0.000000 -46.267949 1.000000
v 4.535052 -46.045156 1.000000
v 9.026429 -45.378924 1.000000
v 13.430877 -44.275667 1.000000
v 17.705978 -42.746011 1.000000
v 21.810560 -40.804688 1.000000
v 25.705095 -38.470394 1.000000
v 29.352076 -35.765608 1.000000
v 32.716381 -32.716381 1.000000
v 35.765608 -29.352076 1.000000
v 38.470394 -25.705095 1.000000
v 40.804688 -21.810560 1.000000
v 42.746011 -17.705978 1.000000
v 44.275667 -13.430877 1.000000
v 45.378924 -9.026429 1.000000
v 46.045156 -4.535052 1.000000
v 46.267949 -0.000000 1.000000
v 46.000000 0.000000 0.000000
v 45.778497 4.508788 0.000000
v 45.116123 8.974155 0.000000
v 44.019255 13.353095 0.000000
v 42.498458 17.603438 0.000000
v 40.568378 21.684250 0.000000
v 38.247602 25.556231 0.000000
v 35.558481 29.182091 0.000000
v 32.526912 32.526912 0.000000
v 29.182091 35.558481 0.000000
v 25.556231 38.247602 0.000000
v 21.684250 40.568378 0.000000
v 17.603438 42.498458 0.000000
v 13.353095 44.019255 0.000000
v 8.974155 45.116123 0.000000
v 4.508788 45.778497 0.000000
v 0.000000 46.000000 0.000000
v -4.508788 45.778497 0.000000
v -8.974155 45.116123 0.000000
v -13.353095 44.019255 0.000000
v -17.603438 42.498458 0.000000
v -21.684250 40.568378 0.000000
v -25.556231 38.247602 0.000000
v -29.182091 35.558481 0.000000
v -32.526912 32.526912 0.000000
v -35.558481 29.182091 0.000000
v -38.247602 25.556231 0.000000
v -40.568378 21.684250 0.000000
v -42.498458 17.603438 0.000000
v -44.019255 13.353095 0.000000
v -45.116123 8.974155 0.000000
v -45.778497 4.508788 0.000000
v -46.000000 0.000000 0.000000
v -45.778497 -4.508788 0.000000
v -45.116123 -8.974155 0.000000
v -44.019255 -13.353095 0.000000
v -42.498458 -17.603438 0.000000
v -40.568378 -21.684250 0.000000
v -38.247602 -25.556231 0.000000
v -35.558481 -29.182091 0.000000
v -32.526912 -32.526912 0.000000
v -29.182091 -35.558481 0.000000
v -25.556231 -38.247602 0.000000
v -21.684250 -40.568378 0.000000
v -17.603438 -42.498458 0.000000
v -13.353095 -44.019255 0.000000
v -8.974155 -45.116123 0.000000
v -4.508788 -45.778497 0.000000
v -0.000000 -46.000000 0.000000
v 4.508788 -45.778497 0.000000
v 8.974155 -45.116123 0.000000
v 13.353095 -44.019255 0.000000
v 17.603438 -42.498458 0.000000
v 21.684250 -40.568378 0.000000
v 25.556231 -38.247602 0.000000
v 29.182091 -35.558481 0.000000
v 32.526912 -32.526912 0.000000
v 35.558481 -29.182091 0.000000
v 38.247602 -25.556231 0.000000
v 40.568378 -21.684250 0.000000
v 42.498458 -17.603438 0.000000
v 44.019255 -13.353095 0.000000
v 45.116123 -8.974155 0.000000
v 45.778497 -4.508788 0.000000
v 46.000000 -0.000000 0.000000
v 46.267949 0.000000 -1.000000
v 46.045156 4.535052 -1.000000
v 45.378924 9.026429 -1.000000
v 44.275667 13.430877 -1.000000
v 42.746011 17.705978 -1.000000
v 40.804688 21.810560 -1.000000
v 38.470394 25.705095 -1.000000
v 35.765608 29.352076 -1.000000
v 32.716381 32.716381 -1.000000
v 29.352076 35.765608 -1.000000
v 25.705095 38.470394 -1.000000
v 21.810560 40.804688 -1.000000
v 17.705978 42.746011 -1.000000
v 13.430877 44.275667 -1.000000
v 9.026429 45.378924 -1.000000
v 4.535052 46.045156 -1.000000
v 0.000000 46.267949 -1.000000
v -4.535052 46.045156 -1.000000
v -9.026429 45.378924 -1.000000
v -13.430877 44.275667 -1.000000
v -17.705978 42.746011 -1.000000
v -21.810560 40.804688 -1.000000
v -25.705095 38.470394 -1.000000
v -29.352076 35.765608 -1.000000
v -32.716381 32.716381 -1.000000
v -35.765608 29.352076 -1.000000
v -38.470394 25.705095 -1.000000
v -40.804688 21.810560 -1.000000
v -42.746011 17.705978 -1.000000
v -44.275667 13.430877 -1.000000
v -45.378924 9.026429 -1.000000
v -46.045156 4.535052 -1.000000
v -46.267949 0.000000 -1.000000
v -46.045156 -4.535052 -1.000000
v -45.378924 -9.026429 -1.000000
v -44.275667 -13.430877 -1.000000
v -42.746011 -17.705978 -1.000000
v -40.804688 -21.810560 -1.000000
v -38.470394 -25.705095 -1.000000
v -35.765608 -29.352076 -1.000000
v -32.716381 -32.716381 -1.000000
v -29.352076 -35.765608 -1.000000
v -25.705095 -38.470394 -1.000000
v -21.810560 -40.804688 -1.000000
v -17.705978 -42.746011 -1.000000
v -13.430877 -44.275667 -1.000000
v -9.026429 -45.378924 -1.000000
v -4.535052 -46.045156 -1.000000
v -0.000000 -46.267949 -1.000000
v 4.535052 -46.045156 -1.000000
v 9.026429 -45.378924 -1.000000
v 13.430877 -44.275667 -1.000000
v 17.705978 -42.746011 -1.000000
v 21.810560 -40.804688 -1.000000
v 25.705095 -38.470394 -1.000000
v 29.352076 -35.765608 -1.000000
v 32.716381 -32.716381 -1.000000
v 35.765608 -29.352076 -1.000000
v 38.470394 -25.705095 -1.000000
v 40.804688 -21.810560 -1.000000
v 42.746011 -17.705978 -1.000000
v 44.275667 -13.430877 -1.000000
v 45.378924 -9.026429 -1.000000
v 46.045156 -4.535052 -1.000000
v 46.267949 -0.000000 -1.000000
v 47.000000 0.000000 -1.732051
v 46.773682 4.606806 -1.732051
v 46.096908 9.169245 -1.732051
v 44.976196 13.643380 -1.732051
v 43.422338 17.986121 -1.732051
v 41.450299 22.155647 -1.732051
v 39.079072 26.111801 -1.732051
v 36.331491 29.816484 -1.732051
v 33.234019 33.234019 -1.732051
v 29.816484 36.331491 -1.732051
v 26.111801 39.079072 -1.732051
v 22.155647 41.450299 -1.732051
v 17.986121 43.422338 -1.732051
v 13.643380 44.976196 -1.732051
v 9.169245 46.096908 -1.732051
v 4.606806 46.773682 -1.732051
v 0.000000 47.000000 -1.732051
v -4.606806 46.773682 -1.732051
v -9.169245 46.096908 -1.732051
v -13.643380 44.976196 -1.732051
v -17.986121 43.422338 -1.732051
v -22.155647 41.450299 -1.732051
v -26.111801 39.079072 -1.732051
v -29.816484 36.331491 -1.732051
v -33.234019 33.234019 -1.732051
v -36.331491 29.816484 -1.732051
v -39.079072 26.111801 -1.732051
v -41.450299 22.155647 -1.732051
v -43.422338 17.986121 -1.732051
v -44.976196 13.643380 -1.732051
v -46.096908 9.169245 -1.732051
v -46.773682 4.606806 -1.732051
v -47.000000 0.000000 -1.732051
v -46.773682 -4.606806 -1.732051
v -46.096908 -9.169245 -1.732051
v -44.976196 -13.643380 -1.732051
v -43.422338 -17.986121 -1.732051
v -41.450299 -22.155647 -1.732051
v -39.079072 -26.111801 -1.732051
v -36.331491 -29.816484 -1.732051
v -33.234019 -33.234019 -1.732051
v -29.816484 -36.331491 -1.732051
v -26.111801 -39.079072 -1.732051
v -22.155647 -41.450299 -1.732051
v -17.986121 -43.422338 -1.732051
v -13.643380 -44.976196 -1.732051
v -9.169245 -46.096908 -1.732051
v -4.606806 -46.773682 -1.732051
v -0.000000 -47.000000 -1.732051
v 4.606806 -46.773682 -1.732051
v 9.169245 -46.096908 -1.732051
v 13.643380 -44.976196 -1.732051
v 17.986121 -43.422338 -1.732051
v 22.155647 -41.450299 -1.732051
v 26.111801 -39.079072 -1.732051
v 29.816484 -36.331491 -1.732051
v 33.234019 -33.234019 -1.732051
v 36.331491 -29.816484 -1.732051
v 39.079072 -26.111801 -1.732051
v 41.450299 -22.155647 -1.732051
v 43.422338 -17.986121 -1.732051
v 44.976196 -13.643380 -1.732051
v 46.096908 -9.169245 -1.732051
v 46.773682 -4.606806 -1.732051
v 47.000000 -0.000000 -1.732051
v 48.000000 0.000000 -2.000000
v 47.768867 4.704823 -2.000000
v 47.077693 9.364335 -2.000000
v 45.933136 13.933665 -2.000000
v 44.346218 18.368805 -2.000000
v 42.332221 22.627043 -2.000000
v 39.910541 26.667371 -2.000000
v 37.104502 30.450878 -2.000000
v 33.941125 33.941125 -2.000000
v 30.450878 37.104502 -2.000000
v 26.667371 39.910541 -2.000000
v 22.627043 42.332221 -2.000000
v 18.368805 44.346218 -2.000000
v 13.933665 45.933136 -2.000000
v 9.364335 47.077693 -2.000000
v 4.704823 47.768867 -2.000000
v 0.000000 48.000000 -2.000000
v -4.704823 47.768867 -2.000000
v -9.364335 47.077693 -2.000000
v -13.933665 45.933136 -2.000000
v -18.368805 44.346218 -2.000000
v -22.627043 42.332221 -2.000000
v -26.667371 39.910541 -2.000000
v -30.450878 37.104502 -2.000000
v -33.941125 33.941125 -2.000000
v -37.104502 30.450878 -2.000000
v -39.910541 26.667371 -2.000000
v -42.332221 22.627043 -2.000000
v -44.346218 18.368805 -2.000000
v -45.933136 13.933665 -2.000000
v -47.077693 9.364335 -2.000000
v -47.768867 4.704823 -2.000000
v -48.000000 0.000000 -2.000000
v -47.768867 -4.704823 -2.000000
v -47.077693 -9.364335 -2.000000
v -45.933136 -13.933665 -2.000000
v -44.346218 -18.368805 -2.000000
v -42.332221 -22.627043 -2.000000
v -39.910541 -26.667371 -2.000000
v -37.104502 -30.450878 -2.000000
v -33.941125 -33.941125 -2.000000
v -30.450878 -37.104502 -2.000000
v -26.667371 -39.910541 -2.000000
v -22.627043 -42.332221 -2.000000
v -18.368805 -44.346218 -2.000000
v -13.933665 -45.933136 -2.000000
v -9.364335 -47.077693 -2.000000
v -4.704823 -47.768867 -2.000000
v -0.000000 -48.000000 -2.000000
v 4.704823 -47.768867 -2.000000
v 9.364335 -47.077693 -2.000000
v 13.933665 -45.933136 -2.000000
v 18.368805 -44.346218 -2.000000
v 22.627043 -42.332221 -2.000000
v 26.667371 -39.910541 -2.000000
v 30.450878 -37.104502 -2.000000
v 33.941125 -33.941125 -2.000000
v 37.104502 -30.450878 -2.000000
v 39.910541 -26.667371 -2.000000
v 42.332221 -22.627043 -2.000000
v 44.346218 -18.368805 -2.000000
v 45.933136 -13.933665 -2.000000
v 47.077693 -9.364335 -2.000000
v 47.768867 -4.704823 -2.000000
v 48.000000 -0.000000 -2.000000
v 49.000000 0.000000 -1.732051
v 48.764052 4.802840 -1.732051
v 48.058479 9.559426 -1.732051
v 46.890076 14.223949 -1.732051
v 45.270097 18.751488 -1.732051
v 43.214142 23.098440 -1.732051
v 40.742011 27.222941 -1.732051
v 37.877512 31.085271 -1.732051
v 34.648232 34.648232 -1.732051
v 31.085271 37.877512 -1.732051
v 27.222941 40.742011 -1.732051
v 23.098440 43.214142 -1.732051
v 18.751488 45.270097 -1.732051
v 14.223949 46.890076 -1.732051
v 9.559426 48.058479 -1.732051
v 4.802840 48.764052 -1.732051
v 0.000000 49.000000 -1.732051
v -4.802840 48.764052 -1.732051
v -9.559426 48.058479 -1.732051
v -14.223949 46.890076 -1.732051
v -18.751488 45.270097 -1.732051
v -23.098440 43.214142 -1.732051
v -27.222941 40.742011 -1.732051
v -31.085271 37.877512 -1.732051
v -34.648232 34.648232 -1.732051
v -37.877512 31.085271 -1.732051
v -40.742011 27.222941 -1.732051
v -43.214142 23.098440 -1.732051
v -45.270097 18.751488 -1.732051
v -46.890076 14.223949 -1.732051
v -48.058479 9.559426 -1.732051
v -48.764052 4.802840 -1.732051
v -49.000000 0.000000 -1.732051
v -48.764052 -4.802840 -1.732051
v -48.058479 -9.559426 -1.732051
v -46.890076 -14.223949 -1.732051
v -45.270097 -18.751488 -1.732051
v -43.214142 -23.098440 -1.732051
v -40.742011 -27.222941 -1.732051
v -37.877512 -31.085271 -1.732051
v -34.648232 -34.648232 -1.732051
v -31.085271 -37.877512 -1.732051
v -27.222941 -40.742011 -1.732051
v -23.098440 -43.214142 -1.732051
v -18.751488 -45.270097 -1.732051
v -14.223949 -46.890076 -1.732051
v -9.559426 -48.058479 -1.732051
v -4.802840 -48.764052 -1.732051
v -0.000000 -49.000000 -1.732051
v 4.802840 -48.764052 -1.732051
v 9.559426 -48.058479 -1.732051
v 14.223949 -46.890076 -1.732051
v 18.751488 -45.270097 -1.732051
v 23.098440 -43.214142 -1.732051
v 27.222941 -40.742011 -1.732051
v 31.085271 -37.877512 -1.732051
v 34.648232 -34.648232 -1.732051
v 37.877512 -31.085271 -1.732051
v 40.742011 -27.222941 -1.732051
v 43.214142 -23.098440 -1.732051
v 45.270097 -18.751488 -1.732051
v 46.890076 -14.223949 -1.732051
v 48.058479 -9.559426 -1.732051
v 48.764052 -4.802840 -1.732051
v 49.000000 -0.000000 -1.732051
v 49.732051 0.000000 -1.000000
v 49.492577 4.874593 -1.000000
v 48.776463 9.702242 -1.000000
v 47.590605 14.436452 -1.000000
v 45.946424 19.031632 -1.000000
v 43.859753 23.443526 -1.000000
v 41.350689 27.629647 -1.000000
v 38.443395 31.549679 -1.000000
v 35.165870 35.165870 -1.000000
v 31.549679 38.443395 -1.000000
v 27.629647 41.350689 -1.000000
v 23.443526 43.859753 -1.000000
v 19.031632 45.946424 -1.000000
v 14.436452 47.590605 -1.000000
v 9.702242 48.776463 -1.000000
v 4.874593 49.492577 -1.000000
v 0.000000 49.732051 -1.000000
v -4.874593 49.492577 -1.000000
v -9.702242 48.776463 -1.000000
v -14.436452 47.590605 -1.000000
v -19.031632 45.946424 -1.000000
v -23.443526 43.859753 -1.000000
v -27.629647 41.350689 -1.000000
v -31.549679 38.443395 -1.000000
v -35.165870 35.165870 -1.000000
v -38.443395 31.549679 -1.000000
v -41.350689 27.629647 -1.000000
v -43.859753 23.443526 -1.000000
v -45.946424 19.031632 -1.000000
v -47.590605 14.436452 -1.000000
v -48.776463 9.702242 -1.000000
v -49.492577 4.874593 -1.000000
v -49.732051 0.000000 -1.000000
v -49.492577 -4.874593 -1.000000
v -48.776463 -9.702242 -1.000000
v -47.590605 -14.436452 -1.000000
v -45.946424 -19.031632 -1.000000
v -43.859753 -23.443526 -1.000000
v -41.350689 -27.629647 -1.000000
v -38.443395 -31.549679 -1.000000
v -35.165870 -35.165870 -1.000000
v -31.549679 -38.443395 -1.000000
v -27.629647 -41.350689 -1.000000
v -23.443526 -43.859753 -1.000000
v -19.031632 -45.946424 -1.000000
v -14.436452 -47.590605 -1.000000
v -9.702242 -48.776463 -1.000000
v -4.874593 -49.492577 -1.000000
v -0.000000 -49.732051 -1.000000
v 4.874593 -49.492577 -1.000000
v 9.702242 -48.776463 -1.000000
v 14.436452 -47.590605 -1.000000
v 19.031632 -45.946424 -1.000000
v 23.443526 -43.859753 -1.000000
v 27.629647 -41.350689 -1.000000
v 31.549679 -38.443395 -1.000000
v 35.165870 -35.165870 -1.000000
v 38.443395 -31.549679 -1.000000
v 41.350689 -27.629647 -1.000000
v 43.859753 -23.443526 -1.000000
v 45.946424 -19.031632 -1.000000
v 47.590605 -14.436452 -1.000000
v 48.776463 -9.702242 -1.000000
v 49.492577 -4.874593 -1.000000
v 49.732051 -0.000000 -1.000000
v 50.000000 0.000000 -0.000000
v 49.759236 4.900857 -0.000000
v 49.039264 9.754516 -0.000000
v 47.847017 14.514234 -0.000000
v 46.193977 19.134172 -0.000000
v 44.096063 23.569837 -0.000000
v 41.573481 27.778512 -0.000000
v 38.650523 31.719664 -0.000000
v 35.355339 35.355339 -0.000000
v 31.719664 38.650523 -0.000000
v 27.778512 41.573481 -0.000000
v 23.569837 44.096063 -0.000000
v 19.134172 46.193977 -0.000000
v 14.514234 47.847017 -0.000000
v 9.754516 49.039264 -0.000000
v 4.900857 49.759236 -0.000000
v 0.000000 50.000000 -0.000000
v -4.900857 49.759236 -0.000000
v -9.754516 49.039264 -0.000000
v -14.514234 47.847017 -0.000000
v -19.134172 46.193977 -0.000000
v -23.569837 44.096063 -0.000000
v -27.778512 41.573481 -0.000000
v -31.719664 38.650523 -0.000000
v -35.355339 35.355339 -0.000000
v -38.650523 31.719664 -0.000000
v -41.573481 27.778512 -0.000000
v -44.096063 23.569837 -0.000000
v -46.193977 19.134172 -0.000000
v -47.847017 14.514234 -0.000000
v -49.039264 9.754516 -0.000000
v -49.759236 4.900857 -0.000000
v -50.000000 0.000000 -0.000000
v -49.759236 -4.900857 -0.000000
v -49.039264 -9.754516 -0.000000
v -47.847017 -14.514234 -0.000000
v -46.193977 -19.134172 -0.000000
v -44.096063 -23.569837 -0.000000
v -41.573481 -27.778512 -0.000000
v -38.650523 -31.719664 -0.000000
v -35.355339 -35.355339 -0.000000
v -31.719664 -38.650523 -0.000000
v -27.778512 -41.573481 -0.000000
v -23.569837 -44.096063 -0.000000
v -19.134172 -46.193977 -0.000000
v -14.514234 -47.847017 -0.000000
v -9.754516 -49.039264 -0.000000
v -4.900857 -49.759236 -0.000000
v -0.000000 -50.000000 -0.000000
v 4.900857 -49.759236 -0.000000
v 9.754516 -49.039264 -0.000000
v 14.514234 -47.847017 -0.000000
v 19.134172 -46.193977 -0.000000
v 23.569837 -44.096063 -0.000000
v 27.778512 -41.573481 -0.000000
v 31.719664 -38.650523 -0.000000
v 35.355339 -35.355339 -0.000000
v 38.650523 -31.719664 -0.000000
v 41.573481 -27.778512 -0.000000
v 44.096063 -23.569837 -0.000000
v 46.193977 -19.134172 -0.000000
v 47.847017 -14.514234 -0.000000
v 49.039264 -9.754516 -0.000000
v 49.759236 -4.900857 -0.000000
v 50.000000 -0.000000 -0.000000
vt 0.000000 0.000000
vt 0.015625 0.000000
vt 0.031250 0.000000
vt 0.046875 0.000000
vt 0.062500 0.000000
vt 0.078125 0.000000
vt 0.093750 0.000000
vt 0.109375 0.000000
vt 0.125000 0.000000
vt 0.140625 0.000000
vt 0.156250 0.000000
vt 0.171875 0.000000
vt 0.187500 0.000000
vt 0.203125 0.000000
vt 0.218750 0.000000
vt 0.234375 0.000000
vt 0.250000 0.000000
vt 0.265625 0.000000
vt 0.281250 0.000000
vt 0.296875 0.000000
vt 0.312500 0.000000
vt 0.328125 0.000000
vt 0.343750 0.000000
vt 0.359375 0.000000
vt 0.375000 0.000000
vt 0.390625 0.000000
vt 0.406250 0.000000
vt 0.421875 0.000000
vt 0.437500 0.000000
vt 0.453125 0.000000
vt 0.468750 0.000000
vt 0.484375 0.000000
vt 0.500000 0.000000
vt 0.515625 0.000000
vt 0.531250 0.000000
vt 0.546875 0.000000
vt 0.562500 0.000000
vt 0.578125 0.000000
vt 0.593750 0.000000
vt 0.609375 0.000000
vt 0.625000 0.000000
vt 0.640625 0.000000
vt 0.656250 0.000000
vt 0.671875 0.000000
vt 0.687500 0.000000
vt 0.703125 0.000000
vt 0.718750 0.000000
vt 0.734375 0.000000
vt 0.750000 0.000000
vt 0.765625 0.000000
vt 0.781250 0.000000
vt 0.796875 0.000000
vt 0.812500 0.000000
vt 0.828125 0.000000
vt 0.843750 0.000000
vt 0.859375 0.000000
vt 0.875000 0.000000
vt 0.890625 0.000000
vt 0.906250 0.000000
vt 0.921875 0.000000
vt 0.937500 0.000000
vt 0.953125 0.000000
vt 0.968750 0.000000
vt 0.984375 0.000000
vt 1.000000 0.000000
vt 0.000000 0.083333
vt 0.015625 0.083333
vt 0.031250 0.083333
vt 0.046875 0.083333
vt 0.062500 0.083333
vt 0.078125 0.083333
vt 0.093750 0.083333
vt 0.109375 0.083333
vt 0.125000 0.083333
vt 0.140625 0.083333
vt 0.156250 0.083333
vt 0.171875 0.083333
vt 0.187500 0.083333
vt 0.203125 0.083333
vt 0.218750 0.083333
vt 0.234375 0.083333
vt 0.250000 0.083333
vt 0.265625 0.083333
vt 0.281250 0.083333
vt 0.296875 0.083333
vt 0.312500 0.083333
vt 0.328125 0.083333
vt 0.343750 0.083333
vt 0.359375 0.083333
vt 0.375000 0.083333
vt 0.390625 0.083333
vt 0.406250 0.083333
vt 0.421875 0.083333
vt 0.437500 0.083333
vt 0.453125 0.083333
vt 0.468750 0.083333
vt 0.484375 0.083333
vt 0.500000 0.083333
vt 0.515625 0.083333
vt 0.531250 0.083333
vt 0.546875 0.083333
vt 0.562500 0.083333
vt 0.578125 0.083333
vt 0.593750 0.083333
vt 0.609375 0.083333
vt 0.625000 0.083333
vt 0.640625 0.083333
vt 0.656250 0.083333
vt 0.671875 0.083333
vt 0.687500 0.083333
vt 0.703125 0.083333
vt 0.718750 0.083333
vt 0.734375 0.083333
vt 0.750000 0.083333
vt 0.765625 0.083333
vt 0.781250 0.083333
vt 0.796875 0.083333
vt 0.812500 0.083333
vt 0.828125 0.083333
vt 0.843750 0.083333
vt 0.859375 0.083333
vt 0.875000 0.083333
vt 0.890625 0.083333
vt 0.906250 0.083333
vt 0.921875 0.083333
vt 0.937500 0.083333
vt 0.953125 0.083333
vt 0.968750 0.083333
vt 0.984375 0.083333
vt 1.000000 0.083333
vt 0.000000 0.166667
vt 0.015625 0.166667
vt 0.031250 0.166667
vt 0.046875 0.166667
vt 0.062500 0.166667
vt 0.078125 0.166667
vt 0.093750 0.166667
vt 0.109375 0.166667
vt 0.125000 0.166667
vt 0.140625 0.166667
vt 0.156250 0.166667
vt 0.171875 0.166667
vt 0.187500 0.166667
vt 0.203125 0.166667
vt 0.218750 0.166667
vt 0.234375 0.166667
vt 0.250000 0.166667
vt 0.265625 0.166667
vt 0.281250 0.166667
vt 0.296875 0.166667
vt 0.312500 0.166667
vt 0.328125 0.166667
vt 0.343750 0.166667
vt 0.359375 0.166667
vt 0.375000 0.166667
vt 0.390625 0.166667
vt 0.406250 0.166667
vt 0.421875 0.166667
vt 0.437500 0.166667
vt 0.453125 0.166667
vt 0.468750 0.166667
vt 0.484375 0.166667
vt 0.500000 0.166667
vt 0.515625 0.166667
vt 0.531250 0.166667
vt 0.546875 0.166667
vt 0.562500 0.166667
vt 0.578125 0.166667
vt 0.593750 0.166667
vt 0.609375 0.166667
vt 0.625000 0.166667
vt 0.640625 0.166667
vt 0.656250 0.166667
vt 0.671875 0.166667
vt 0.687500 0.166667
vt 0.703125 0.166667
vt 0.718750 0.166667
vt 0.734375 0.166667
vt 0.750000 0.166667
vt 0.765625 0.166667
vt 0.781250 0.166667
vt 0.796875 0.166667
vt 0.812500 0.166667
vt 0.828125 0.166667
vt 0.843750 0.166667
vt 0.859375 0.166667
vt 0.875000 0.166667
vt 0.890625 0.166667
vt 0.906250 0.166667
vt 0.921875 0.166667
vt 0.937500 0.166667
vt 0.953125 0.166667
vt 0.968750 0.166667
vt 0.984375 0.166667
vt 1.000000 0.166667
vt 0.000000 0.250000
vt 0.015625 0.250000
vt 0.031250 0.250000
vt 0.046875 0.250000
vt 0.062500 0.250000
vt 0.078125 0.250000
vt 0.093750 0.250000
vt 0.109375 0.250000
vt 0.125000 0.250000
vt 0.140625 0.250000
vt 0.156250 0.250000
vt 0.171875 0.250000
vt 0.187500 0.250000
vt 0.203125 0.250000
vt 0.218750 0.250000
vt 0.234375 0.250000
vt 0.250000 0.250000
vt 0.265625 0.250000
vt 0.281250 0.250000
vt 0.296875 0.250000
vt 0.312500 0.250000
vt 0.328125 0.250000
vt 0.343750 0.250000
vt 0.359375 0.250000
vt 0.375000 0.250000
vt 0.390625 0.250000
vt 0.406250 0.250000
vt 0.421875 0.250000
vt 0.437500 0.250000
vt 0.453125 0.250000
vt 0.468750 0.250000
vt 0.484375 0.250000
vt 0.500000 0.250000
vt 0.515625 0.250000
vt 0.531250 0.250000
vt 0.546875 0.250000
vt 0.562500 0.250000
vt 0.578125 0.250000
vt 0.593750 0.250000
vt 0.609375 0.250000
vt 0.625000 0.250000
vt 0.640625 0.250000
vt 0.656250 0.250000
vt 0.671875 0.250000
vt 0.687500 0.250000
vt 0.703125 0.250000
vt 0.718750 0.250000
vt 0.734375 0.250000
vt 0.750000 0.250000
vt 0.765625 0.250000
vt 0.781250 0.250000
vt 0.796875 0.250000
vt 0.812500 0.250000
vt 0.828125 0.250000
vt 0.843750 0.250000
vt 0.859375 0.250000
vt 0.875000 0.250000
vt 0.890625 0.250000
vt 0.906250 0.250000
vt 0.921875 0.250000
vt 0.937500 0.250000
vt 0.953125 0.250000
vt 0.968750 0.250000
vt 0.984375 0.250000
vt 1.000000 0.250000
vt 0.000000 0.333333
vt 0.015625 0.333333
vt 0.031250 0.333333
vt 0.046875 0.333333
vt 0.062500 0.333333
vt 0.078125 0.333333
vt 0.093750 0.333333
vt 0.109375 0.333333
vt 0.125000 0.333333
vt 0.140625 0.333333
vt 0.156250 0.333333
vt 0.171875 0.333333
vt 0.187500 0.333333
vt 0.203125 0.333333
vt 0.218750 0.333333
vt 0.234375 0.333333
vt 0.250000 0.333333
vt 0.265625 0.333333
vt 0.281250 0.333333
vt 0.296875 0.333333
vt 0.312500 0.333333
vt 0.328125 0.333333
vt 0.343750 0.333333
vt 0.359375 0.333333
vt 0.375000 0.333333
vt 0.390625 0.333333
vt 0.406250 0.333333
vt 0.421875 0.333333
vt 0.437500 0.333333
vt 0.453125 0.333333
vt 0.468750 0.333333
vt 0.484375 0.333333
vt 0.500000 0.333333
vt 0.515625 0.333333
vt 0.531250 0.333333
vt 0.546875 0.333333
vt 0.562500 0.333333
vt 0.578125 0.333333
vt 0.593750 0.333333
vt 0.609375 0.333333
vt 0.625000 0.333333
vt 0.640625 0.333333
vt 0.656250 0.333333
vt 0.671875 0.333333
vt 0.687500 0.333333
vt 0.703125 0.333333
vt 0.718750 0.333333
vt 0.734375 0.333333
vt 0.750000 0.333333
vt 0.765625 0.333333
vt 0.781250 0.333333
vt 0.796875 0.333333
vt 0.812500 0.333333
vt 0.828125 0.333333
vt 0.843750 0.333333
vt 0.859375 0.333333
vt 0.875000 0.333333
vt 0.890625 0.333333
vt 0.906250 0.333333
vt 0.921875 0.333333
vt 0.937500 0.333333
vt 0.953125 0.333333
vt 0.968750 0.333333
vt 0.984375 0.333333
vt 1.000000 0.333333
vt 0.000000 0.416667
vt 0.015625 0.416667
vt 0.031250 0.416667
vt 0.046875 0.416667
vt 0.062500 0.416667
vt 0.078125 0.416667
vt 0.093750 0.416667
vt 0.109375 0.416667
vt 0.125000 0.416667
vt 0.140625 0.416667
vt 0.156250 0.416667
vt 0.171875 0.416667
vt 0.187500 0.416667
vt 0.203125 0.416667
vt 0.218750 0.416667
vt 0.234375 0.416667
vt 0.250000 0.416667
vt 0.265625 0.416667
vt 0.281250 0.416667
vt 0.296875 0.416667
vt 0.312500 0.416667
vt 0.328125 0.416667
vt 0.343750 0.416667
vt 0.359375 0.416667
vt 0.375000 0.416667
vt 0.390625 0.416667
vt 0.406250 0.416667
vt 0.421875 0.416667
vt 0.437500 0.416667
vt 0.453125 0.416667
vt 0.468750 0.416667
vt 0.484375 0.416667
vt 0.500000 0.416667
vt 0.515625 0.416667
vt 0.531250 0.416667
vt 0.546875 0.416667
vt 0.562500 0.416667
vt 0.578125 0.416667
vt 0.593750 0.416667
vt 0.609375 0.416667
vt 0.625000 0.416667
vt 0.640625 0.416667
vt 0.656250 0.416667
vt 0.671875 0.416667
vt 0.687500 0.416667
vt 0.703125 0.416667
vt 0.718750 0.416667
vt 0.734375 0.416667
vt 0.750000 0.416667
vt 0.765625 0.416667
vt 0.781250 0.416667
vt 0.796875 0.416667
vt 0.812500 0.416667
vt 0.828125 0.416667
vt 0.843750 0.416667
vt 0.859375 0.416667
vt 0.875000 0.416667
vt 0.890625 0.416667
vt 0.906250 0.416667
vt 0.921875 0.416667
vt 0.937500 0.416667
vt 0.953125 0.416667
vt 0.968750 0.416667
vt 0.984375 0.416667
vt 1.000000 0.416667
vt 0.000000 0.500000
vt 0.015625 0.500000
vt 0.031250 0.500000
vt 0.046875 0.500000
vt 0.062500 0.500000
vt 0.078125 0.500000
vt 0.093750 0.500000
vt 0.109375 0.500000
vt 0.125000 0.500000
vt 0.140625 0.500000
vt 0.156250 0.500000
vt 0.171875 0.500000
vt 0.187500 0.500000
vt 0.203125 0.500000
vt 0.218750 0.500000
vt 0.234375 0.500000
vt 0.250000 0.500000
vt 0.265625 0.500000
vt 0.281250 0.500000
vt 0.296875 0.500000
vt 0.312500 0.500000
vt 0.328125 0.500000
vt 0.343750 0.500000
vt 0.359375 0.500000
vt 0.375000 0.500000
vt 0.390625 0.500000
vt 0.406250 0.500000
vt 0.421875 0.500000
vt 0.437500 0.500000
vt 0.453125 0.500000
vt 0.468750 0.500000
vt 0.484375 0.500000
vt 0.500000 0.500000
vt 0.515625 0.500000
vt 0.531250 0.500000
vt 0.546875 0.500000
vt 0.562500 0.500000
vt 0.578125 0.500000
vt 0.593750 0.500000
vt 0.609375 0.500000
vt 0.625000 0.500000
vt 0.640625 0.500000
vt 0.656250 0.500000
vt 0.671875 0.500000
vt 0.687500 0.500000
vt 0.703125 0.500000
vt 0.718750 0.500000
vt 0.734375 0.500000
vt 0.750000 0.500000
vt 0.765625 0.500000
vt 0.781250 0.500000
vt 0.796875 0.500000
vt 0.812500 0.500000
vt 0.828125 0.500000
vt 0.843750 0.500000
vt 0.859375 0.500000
vt 0.875000 0.500000
vt 0.890625 0.500000
vt 0.906250 0.500000
vt 0.921875 0.500000
vt 0.937500 0.500000
vt 0.953125 0.500000
vt 0.968750 0.500000
vt 0.984375 0.500000
vt 1.000000 0.500000
vt 0.000000 0.583333
vt 0.015625 0.583333
vt 0.031250 0.583333
vt 0.046875 0.583333
vt 0.062500 0.583333
vt 0.078125 0.583333
vt 0.093750 0.583333
vt 0.109375 0.583333
vt 0.125000 0.583333
vt 0.140625 0.583333
vt 0.156250 0.583333
vt 0.171875 0.583333
vt 0.187500 0.583333
vt 0.203125 0.583333
vt 0.218750 0.583333
vt 0.234375 0.583333
vt 0.250000 0.583333
vt 0.265625 0.583333
vt 0.281250 0.583333
vt 0.296875 0.583333
vt 0.312500 0.583333
vt 0.328125 0.583333
vt 0.343750 0.583333
vt 0.359375 0.583333
vt 0.375000 0.583333
vt 0.390625 0.583333
vt 0.406250 0.583333
vt 0.421875 0.583333
vt 0.437500 0.583333
vt 0.453125 0.583333
vt 0.468750 0.583333
vt 0.484375 0.583333
vt 0.500000 0.583333
vt 0.515625 0.583333
vt 0.531250 0.583333
vt 0.546875 0.583333
vt 0.562500 0.583333
vt 0.578125 0.583333
vt 0.593750 0.583333
vt 0.609375 0.583333
vt 0.625000 0.583333
vt 0.640625 0.583333
vt 0.656250 0.583333
vt 0.671875 0.583333
vt 0.687500 0.583333
vt 0.703125 0.583333
vt 0.718750 0.583333
vt 0.734375 0.583333
vt 0.750000 0.583333
vt 0.765625 0.583333
vt 0.781250 0.583333
vt 0.796875 0.583333
vt 0.812500 0.583333
vt 0.828125 0.583333
vt 0.843750 0.583333
vt 0.859375 0.583333
vt 0.875000 0.583333
vt 0.890625 0.583333
vt 0.906250 0.583333
vt 0.921875 0.583333
vt 0.937500 0.583333
vt 0.953125 0.583333
vt 0.968750 0.583333
vt 0.984375 0.583333
vt 1.000000 0.583333
vt 0.000000 0.666667
vt 0.015625 0.666667
vt 0.031250 0.666667
vt 0.046875 0.666667
vt 0.062500 0.666667
vt 0.078125 0.666667
vt 0.093750 0.666667
vt 0.109375 0.666667
vt 0.125000 0.666667
vt 0.140625 0.666667
vt 0.156250 0.666667
vt 0.171875 0.666667
vt 0.187500 0.666667
vt 0.203125 0.666667
vt 0.218750 0.666667
vt 0.234375 0.666667
vt 0.250000 0.666667
vt 0.265625 0.666667
vt 0.281250 0.666667
vt 0.296875 0.666667
vt 0.312500 0.666667
vt 0.328125 0.666667
vt 0.343750 0.666667
vt 0.359375 0.666667
vt 0.375000 0.666667
vt 0.390625 0.666667
vt 0.406250 0.666667
vt 0.421875 0.666667
vt 0.437500 0.666667
vt 0.453125 0.666667
vt 0.468750 0.666667
vt 0.484375 0.666667
vt 0.500000 0.666667
vt 0.515625 0.666667
vt 0.531250 0.666667
vt 0.546875 0.666667
vt 0.562500 0.666667
vt 0.578125 0.666667
vt 0.593750 0.666667
vt 0.609375 0.666667
vt 0.625000 0.666667
vt 0.640625 0.666667
vt 0.656250 0.666667
vt 0.671875 0.666667
vt 0.687500 0.666667
vt 0.703125 0.666667
vt 0.718750 0.666667
vt 0.734375 0.666667
vt 0.750000 0.666667
vt 0.765625 0.666667
vt 0.781250 0.666667
vt 0.796875 0.666667
vt 0.812500 0.666667
vt 0.828125 0.666667
vt 0.843750 0.666667
vt 0.859375 0.666667
vt 0.875000 0.666667
vt 0.890625 0.666667
vt 0.906250 0.666667
vt 0.921875 0.666667
vt 0.937500 0.666667
vt 0.953125 0.666667
vt 0.968750 0.666667
vt 0.984375 0.666667
vt 1.000000 0.666667
vt 0.000000 0.750000
vt 0.015625 0.750000
vt 0.031250 0.750000
vt 0.046875 0.750000
vt 0.062500 0.750000
vt 0.078125 0.750000
vt 0.093750 0.750000
vt 0.109375 0.750000
vt 0.125000 0.750000
vt 0.140625 0.750000
vt 0.156250 0.750000
vt 0.171875 0.750000
vt 0.187500 0.750000
vt 0.203125 0.750000
vt 0.218750 0.750000
vt 0.234375 0.750000
vt 0.250000 0.750000
vt 0.265625 0.750000
vt 0.281250 0.750000
vt 0.296875 0.750000
vt 0.312500 0.750000
vt 0.328125 0.750000
vt 0.343750 0.750000
vt 0.359375 0.750000
vt 0.375000 0.750000
vt 0.390625 0.750000
vt 0.406250 0.750000
vt 0.421875 0.750000
vt 0.437500 0.750000
vt 0.453125 0.750000
vt 0.468750 0.750000
vt 0.484375 0.750000
vt 0.500000 0.750000
vt 0.515625 0.750000
vt 0.531250 0.750000
vt 0.546875 0.750000
vt 0.562500 0.750000
vt 0.578125 0.750000
vt 0.593750 0.750000
vt 0.609375 0.750000
vt 0.625000 0.750000
vt 0.640625 0.750000
vt 0.656250 0.750000
vt 0.671875 0.750000
vt 0.687500 0.750000
vt 0.703125 0.750000
vt 0.718750 0.750000
vt 0.734375 0.750000
vt 0.750000 0.750000
vt 0.765625 0.750000
vt 0.781250 0.750000
vt 0.796875 0.750000
vt 0.812500 0.750000
vt 0.828125 0.750000
vt 0.843750 0.750000
vt 0.859375 0.750000
vt 0.875000 0.750000
vt 0.890625 0.750000
vt 0.906250 0.750000
vt 0.921875 0.750000
vt 0.937500 0.750000
vt 0.953125 0.750000
vt 0.968750 0.750000
vt 0.984375 0.750000
vt 1.000000 0.750000
vt 0.000000 0.833333
vt 0.015625 0.833333
vt 0.031250 0.833333
vt 0.046875 0.833333
vt 0.062500 0.833333
vt 0.078125 0.833333
vt 0.093750 0.833333
vt 0.109375 0.833333
vt 0.125000 0.833333
vt 0.140625 0.833333
vt 0.156250 0.833333
vt 0.171875 0.833333
vt 0.187500 0.833333
vt 0.203125 0.833333
vt 0.218750 0.833333
vt 0.234375 0.833333
vt 0.250000 0.833333
vt 0.265625 0.833333
vt 0.281250 0.833333
vt 0.296875 0.833333
vt 0.312500 0.833333
vt 0.328125 0.833333
vt 0.343750 0.833333
vt 0.359375 0.833333
vt 0.375000 0.833333
vt 0.390625 0.833333
vt 0.406250 0.833333
vt 0.421875 0.833333
vt 0.437500 0.833333
vt 0.453125 0.833333
vt 0.468750 0.833333
vt 0.484375 0.833333
vt 0.500000 0.833333
vt 0.515625 0.833333
vt 0.531250 0.833333
vt 0.546875 0.833333
vt 0.562500 0.833333
vt 0.578125 0.833333
vt 0.593750 0.833333
vt 0.609375 0.833333
vt 0.625000 0.833333
vt 0.640625 0.833333
vt 0.656250 0.833333
vt 0.671875 0.833333
vt 0.687500 0.833333
vt 0.703125 0.833333
vt 0.718750 0.833333
vt 0.734375 0.833333
vt 0.750000 0.833333
vt 0.765625 0.833333
vt 0.781250 0.833333
vt 0.796875 0.833333
vt 0.812500 0.833333
vt 0.828125 0.833333
vt 0.843750 0.833333
vt 0.859375 0.833333
vt 0.875000 0.833333
vt 0.890625 0.833333
vt 0.906250 0.833333
vt 0.921875 0.833333
vt 0.937500 0.833333
vt 0.953125 0.833333
vt 0.968750 0.833333
vt 0.984375 0.833333
vt 1.000000 0.833333
vt 0.000000 0.916667
vt 0.015625 0.916667
vt 0.031250 0.916667
vt 0.046875 0.916667
vt 0.062500 0.916667
vt 0.078125 0.916667
vt 0.093750 0.916667
vt 0.109375 0.916667
vt 0.125000 0.916667
vt 0.140625 0.916667
vt 0.156250 0.916667
vt 0.171875 0.916667
vt 0.187500 0.916667
vt 0.203125 0.916667
vt 0.218750 0.916667
vt 0.234375 0.916667
vt 0.250000 0.916667
vt 0.265625 0.916667
vt 0.281250 0.916667
vt 0.296875 0.916667
vt 0.312500 0.916667
vt 0.328125 0.916667
vt 0.343750 0.916667
vt 0.359375 0.916667
vt 0.375000 0.916667
vt 0.390625 0.916667
vt 0.406250 0.916667
vt 0.421875 0.916667
vt 0.437500 0.916667
vt 0.453125 0.916667
vt 0.468750 0.916667
vt 0.484375 0.916667
vt 0.500000 0.916667
vt 0.515625 0.916667
vt 0.531250 0.916667
vt 0.546875 0.916667
vt 0.562500 0.916667
vt 0.578125 0.916667
vt 0.593750 0.916667
vt 0.609375 0.916667
vt 0.625000 0.916667
vt 0.640625 0.916667
vt 0.656250 0.916667
vt 0.671875 0.916667
vt 0.687500 0.916667
vt 0.703125 0.916667
vt 0.718750 0.916667
vt 0.734375 0.916667
vt 0.750000 0.916667
vt 0.765625 0.916667
vt 0.781250 0.916667
vt 0.796875 0.916667
vt 0.812500 0.916667
vt 0.828125 0.916667
vt 0.843750 0.916667
vt 0.859375 0.916667
vt 0.875000 0.916667
vt 0.890625 0.916667
vt 0.906250 0.916667
vt 0.921875 0.916667
vt 0.937500 0.916667
vt 0.953125 0.916667
vt 0.968750 0.916667
vt 0.984375 0.916667
vt 1.000000 0.916667
vt 0.000000 1.000000
vt 0.015625 1.000000
vt 0.031250 1.000000
vt 0.046875 1.000000
vt 0.062500 1.000000
vt 0.078125 1.000000
vt 0.093750 1.000000
vt 0.109375 1.000000
vt 0.125000 1.000000
vt 0.140625 1.000000
vt 0.156250 1.000000
vt 0.171875 1.000000
vt 0.187500 1.000000
vt 0.203125 1.000000
vt 0.218750 1.000000
vt 0.234375 1.000000
vt 0.250000 1.000000
vt 0.265625 1.000000
vt 0.281250 1.000000
vt 0.296875 1.000000
vt 0.312500 1.000000
vt 0.328125 1.000000
vt 0.343750 1.000000
vt 0.359375 1.000000
vt 0.375000 1.000000
vt 0.390625 1.000000
vt 0.406250 1.000000
vt 0.421875 1.000000
vt 0.437500 1.000000
vt 0.453125 1.000000
vt 0.468750 1.000000
vt 0.484375 1.000000
vt 0.500000 1.000000
vt 0.515625 1.000000
vt 0.531250 1.000000
vt 0.546875 1.000000
vt 0.562500 1.000000
vt 0.578125 1.000000
vt 0.593750 1.000000
vt 0.609375 1.000000
vt 0.625000 1.000000
vt 0.640625 1.000000
vt 0.656250 1.000000
vt 0.671875 1.000000
vt 0.687500 1.000000
vt 0.703125 1.000000
vt 0.718750 1.000000
vt 0.734375 1.000000
vt 0.750000 1.000000
vt 0.765625 1.000000
vt 0.781250 1.000000
vt 0.796875 1.000000
vt 0.812500 1.000000
vt 0.828125 1.000000
vt 0.843750 1.000000
vt 0.859375 1.000000
vt 0.875000 1.000000
vt 0.890625 1.000000
vt 0.906250 1.000000
vt 0.921875 1.000000
vt 0.937500 1.000000
vt 0.953125 1.000000
vt 0.968750 1.000000
vt 0.984375 1.000000
vt 1.000000 1.000000
f 1/1 2/2 66/66
f 2/2 67/67 66/66
f 2/2 3/3 67/67
f 3/3 68/68 67/67
f 3/3 4/4 68/68
f 4/4 69/69 68/68
f 4/4 5/5 69/69
f 5/5 70/70 69/69
f 5/5 6/6 70/70
f 6/6 71/71 70/70
f 6/6 7/7 71/71
f 7/7 72/72 71/71
f 7/7 8/8 72/72
f 8/8 73/73 72/72
f 8/8 9/9 73/73
f 9/9 74/74 73/73
f 9/9 10/10 74/74
f 10/10 75/75 74/74
f 10/10 11/11 75/75
f 11/11 76/76 75/75
f 11/11 12/12 76/76
f 12/12 77/77 76/76
f 12/12 13/13 77/77
f 13/13 78/78 77/77
f 13/13 14/14 78/78
f 14/14 79/79 78/78
f 14/14 15/15 79/79
f 15/15 80/80 79/79
f 15/15 16/16 80/80
f 16/16 81/81 80/80
f 16/16 17/17 81/81
f 17/17 82/82 81/81
f 17/17 18/18 82/82
f 18/18 83/83 82/82
f 18/18 19/19 83/83
f 19/19 84/84 83/83
f 19/19 20/20 84/84
f 20/20 85/85 84/84
f 20/20 21/21 85/85
f 21/21 86/86 85/85
f 21/21 22/22 86/86
f 22/22 87/87 86/86
f 22/22 23/23 87/87
f 23/23 88/88 87/87
f 23/23 24/24 88/88
f 24/24 89/89 88/88
f 24/24 25/25 89/89
f 25/25 90/90 89/89
f 25/25 26/26 90/90
f 26/26 91/91 90/90
f 26/26 27/27 91/91
f 27/27 92/92 91/91
f 27/27 28/28 92/92
f 28/28 93/93 92/92
f 28/28 29/29 93/93
f 29/29 94/94 93/93
f 29/29 30/30 94/94
f 30/30 95/95 94/94
f 30/30 31/31 95/95
f 31/31 96/96 95/95
f 31/31 32/32 96/96
f 32/32 97/97 96/96
f 32/32 33/33 97/97
f 33/33 98/98 97/97
f 33/33 34/34 98/98
f 34/34 99/99 98/98
f 34/34 35/35 99/99
f 35/35 100/100 99/99
f 35/35 36/36 100/100
f 36/36 101/101 100/100
f 36/36 37/37 101/101
f 37/37 102/102 101/101
f 37/37 38/38 102/102
f 38/38 103/103 102/102
f 38/38 39/39 103/103
f 39/39 104/104 103/103
f 39/39 40/40 104/104
f 40/40 105/105 104/104
f 40/40 41/41 105/105
f 41/41 106/106 105/105
f 41/41 42/42 106/106
f 42/42 107/107 106/106
f 42/42 43/43 107/107
f 43/43 108/108 107/107
f 43/43 44/44 108/108
f 44/44 109/109 108/108
f 44/44 45/45 109/109
f 45/45 110/110 109/109
f 45/45 46/46 110/110
f 46/46 111/111 110/110
f 46/46 47/47 111/111
f 47/47 112/112 111/111
f 47/47 48/48 112/112
f 48/48 113/113 112/112
f 48/48 49/49 113/113
f 49/49 114/114 113/113
f 49/49 50/50 114/114
f 50/50 115/115 114/114
f 50/50 51/51 115/115
f 51/51 116/116 115/115
f 51/51 52/52 116/116
f 52/52 117/117 116/116
f 52/52 53/53 117/117
f 53/53 118/118 117/117
f 53/53 54/54 118/118
f 54/54 119/119 118/118
f 54/54 55/55 119/119
f 55/55 120/120 119/119
f 55/55 56/56 120/120
f 56/56 121/121 120/120
f 56/56 57/57 121/121
f 57/57 122/122 121/121
f 57/57 58/58 122/122
f 58/58 123/123 122/122
f 58/58 59/59 123/123
f 59/59 124/124 123/123
f 59/59 60/60 124/124
f 60/60 125/125 124/124
f 60/60 61/61 125/125
f 61/61 126/126 125/125
f 61/61 62/62 126/126
f 62/62 127/127 126/126
f 62/62 63/63 127/127
f 63/63 128/128 127/127
f 63/63 64/64 128/128
f 64/64 129/129 128/128
f 64/64 65/65 129/129
f 65/65 130/130 129/129
f 66/66 67/67 131/131
f 67/67 132/132 131/131
f 67/67 68/68 132/132
f 68/68 133/133 132/132
f 68/68 69/69 133/133
f 69/69 134/134 133/133
f 69/69 70/70 134/134
f 70/70 135/135 134/134
f 70/70 71/71 135/135
f 71/71 136/136 135/135
f 71/71 72/72 136/136
f 72/72 137/137 136/136
f 72/72 73/73 137/137
f 73/73 138/138 137/137
f 73/73 74/74 138/138
f 74/74 139/139 138/138
f 74/74 75/75 139/139
f 75/75 140/140 139/139
f 75/75 76/76 140/140
f 76/76 141/141 140/140
f 76/76 77/77 141/141
f 77/77 142/142 141/141
f 77/77 78/78 142/142
f 78/78 143/143 142/142
f 78/78 79/79 143/143
f 79/79 144/144 143/143
f 79/79 80/80 144/144
f 80/80 145/145 144/144
f 80/80 81/81 145/145
f 81/81 146/146 145/145
f 81/81 82/82 146/146
f 82/82 147/147 146/146
f 82/82 83/83 147/147
f 83/83 148/148 147/147
f 83/83 84/84 148/148
f 84/84 149/149 148/148
f 84/84 85/85 149/149
f 85/85 150/150 149/149
f 85/85 86/86 150/150
f 86/86 151/151 150/150
f 86/86 87/87 151/151
f 87/87 152/152 151/151
f 87/87 88/88 152/152
f 88/88 153/153 152/152
f 88/88 89/89 153/153
f 89/89 154/154 153/153
f 89/89 90/90 154/154
f 90/90 155/155 154/154
f 90/90 91/91 155/155
f 91/91 156/156 155/155
f 91/91 92/92 156/156
f 92/92 157/157 156/156
f 92/92 93/93 157/157
f 93/93 158/158 157/157
f 93/93 94/94 158/158
f 94/94 159/159 158/158
f 94/94 95/95 159/159
f 95/95 160/160 159/159
f 95/95 96/96 160/160
f 96/96 161/161 160/160
f 96/96 97/97 161/161
f 97/97 162/162 161/161
f 97/97 98/98 162/162
f 98/98 163/163 162/162
f 98/98 99/99 163/163
f 99/99 164/164 163/163
f 99/99 100/100 164/164
f 100/100 165/165 164/164
f 100/100 101/101 165/165
f 101/101 166/166 165/165
f 101/101 102/102 166/166
f 102/102 167/167 166/166
f 102/102 103/103 167/167
f 103/103 168/168 167/167
f 103/103 104/104 168/168
f 104/104 169/169 168/168
f 104/104 105/105 169/169
f 105/105 170/170 169/169
f 105/105 106/106 170/170
f 106/106 171/171 170/170
f 106/106 107/107 171/171
f 107/107 172/172 171/171
f 107/107 108/108 172/172
f 108/108 173/173 172/172
f 108/108 109/109 173/173
f 109/109 174/174 173/173
f 109/109 110/110 174/174
f 110/110 175/175 174/174
f 110/110 111/111 175/175
f 111/111 176/176 175/175
f 111/111 112/112 176/176
f 112/112 177/177 176/176
f 112/112 113/113 177/177
f 113/113 178/178 177/177
f 113/113 114/114 178/178
f 114/114 179/179 178/178
f 114/114 115/115 179/179
f 115/115 180/180 179/179
f 115/115 116/116 180/180
f 116/116 181/181 180/180
f 116/116 117/117 181/181
f 117/117 182/182 181/181
f 117/117 118/118 182/182
f 118/118 183/183 182/182
f 118/118 119/119 183/183
f 119/119 184/184 183/183
f 119/119 120/120 184/184
f 120/120 185/185 184/184
f 120/120 121/121 185/185
f 121/121 186/186 185/185
f 121/121 122/122 186/186
f 122/122 187/187 186/186
f 122/122 123/123 187/187
f 123/123 188/188 187/187
f 123/123 124/124 188/188
f 124/124 189/189 188/188
f 124/124 125/125 189/189
f 125/125 190/190 189/189
f 125/125 126/126 190/190
f 126/126 191/191 190/190
f 126/126 127/127 191/191
f 127/127 192/192 191/191
f 127/127 128/128 192/192
f 128/128 193/193 192/192
f 128/128 129/129 193/193
f 129/129 194/194 193/193
f 129/129 130/130 194/194
f 130/130 195/195 194/194
f 131/131 132/132 196/196
f 132/132 197/197 196/196
f 132/132 133/133 197/197
f 133/133 198/198 197/197
f 133/133 134/134 198/198
f 134/134 199/199 198/198
f 134/134 135/135 199/199
f 135/135 200/200 199/199
f 135/135 136/136 200/200
f 136/136 201/201 200/200
f 136/136 137/137 201/201
f 137/137 202/202 201/201
f 137/137 138/138 202/202
f 138/138 203/203 202/202
f 138/138 139/139 203/203
f 139/139 204/204 203/203
f 139/139 140/140 204/204
f 140/140 205/205 204/204
f 140/140 141/141 205/205
f 141/141 206/206 205/205
f 141/141 142/142 206/206
f 142/142 207/207 206/206
f 142/142 143/143 207/207
f 143/143 208/208 207/207
f 143/143 144/144 208/208
f 144/144 209/209 208/208
f 144/144 145/145 209/209
f 145/145 210/210 209/209
f 145/145 146/146 210/210
f 146/146 211/211 210/210
f 146/146 147/147 211/211
f 147/147 212/212 211/211
f 147/147 148/148 212/212
f 148/148 213/213 212/212
f 148/148 149/149 213/213
f 149/149 214/214 213/213
f 149/149 150/150 214/214
f 150/150 215/215 214/214
f 150/150 151/151 215/215
f 151/151 216/216 215/215
f 151/151 152/152 216/216
f 152/152 217/217 216/216
f 152/152 153/153 217/217
f 153/153 218/218 217/217
f 153/153 154/154 218/218
f 154/154 219/219 218/218
f 154/154 155/155 219/219
f 155/155 220/220 219/219
f 155/155 156/156 220/220
f 156/156 221/221 220/220
f 156/156 157/157 221/221
f 157/157 222/222 221/221
f 157/157 158/158 222/222
f 158/158 223/223 222/222
f 158/158 159/159 223/223
f 159/159 224/224 223/223
f 159/159 160/160 224/224
f 160/160 225/225 224/224
f 160/160 161/161 225/225
f 161/161 226/226 225/225
f 161/161 162/162 226/226
f 162/162 227/227 226/226
f 162/162 163/163 227/227
f 163/163 228/228 227/227
f 163/163 164/164 228/228
f 164/164 229/229 228/228
f 164/164 165/165 229/229
f 165/165 230/230 229/229
f 165/165 166/166 230/230
f 166/166 231/231 230/230
f 166/166 167/167 231/231
f 167/167 232/232 231/231
f 167/167 168/168 232/232
f 168/168 233/233 232/232
f 168/168 169/169 233/233
f 169/169 234/234 233/233
f 169/169 170/170 234/234
f 170/170 235/235 234/234
f 170/170 171/171 235/235
f 171/171 236/236 235/235
f 171/171 172/172 236/236
f 172/172 237/237 236/236
f 172/172 173/173 237/237
f 173/173 238/238 237/237
f 173/173 174/174 238/238
f 174/174 239/239 238/238
f 174/174 175/175 239/239
f 175/175 240/240 239/239
f 175/175 176/176 240/240
f 176/176 241/241 240/240
f 176/176 177/177 241/241
f 177/177 242/242 241/241
f 177/177 178/178 242/242
f 178/178 243/243 242/242
f 178/178 179/179 243/243
f 179/179 244/244 243/243
f 179/179 180/180 244/244
f 180/180 245/245 244/244
f 180/180 181/181 245/245
f 181/181 246/246 245/245
f 181/181 182/182 246/246
f 182/182 247/247 246/246
f 182/182 183/183 247/247
f 183/183 248/248 247/247
f 183/183 184/184 248/248
f 184/184 249/249 248/248
f 184/184 185/185 249/249
f 185/185 250/250 249/249
f 185/185 186/186 250/250
f 186/186 251/251 250/250
f 186/186 187/187 251/251
f 187/187 252/252 251/251
f 187/187 188/188 252/252
f 188/188 253/253 252/252
f 188/188 189/189 253/253
f 189/189 254/254 253/253
f 189/189 190/190 254/254
f 190/190 255/255 254/254
f 190/190 191/191 255/255
f 191/191 256/256 255/255
f 191/191 192/192 256/256
f 192/192 257/257 256/256
f 192/192 193/193 257/257
f 193/193 258/258 257/257
f 193/193 194/194 258/258
f 194/194 259/259 258/258
f 194/194 195/195 259/259
f 195/195 260/260 259/259
f 196/196 197/197 261/261
f 197/197 262/262 261/261
f 197/197 198/198 262/262
f 198/198 263/263 262/262
f 198/198 199/199 263/263
f 199/199 264/264 263/263
f 199/199 200/200 264/264
f 200/200 265/265 264/264
f 200/200 201/201 265/265
f 201/201 266/266 265/265
f 201/201 202/202 266/266
f 202/202 267/267 266/266
f 202/202 203/203 267/267
f 203/203 268/268 267/267
f 203/203 204/204 268/268
f 204/204 269/269 268/268
f 204/204 205/205 269/269
f 205/205 270/270 269/269
f 205/205 206/206 270/270
f 206/206 271/271 270/270
f 206/206 207/207 271/271
f 207/207 272/272 271/271
f 207/207 208/208 272/272
f 208/208 273/273 272/272
f 208/208 209/209 273/273
f 209/209 274/274 273/273
f 209/209 210/210 274/274
f 210/210 275/275 274/274
f 210/210 211/211 275/275
f 211/211 276/276 275/275
f 211/211 212/212 276/276
f 212/212 277/277 276/276
f 212/212 213/213 277/277
f 213/213 278/278 277/277
f 213/213 214/214 278/278
f 214/214 279/279 278/278
f 214/214 215/215 279/279
f 215/215 280/280 279/279
f 215/215 216/216 280/280
f 216/216 281/281 280/280
f 216/216 217/217 281/281
f 217/217 282/282 281/281
f 217/217 218/218 282/282
f 218/218 283/283 282/282
f 218/218 219/219 283/283
f 219/219 284/284 283/283
f 219/219 220/220 284/284
f 220/220 285/285 284/284
f 220/220 221/221 285/285
f 221/221 286/286 285/285
f 221/221 222/222 286/286
f 222/222 287/287 286/286
f 222/222 223/223 287/287
f 223/223 288/288 287/287
f 223/223 224/224 288/288
f 224/224 289/289 288/288
f 224/224 225/225 289/289
f 225/225 290/290 289/289
f 225/225 226/226 290/290
f 226/226 291/291 290/290
f 226/226 227/227 291/291
f 227/227 292/292 291/291
f 227/227 228/228 292/292
f 228/228 293/293 292/292
f 228/228 229/229 293/293
f 229/229 294/294 293/293
f 229/229 230/230 294/294
f 230/230 295/295 294/294
f 230/230 231/231 295/295
f 231/231 296/296 295/295
f 231/231 232/232 296/296
f 232/232 297/297 296/296
f 232/232 233/233 297/297
f 233/233 298/298 297/297
f 233/233 234/234 298/298
f 234/234 299/299 298/298
f 234/234 235/235 299/299
f 235/235 300/300 299/299
f 235/235 236/236 300/300
f 236/236 301/301 300/300
f 236/236 237/237 301/301
f 237/237 302/302 301/301
f 237/237 238/238 302/302
f 238/238 303/303 302/302
f 238/238 239/239 303/303
f 239/239 304/304 303/303
f 239/239 240/240 304/304
f 240/240 305/305 304/304
f 240/240 241/241 305/305
f 241/241 306/306 305/305
f 241/241 242/242 306/306
f 242/242 307/307 306/306
f 242/242 243/243 307/307
f 243/243 308/308 307/307
f 243/243 244/244 308/308
f 244/244 309/309 308/308
f 244/244 245/245 309/309
f 245/245 310/310 309/309
f 245/245 246/246 310/310
f 246/246 311/311 310/310
f 246/246 247/247 311/311
f 247/247 312/312 311/311
f 247/247 248/248 312/312
f 248/248 313/313 312/312
f 248/248 249/249 313/313
f 249/249 314/314 313/313
f 249/249 250/250 314/314
f 250/250 315/315 314/314
f 250/250 251/251 315/315
f 251/251 316/316 315/315
f 251/251 252/252 316/316
f 252/252 317/317 316/316
f 252/252 253/253 317/317
f 253/253 318/318 317/317
f 253/253 254/254 318/318
f 254/254 319/319 318/318
f 254/254 255/255 319/319
f 255/255 320/320 319/319
f 255/255 256/256 320/320
f 256/256 321/321 320/320
f 256/256 257/257 321/321
f 257/257 322/322 321/321
f 257/257 258/258 322/322
f 258/258 323/323 322/322
f 258/258 259/259 323/323
f 259/259 324/324 323/323
f 259/259 260/260 324/324
f 260/260 325/325 324/324
f 261/261 262/262 326/326
f 262/262 327/327 326/326
f 262/262 263/263 327/327
f 263/263 328/328 327/327
f 263/263 264/264 328/328
f 264/264 329/329 328/328
f 264/264 265/265 329/329
f 265/265 330/330 329/329
f 265/265 266/266 330/330
f 266/266 331/331 330/330
f 266/266 267/267 331/331
f 267/267 332/332 331/331
f 267/267 268/268 332/332
f 268/268 333/333 332/332
f 268/268 269/269 333/333
f 269/269 334/334 333/333
f 269/269 270/270 334/334
f 270/270 335/335 334/334
f 270/270 271/271 335/335
f 271/271 336/336 335/335
f 271/271 272/272 336/336
f 272/272 337/337 336/336
f 272/272 273/273 337/337
f 273/273 338/338 337/337
f 273/273 274/274 338/338
f 274/274 339/339 338/338
f 274/274 275/275 339/339
f 275/275 340/340 339/339
f 275/275 276/276 340/340
f 276/276 341/341 340/340
f 276/276 277/277 341/341
f 277/277 342/342 341/341
f 277/277 278/278 342/342
f 278/278 343/343 342/342
f 278/278 279/279 343/343
f 279/279 344/344 343/343
f 279/279 280/280 344/344
f 280/280 345/345 344/344
f 280/280 281/281 345/345
f 281/281 346/346 345/345
f 281/281 282/282 346/346
f 282/282 347/347 346/346
f 282/282 283/283 347/347
f 283/283 348/348 347/347
f 283/283 284/284 348/348
f 284/284 349/349 348/348
f 284/284 285/285 349/349
f 285/285 350/350 349/349
f 285/285 286/286 350/350
f 286/286 351/351 350/350
f 286/286 287/287 351/351
f 287/287 352/352 351/351
f 287/287 288/288 352/352
f 288/288 353/353 352/352
f 288/288 289/289 353/353
f 289/289 354/354 353/353
f 289/289 290/290 354/354
f 290/290 355/355 354/354
f 290/290 291/291 355/355
f 291/291 356/356 355/355
f 291/291 292/292 356/356
f 292/292 357/357 356/356
f 292/292 293/293 357/357
f 293/293 358/358 357/357
f 293/293 294/294 358/358
f 294/294 359/359 358/358
f 294/294 295/295 359/359
f 295/295 360/360 359/359
f 295/295 296/296 360/360
f 296/296 361/361 360/360
f 296/296 297/297 361/361
f 297/297 362/362 361/361
f 297/297 298/298 362/362
f 298/298 363/363 362/362
f 298/298 299/299 363/363
f 299/299 364/364 363/363
f 299/299 300/300 364/364
f 300/300 365/365 364/364
f 300/300 301/301 365/365
f 301/301 366/366 365/365
f 301/301 302/302 366/366
f 302/302 367/367 366/366
f 302/302 303/303 367/367
f 303/303 368/368 367/367
f 303/303 304/304 368/368
f 304/304 369/369 368/368
f 304/304 305/305 369/369
f 305/305 370/370 369/369
f 305/305 306/306 370/370
f 306/306 371/371 370/370
f 306/306 307/307 371/371
f 307/307 372/372 371/371
f 307/307 308/308 372/372
f 308/308 373/373 372/372
f 308/308 309/309 373/373
f 309/309 374/374 373/373
f 309/309 310/310 374/374
f 310/310 375/375 374/374
f 310/310 311/311 375/375
f 311/311 376/376 375/375
f 311/311 312/312 376/376
f 312/312 377/377 376/376
f 312/312 313/313 377/377
f 313/313 378/378 377/377
f 313/313 314/314 378/378
f 314/314 379/379 378/378
f 314/314 315/315 379/379
f 315/315 380/380 379/379
f 315/315 316/316 380/380
f 316/316 381/381 380/380
f 316/316 317/317 381/381
f 317/317 382/382 381/381
f 317/317 318/318 382/382
f 318/318 383/383 382/382
f 318/318 319/319 383/383
f 319/319 384/384 383/383
f 319/319 320/320 384/384
f 320/320 385/385 384/384
f 320/320 321/321 385/385
f 321/321 386/386 385/385
f 321/321 322/322 386/386
f 322/322 387/387 386/386
f 322/322 323/323 387/387
f 323/323 388/388 387/387
f 323/323 324/324 388/388
f 324/324 389/389 388/388
f 324/324 325/325 389/389
f 325/325 390/390 389/389
f 326/326 327/327 391/391
f 327/327 392/392 391/391
f 327/327 328/328 392/392
f 328/328 393/393 392/392
f 328/328 329/329 393/393
f 329/329 394/394 393/393
f 329/329 330/330 394/394
f 330/330 395/395 394/394
f 330/330 331/331 395/395
f 331/331 396/396 395/395
f 331/331 332/332 396/396
f 332/332 397/397 396/396
f 332/332 333/333 397/397
f 333/333 398/398 397/397
f 333/333 334/334 398/398
f 334/334 399/399 398/398
f 334/334 335/335 399/399
f 335/335 400/400 399/399
f 335/335 336/336 400/400
f 336/336 401/401 400/400
f 336/336 337/337 401/401
f 337/337 402/402 401/401
f 337/337 338/338 402/402
f 338/338 403/403 402/402
f 338/338 339/339 403/403
f 339/339 404/404 403/403
f 339/339 340/340 404/404
f 340/340 405/405 404/404
f 340/340 341/341 405/405
f 341/341 406/406 405/405
f 341/341 342/342 406/406
f 342/342 407/407 406/406
f 342/342 343/343 407/407
f 343/343 408/408 407/407
f 343/343 344/344 408/408
f 344/344 409/409 408/408
f 344/344 345/345 409/409
f 345/345 410/410 409/409
f 345/345 346/346 410/410
f 346/346 411/411 410/410
f 346/346 347/347 411/411
f 347/347 412/412 411/411
f 347/347 348/348 412/412
f 348/348 413/413 412/412
f 348/348 349/349 413/413
f 349/349 414/414 413/413
f 349/349 350/350 414/414
f 350/350 415/415 414/414
f 350/350 351/351 415/415
f 351/351 416/416 415/415
f 351/351 352/352 416/416
f 352/352 417/417 416/416
f 352/352 353/353 417/417
f 353/353 418/418 417/417
f 353/353 354/354 418/418
f 354/354 419/419 418/418
f 354/354 355/355 419/419
f 355/355 420/420 419/419
f 355/355 356/356 420/420
f 356/356 421/421 420/420
f 356/356 357/357 421/421
f 357/357 422/422 421/421
f 357/357 358/358 422/422
f 358/358 423/423 422/422
f 358/358 359/359 423/423
f 359/359 424/424 423/423
f 359/359 360/360 424/424
f 360/360 425/425 424/424
f 360/360 361/361 425/425
f 361/361 426/426 425/425
f 361/361 362/362 426/426
f 362/362 427/427 426/426
f 362/362 363/363 427/427
f 363/363 428/428 427/427
f 363/363 364/364 428/428
f 364/364 429/429 428/428
f 364/364 365/365 429/429
f 365/365 430/430 429/429
f 365/365 366/366 430/430
f 366/366 431/431 430/430
f 366/366 367/367 431/431
f 367/367 432/432 431/431
f 367/367 368/368 432/432
f 368/368 433/433 432/432
f 368/368 369/369 433/433
f 369/369 434/434 433/433
f 369/369 370/370 434/434
f 370/370 435/435 434/434
f 370/370 371/371 435/435
f 371/371 436/436 435/435
f 371/371 372/372 436/436
f 372/372 437/437 436/436
f 372/372 373/373 437/437
f 373/373 438/438 437/437
f 373/373 374/374 438/438
f 374/374 439/439 438/438
f 374/374 375/375 439/439
f 375/375 440/440 439/439
f 375/375 376/376 440/440
f 376/376 441/441 440/440
f 376/376 377/377 441/441
f 377/377 442/442 441/441
f 377/377 378/378 442/442
f 378/378 443/443 442/442
f 378/378 379/379 443/443
f 379/379 444/444 443/443
f 379/379 380/380 444/444
f 380/380 445/445 444/444
f 380/380 381/381 445/445
f 381/381 446/446 445/445
f 381/381 382/382 446/446
f 382/382 447/447 446/446
f 382/382 383/383 447/447
f 383/383 448/448 447/447
f 383/383 384/384 448/448
f 384/384 449/449 448/448
f 384/384 385/385 449/449
f 385/385 450/450 449/449
f 385/385 386/386 450/450
f 386/386 451/451 450/450
f 386/386 387/387 451/451
f 387/387 452/452 451/451
f 387/387 388/388 452/452
f 388/388 453/453 452/452
f 388/388 389/389 453/453
f 389/389 454/454 453/453
f 389/389 390/390 454/454
f 390/390 455/455 454/454
f 391/391 392/392 456/456
f 392/392 457/457 456/456
f 392/392 393/393 457/457
f 393/393 458/458 457/457
f 393/393 394/394 458/458
f 394/394 459/459 458/458
f 394/394 395/395 459/459
f 395/395 460/460 459/459
f 395/395 396/396 460/460
f 396/396 461/461 460/460
f 396/396 397/397 461/461
f 397/397 462/462 461/461
f 397/397 398/398 462/462
f 398/398 463/463 462/462
f 398/398 399/399 463/463
f 399/399 464/464 463/463
f 399/399 400/400 464/464
f 400/400 465/465 464/464
f 400/400 401/401 465/465
f 401/401 466/466 465/465
f 401/401 402/402 466/466
f 402/402 467/467 466/466
f 402/402 403/403 467/467
f 403/403 468/468 467/467
f 403/403 404/404 468/468
f 404/404 469/469 468/468
f 404/404 405/405 469/469
f 405/405 470/470 469/469
f 405/405 406/406 470/470
f 406/406 471/471 470/470
f 406/406 407/407 471/471
f 407/407 472/472 471/471
f 407/407 408/408 472/472
f 408/408 473/473 472/472
f 408/408 409/409 473/473
f 409/409 474/474 473/473
f 409/409 410/410 474/474
f 410/410 475/475 474/474
f 410/410 411/411 475/475
f 411/411 476/476 475/475
f 411/411 412/412 476/476
f 412/412 477/477 476/476
f 412/412 413/413 477/477
f 413/413 478/478 477/477
f 413/413 414/414 478/478
f 414/414 479/479 478/478
f 414/414 415/415 479/479
f 415/415 480/480 479/479
f 415/415 416/416 480/480
f 416/416 481/481 480/480
f 416/416 417/417 481/481
f 417/417 482/482 481/481
f 417/417 418/418 482/482
f 418/418 483/483 482/482
f 418/418 419/419 483/483
f 419/419 484/484 483/483
f 419/419 420/420 484/484
f 420/420 485/485 484/484
f 420/420 421/421 485/485
f 421/421 486/486 485/485
f 421/421 422/422 486/486
f 422/422 487/487 486/486
f 422/422 423/423 487/487
f 423/423 488/488 487/487
f 423/423 424/424 488/488
f 424/424 489/489 488/488
f 424/424 425/425 489/489
f 425/425 490/490 489/489
f 425/425 426/426 490/490
f 426/426 491/491 490/490
f 426/426 427/427 491/491
f 427/427 492/492 491/491
f 427/427 428/428 492/492
f 428/428 493/493 492/492
f 428/428 429/429 493/493
f 429/429 494/494 493/493
f 429/429 430/430 494/494
f 430/430 495/495 494/494
f 430/430 431/431 495/495
f 431/431 496/496 495/495
f 431/431 432/432 496/496
f 432/432 497/497 496/496
f 432/432 433/433 497/497
f 433/433 498/498 497/497
f 433/433 434/434 498/498
f 434/434 499/499 498/498
f 434/434 435/435 499/499
f 435/435 500/500 499/499
f 435/435 436/436 500/500
f 436/436 501/501 500/500
f 436/436 437/437 501/501
f 437/437 502/502 501/501
f 437/437 438/438 502/502
f 438/438 503/503 502/502
f 438/438 439/439 503/503
f 439/439 504/504 503/503
f 439/439 440/440 504/504
f 440/440 505/505 504/504
f 440/440 441/441 505/505
f 441/441 506/506 505/505
f 441/441 442/442 506/506
f 442/442 507/507 506/506
f 442/442 443/443 507/507
f 443/443 508/508 507/507
f 443/443 444/444 508/508
f 444/444 509/509 508/508
f 444/444 445/445 509/509
f 445/445 510/510 509/509
f 445/445 446/446 510/510
f 446/446 511/511 510/510
f 446/446 447/447 511/511
f 447/447 512/512 511/511
f 447/447 448/448 512/512
f 448/448 513/513 512/512
f 448/448 449/449 513/513
f 449/449 514/514 513/513
f 449/449 450/450 514/514
f 450/450 515/515 514/514
f 450/450 451/451 515/515
f 451/451 516/516 515/515
f 451/451 452/452 516/516
f 452/452 517/517 516/516
f 452/452 453/453 517/517
f 453/453 518/518 517/517
f 453/453 454/454 518/518
f 454/454 519/519 518/518
f 454/454 455/455 519/519
f 455/455 520/520 519/519
f 456/456 457/457 521/521
f 457/457 522/522 521/521
f 457/457 458/458 522/522
f 458/458 523/523 522/522
f 458/458 459/459 523/523
f 459/459 524/524 523/523
f 459/459 460/460 524/524
f 460/460 525/525 524/524
f 460/460 461/461 525/525
f 461/461 526/526 525/525
f 461/461 462/462 526/526
f 462/462 527/527 526/526
f 462/462 463/463 527/527
f 463/463 528/528 527/527
f 463/463 464/464 528/528
f 464/464 529/529 528/528
f 464/464 465/465 529/529
f 465/465 530/530 529/529
f 465/465 466/466 530/530
f 466/466 531/531 530/530
f 466/466 467/467 531/531
f 467/467 532/532 531/531
f 467/467 468/468 532/532
f 468/468 533/533 532/532
f 468/468 469/469 533/533
f 469/469 534/534 533/533
f 469/469 470/470 534/534
f 470/470 535/535 534/534
f 470/470 471/471 535/535
f 471/471 536/536 535/535
f 471/471 472/472 536/536
f 472/472 537/537 536/536
f 472/472 473/473 537/537
f 473/473 538/538 537/537
f 473/473 474/474 538/538
f 474/474 539/539 538/538
f 474/474 475/475 539/539
f 475/475 540/540 539/539
f 475/475 476/476 540/540
f 476/476 541/541 540/540
f 476/476 477/477 541/541
f 477/477 542/542 541/541
f 477/477 478/478 542/542
f 478/478 543/543 542/542
f 478/478 479/479 543/543
f 479/479 544/544 543/543
f 479/479 480/480 544/544
f 480/480 545/545 544/544
f 480/480 481/481 545/545
f 481/481 546/546 545/545
f 481/481 482/482 546/546
f 482/482 547/547 546/546
f 482/482 483/483 547/547
f 483/483 548/548 547/547
f 483/483 484/484 548/548
f 484/484 549/549 548/548
f 484/484 485/485 549/549
f 485/485 550/550 549/549
f 485/485 486/486 550/550
f 486/486 551/551 550/550
f 486/486 487/487 551/551
f 487/487 552/552 551/551
f 487/487 488/488 552/552
f 488/488 553/553 552/552
f 488/488 489/489 553/553
f 489/489 554/554 553/553
f 489/489 490/490 554/554
f 490/490 555/555 554/554
f 490/490 491/491 555/555
f 491/491 556/556 555/555
f 491/491 492/492 556/556
f 492/492 557/557 556/556
f 492/492 493/493 557/557
f 493/493 558/558 557/557
f 493/493 494/494 558/558
f 494/494 559/559 558/558
f 494/494 495/495 559/559
f 495/495 560/560 559/559
f 495/495 496/496 560/560
f 496/496 561/561 560/560
f 496/496 497/497 561/561
f 497/497 562/562 561/561
f 497/497 498/498 562/562
f 498/498 563/563 562/562
f 498/498 499/499 563/563
f 499/499 564/564 563/563
f 499/499 500/500 564/564
f 500/500 565/565 564/564
f 500/500 501/501 565/565
f 501/501 566/566 565/565
f 501/501 502/502 566/566
f 502/502 567/567 566/566
f 502/502 503/503 567/567
f 503/503 568/568 567/567
f 503/503 504/504 568/568
f 504/504 569/569 568/568
f 504/504 505/505 569/569
f 505/505 570/570 569/569
f 505/505 506/506 570/570
f 506/506 571/571 570/570
f 506/506 507/507 571/571
f 507/507 572/572 571/571
f 507/507 508/508 572/572
f 508/508 573/573 572/572
f 508/508 509/509 573/573
f 509/509 574/574 573/573
f 509/509 510/510 574/574
f 510/510 575/575 574/574
f 510/510 511/511 575/575
f 511/511 576/576 575/575
f 511/511 512/512 576/576
f 512/512 577/577 576/576
f 512/512 513/513 577/577
f 513/513 578/578 577/577
f 513/513 514/514 578/578
f 514/514 579/579 578/578
f 514/514 515/515 579/579
f 515/515 580/580 579/579
f 515/515 516/516 580/580
f 516/516 581/581 580/580
f 516/516 517/517 581/581
f 517/517 582/582 581/581
f 517/517 518/518 582/582
f 518/518 583/583 582/582
f 518/518 519/519 583/583
f 519/519 584/584 583/583
f 519/519 520/520 584/584
f 520/520 585/585 584/584
f 521/521 522/522 586/586
f 522/522 587/587 586/586
f 522/522 523/523 587/587
f 523/523 588/588 587/587
f 523/523 524/524 588/588
f 524/524 589/589 588/588
f 524/524 525/525 589/589
f 525/525 590/590 589/589
f 525/525 526/526 590/590
f 526/526 591/591 590/590
f 526/526 527/527 591/591
f 527/527 592/592 591/591
f 527/527 528/528 592/592
f 528/528 593/593 592/592
f 528/528 529/529 593/593
f 529/529 594/594 593/593
f 529/529 530/530 594/594
f 530/530 595/595 594/594
f 530/530 531/531 595/595
f 531/531 596/596 595/595
f 531/531 532/532 596/596
f 532/532 597/597 596/596
f 532/532 533/533 597/597
f 533/533 598/598 597/597
f 533/533 534/534 598/598
f 534/534 599/599 598/598
f 534/534 535/535 599/599
f 535/535 600/600 599/599
f 535/535 536/536 600/600
f 536/536 601/601 600/600
f 536/536 537/537 601/601
f 537/537 602/602 601/601
f 537/537 538/538 602/602
f 538/538 603/603 602/602
f 538/538 539/539 603/603
f 539/539 604/604 603/603
f 539/539 540/540 604/604
f 540/540 605/605 604/604
f 540/540 541/541 605/605
f 541/541 606/606 605/605
f 541/541 542/542 606/606
f 542/542 607/607 606/606
f 542/542 543/543 607/607
f 543/543 608/608 607/607
f 543/543 544/544 608/608
f 544/544 609/609 608/608
f 544/544 545/545 609/609
f 545/545 610/610 609/609
f 545/545 546/546 610/610
f 546/546 611/611 610/610
f 546/546 547/547 611/611
f 547/547 612/612 611/611
f 547/547 548/548 612/612
f 548/548 613/613 612/612
f 548/548 549/549 613/613
f 549/549 614/614 613/613
f 549/549 550/550 614/614
f 550/550 615/615 614/614
f 550/550 551/551 615/615
f 551/551 616/616 615/615
f 551/551 552/552 616/616
f 552/552 617/617 616/616
f 552/552 553/553 617/617
f 553/553 618/618 617/617
f 553/553 554/554 618/618
f 554/554 619/619 618/618
f 554/554 555/555 619/619
f 555/555 620/620 619/619
f 555/555 556/556 620/620
f 556/556 621/621 620/620
f 556/556 557/557 621/621
f 557/557 622/622 621/621
f 557/557 558/558 622/622
f 558/558 623/623 622/622
f 558/558 559/559 623/623
f 559/559 624/624 623/623
f 559/559 560/560 624/624
f 560/560 625/625 624/624
f 560/560 561/561 625/625
f 561/561 626/626 625/625
f 561/561 562/562 626/626
f 562/562 627/627 626/626
f 562/562 563/563 627/627
f 563/563 628/628 627/627
f 563/563 564/564 628/628
f 564/564 629/629 628/628
f 564/564 565/565 629/629
f 565/565 630/630 629/629
f 565/565 566/566 630/630
f 566/566 631/631 630/630
f 566/566 567/567 631/631
f 567/567 632/632 631/631
f 567/567 568/568 632/632
f 568/568 633/633 632/632
f 568/568 569/569 633/633
f 569/569 634/634 633/633
f 569/569 570/570 634/634
f 570/570 635/635 634/634
f 570/570 571/571 635/635
f 571/571 636/636 635/635
f 571/571 572/572 636/636
f 572/572 637/637 636/636
f 572/572 573/573 637/637
f 573/573 638/638 637/637
f 573/573 574/574 638/638
f 574/574 639/639 638/638
f 574/574 575/575 639/639
f 575/575 640/640 639/639
f 575/575 576/576 640/640
f 576/576 641/641 640/640
f 576/576 577/577 641/641
f 577/577 642/642 641/641
f 577/577 578/578 642/642
f 578/578 643/643 642/642
f 578/578 579/579 643/643
f 579/579 644/644 643/643
f 579/579 580/580 644/644
f 580/580 645/645 644/644
f 580/580 581/581 645/645
f 581/581 646/646 645/645
f 581/581 582/582 646/646
f 582/582 647/647 646/646
f 582/582 583/583 647/647
f 583/583 648/648 647/647
f 583/583 584/584 648/648
f 584/584 649/649 648/648
f 584/584 585/585 649/649
f 585/585 650/650 649/649
f 586/586 587/587 651/651
f 587/587 652/652 651/651
f 587/587 588/588 652/652
f 588/588 653/653 652/652
f 588/588 589/589 653/653
f 589/589 654/654 653/653
f 589/589 590/590 654/654
f 590/590 655/655 654/654
f 590/590 591/591 655/655
f 591/591 656/656 655/655
f 591/591 592/592 656/656
f 592/592 657/657 656/656
f 592/592 593/593 657/657
f 593/593 658/658 657/657
f 593/593 594/594 658/658
f 594/594 659/659 658/658
f 594/594 595/595 659/659
f 595/595 660/660 659/659
f 595/595 596/596 660/660
f 596/596 661/661 660/660
f 596/596 597/597 661/661
f 597/597 662/662 661/661
f 597/597 598/598 662/662
f 598/598 663/663 662/662
f 598/598 599/599 663/663
f 599/599 664/664 663/663
f 599/599 600/600 664/664
f 600/600 665/665 664/664
f 600/600 601/601 665/665
f 601/601 666/666 665/665
f 601/601 602/602 666/666
f 602/602 667/667 666/666
f 602/602 603/603 667/667
f 603/603 668/668 667/667
f 603/603 604/604 668/668
f 604/604 669/669 668/668
f 604/604 605/605 669/669
f 605/605 670/670 669/669
f 605/605 606/606 670/670
f 606/606 671/671 670/670
f 606/606 607/607 671/671
f 607/607 672/672 671/671
f 607/607 608/608 672/672
f 608/608 673/673 672/672
f 608/608 609/609 673/673
f 609/609 674/674 673/673
f 609/609 610/610 674/674
f 610/610 675/675 674/674
f 610/610 611/611 675/675
f 611/611 676/676 675/675
f 611/611 612/612 676/676
f 612/612 677/677 676/676
f 612/612 613/613 677/677
f 613/613 678/678 677/677
f 613/613 614/614 678/678
f 614/614 679/679 678/678
f 614/614 615/615 679/679
f 615/615 680/680 679/679
f 615/615 616/616 680/680
f 616/616 681/681 680/680
f 616/616 617/617 681/681
f 617/617 682/682 681/681
f 617/617 618/618 682/682
f 618/618 683/683 682/682
f 618/618 619/619 683/683
f 619/619 684/684 683/683
f 619/619 620/620 684/684
f 620/620 685/685 684/684
f 620/620 621/621 685/685
f 621/621 686/686 685/685
f 621/621 622/622 686/686
f 622/622 687/687 686/686
f 622/622 623/623 687/687
f 623/623 688/688 687/687
f 623/623 624/624 688/688
f 624/624 689/689 688/688
f 624/624 625/625 689/689
f 625/625 690/690 689/689
f 625/625 626/626 690/690
f 626/626 691/691 690/690
f 626/626 627/627 691/691
f 627/627 692/692 691/691
f 627/627 628/628 692/692
f 628/628 693/693 692/692
f 628/628 629/629 693/693
f 629/629 694/694 693/693
f 629/629 630/630 694/694
f 630/630 695/695 694/694
f 630/630 631/631 695/695
f 631/631 696/696 695/695
f 631/631 632/632 696/696
f 632/632 697/697 696/696
f 632/632 633/633 697/697
f 633/633 698/698 697/697
f 633/633 634/634 698/698
f 634/634 699/699 698/698
f 634/634 635/635 699/699
f 635/635 700/700 699/699
f 635/635 636/636 700/700
f 636/636 701/701 700/700
f 636/636 637/637 701/701
f 637/637 702/702 701/701
f 637/637 638/638 702/702
f 638/638 703/703 702/702
f 638/638 639/639 703/703
f 639/639 704/704 703/703
f 639/639 640/640 704/704
f 640/640 705/705 704/704
f 640/640 641/641 705/705
f 641/641 706/706 705/705
f 641/641 642/642 706/706
f 642/642 707/707 706/706
f 642/642 643/643 707/707
f 643/643 708/708 707/707
f 643/643 644/644 708/708
f 644/644 709/709 708/708
f 644/644 645/645 709/709
f 645/645 710/710 709/709
f 645/645 646/646 710/710
f 646/646 711/711 710/710
f 646/646 647/647 711/711
f 647/647 712/712 711/711
f 647/647 648/648 712/712
f 648/648 713/713 712/712
f 648/648 649/649 713/713
f 649/649 714/714 713/713
f 649/649 650/650 714/714
f 650/650 715/715 714/714
f 651/651 652/652 716/716
f 652/652 717/717 716/716
f 652/652 653/653 717/717
f 653/653 718/718 717/717
f 653/653 654/654 718/718
f 654/654 719/719 718/718
f 654/654 655/655 719/719
f 655/655 720/720 719/719
f 655/655 656/656 720/720
f 656/656 721/721 720/720
f 656/656 657/657 721/721
f 657/657 722/722 721/721
f 657/657 658/658 722/722
f 658/658 723/723 722/722
f 658/658 659/659 723/723
f 659/659 724/724 723/723
f 659/659 660/660 724/724
f 660/660 725/725 724/724
f 660/660 661/661 725/725
f 661/661 726/726 725/725
f 661/661 662/662 726/726
f 662/662 727/727 726/726
f 662/662 663/663 727/727
f 663/663 728/728 727/727
f 663/663 664/664 728/728
f 664/664 729/729 728/728
f 664/664 665/665 729/729
f 665/665 730/730 729/729
f 665/665 666/666 730/730
f 666/666 731/731 730/730
f 666/666 667/667 731/731
f 667/667 732/732 731/731
f 667/667 668/668 732/732
f 668/668 733/733 732/732
f 668/668 669/669 733/733
f 669/669 734/734 733/733
f 669/669 670/670 734/734
f 670/670 735/735 734/734
f 670/670 671/671 735/735
f 671/671 736/736 735/735
f 671/671 672/672 736/736
f 672/672 737/737 736/736
f 672/672 673/673 737/737
f 673/673 738/738 737/737
f 673/673 674/674 738/738
f 674/674 739/739 738/738
f 674/674 675/675 739/739
f 675/675 740/740 739/739
f 675/675 676/676 740/740
f 676/676 741/741 740/740
f 676/676 677/677 741/741
f 677/677 742/742 741/741
f 677/677 678/678 742/742
f 678/678 743/743 742/742
f 678/678 679/679 743/743
f 679/679 744/744 743/743
f 679/679 680/680 744/744
f 680/680 745/745 744/744
f 680/680 681/681 745/745
f 681/681 746/746 745/745
f 681/681 682/682 746/746
f 682/682 747/747 746/746
f 682/682 683/683 747/747
f 683/683 748/748 747/747
f 683/683 684/684 748/748
f 684/684 749/749 748/748
f 684/684 685/685 749/749
f 685/685 750/750 749/749
f 685/685 686/686 750/750
f 686/686 751/751 750/750
f 686/686 687/687 751/751
f 687/687 752/752 751/751
f 687/687 688/688 752/752
f 688/688 753/753 752/752
f 688/688 689/689 753/753
f 689/689 754/754 753/753
f 689/689 690/690 754/754
f 690/690 755/755 754/754
f 690/690 691/691 755/755
f 691/691 756/756 755/755
f 691/691 692/692 756/756
f 692/692 757/757 756/756
f 692/692 693/693 757/757
f 693/693 758/758 757/757
f 693/693 694/694 758/758
f 694/694 759/759 758/758
f 694/694 695/695 759/759
f 695/695 760/760 759/759
f 695/695 696/696 760/760
f 696/696 761/761 760/760
f 696/696 697/697 761/761
f 697/697 762/762 761/761
f 697/697 698/698 762/762
f 698/698 763/763 762/762
f 698/698 699/699 763/763
f 699/699 764/764 763/763
f 699/699 700/700 764/764
f 700/700 765/765 764/764
f 700/700 701/701 765/765
f 701/701 766/766 765/765
f 701/701 702/702 766/766
f 702/702 767/767 766/766
f 702/702 703/703 767/767
f 703/703 768/768 767/767
f 703/703 704/704 768/768
f 704/704 769/769 768/768
f 704/704 705/705 769/769
f 705/705 770/770 769/769
f 705/705 706/706 770/770
f 706/706 771/771 770/770
f 706/706 707/707 771/771
f 707/707 772/772 771/771
f 707/707 708/708 772/772
f 708/708 773/773 772/772
f 708/708 709/709 773/773
f 709/709 774/774 773/773
f 709/709 710/710 774/774
f 710/710 775/775 774/774
f 710/710 711/711 775/775
f 711/711 776/776 775/775
f 711/711 712/712 776/776
f 712/712 777/777 776/776
f 712/712 713/713 777/777
f 713/713 778/778 777/777
f 713/713 714/714 778/778
f 714/714 779/779 778/778
f 714/714 715/715 779/779
f 715/715 780/780 779/779
f 716/716 717/717 781/781
f 717/717 782/782 781/781
f 717/717 718/718 782/782
f 718/718 783/783 782/782
f 718/718 719/719 783/783
f 719/719 784/784 783/783
f 719/719 720/720 784/784
f 720/720 785/785 784/784
f 720/720 721/721 785/785
f 721/721 786/786 785/785
f 721/721 722/722 786/786
f 722/722 787/787 786/786
f 722/722 723/723 787/787
f 723/723 788/788 787/787
f 723/723 724/724 788/788
f 724/724 789/789 788/788
f 724/724 725/725 789/789
f 725/725 790/790 789/789
f 725/725 726/726 790/790
f 726/726 791/791 790/790
f 726/726 727/727 791/791
f 727/727 792/792 791/791
f 727/727 728/728 792/792
f 728/728 793/793 792/792
f 728/728 729/729 793/793
f 729/729 794/794 793/793
f 729/729 730/730 794/794
f 730/730 795/795 794/794
f 730/730 731/731 795/795
f 731/731 796/796 795/795
f 731/731 732/732 796/796
f 732/732 797/797 796/796
f 732/732 733/733 797/797
f 733/733 798/798 797/797
f 733/733 734/734 798/798
f 734/734 799/799 798/798
f 734/734 735/735 799/799
f 735/735 800/800 799/799
f 735/735 736/736 800/800
f 736/736 801/801 800/800
f 736/736 737/737 801/801
f 737/737 802/802 801/801
f 737/737 738/738 802/802
f 738/738 803/803 802/802
f 738/738 739/739 803/803
f 739/739 804/804 803/803
f 739/739 740/740 804/804
f 740/740 805/805 804/804
f 740/740 741/741 805/805
f 741/741 806/806 805/805
f 741/741 742/742 806/806
f 742/742 807/807 806/806
f 742/742 743/743 807/807
f 743/743 808/808 807/807
f 743/743 744/744 808/808
f 744/744 809/809 808/808
f 744/744 745/745 809/809
f 745/745 810/810 809/809
f 745/745 746/746 810/810
f 746/746 811/811 810/810
f 746/746 747/747 811/811
f 747/747 812/812 811/811
f 747/747 748/748 812/812
f 748/748 813/813 812/812
f 748/748 749/749 813/813
f 749/749 814/814 813/813
f 749/749 750/750 814/814
f 750/750 815/815 814/814
f 750/750 751/751 815/815
f 751/751 816/816 815/815
f 751/751 752/752 816/816
f 752/752 817/817 816/816
f 752/752 753/753 817/817
f 753/753 818/818 817/817
f 753/753 754/754 818/818
f 754/754 819/819 818/818
f 754/754 755/755 819/819
f 755/755 820/820 819/819
f 755/755 756/756 820/820
f 756/756 821/821 820/820
f 756/756 757/757 821/821
f 757/757 822/822 821/821
f 757/757 758/758 822/822
f 758/758 823/823 822/822
f 758/758 759/759 823/823
f 759/759 824/824 823/823
f 759/759 760/760 824/824
f 760/760 825/825 824/824
f 760/760 761/761 825/825
f 761/761 826/826 825/825
f 761/761 762/762 826/826
f 762/762 827/827 826/826
f 762/762 763/763 827/827
f 763/763 828/828 827/827
f 763/763 764/764 828/828
f 764/764 829/829 828/828
f 764/764 765/765 829/829
f 765/765 830/830 829/829
f 765/765 766/766 830/830
f 766/766 831/831 830/830
f 766/766 767/767 831/831
f 767/767 832/832 831/831
f 767/767 768/768 832/832
f 768/768 833/833 832/832
f 768/768 769/769 833/833
f 769/769 834/834 833/833
f 769/769 770/770 834/834
f 770/770 835/835 834/834
f 770/770 771/771 835/835
f 771/771 836/836 835/835
f 771/771 772/772 836/836
f 772/772 837/837 836/836
f 772/772 773/773 837/837
f 773/773 838/838 837/837
f 773/773 774/774 838/838
f 774/774 839/839 838/838
f 774/774 775/775 839/839
f 775/775 840/840 839/839
f 775/775 776/776 840/840
f 776/776 841/841 840/840
f 776/776 777/777 841/841
f 777/777 842/842 841/841
f 777/777 778/778 842/842
f 778/778 843/843 842/842
f 778/778 779/779 843/843
f 779/779 844/844 843/843
f 779/779 780/780 844/844
f 780/780 845/845 844/844
